<?xml version="1.0" standalone="no"?>
<!DOCTYPE svg PUBLIC "-//W3C//DTD SVG 1.1//EN" "http://www.w3.org/Graphics/SVG/1.1/DTD/svg11.dtd" >
<svg xmlns="http://www.w3.org/2000/svg" xmlns:xlink="http://www.w3.org/1999/xlink" version="1.1">
<metadata>
Created by FontForge 20170731 at Wed Aug  5 14:45:21 2015
 By Aleksey,,,
Copyright (c) 2015 by PYRS Fontlab Ltd. / Made with FontLab. All rights reserved.
</metadata>
<defs>
<font id="Sabre-Medium" horiz-adv-x="565" >
  <font-face 
    font-family="Sabre Med"
    font-weight="500"
    font-stretch="normal"
    units-per-em="1000"
    panose-1="0 0 0 0 0 0 0 0 0 0"
    ascent="800"
    descent="-200"
    x-height="485"
    cap-height="700"
    bbox="-35 -289 1054 958"
    underline-thickness="50"
    underline-position="-200"
    unicode-range="U+0020-FB04"
  />
<missing-glyph horiz-adv-x="500" 
d="M438 0h-375v800h375v-800zM125 738v-675h250v675h-250z" />
    <glyph glyph-name="f_f" unicode="ff" horiz-adv-x="760" 
d="M740 730v-130l-179 119v-234h165v-74h-165v-337l135 -61v-13h-326v12l66 92v307h-208v-337l80 -61v-13h-291v12l86 92v281l-93 87v13h93v129q0 73 49.5 105t123.5 32q93 0 185 -65q46 64 157 64q65 0 122 -20zM453 674q-58 10 -113 10q-57 0 -84.5 -21.5t-27.5 -77.5
v-100h208v120q0 40 17 69z" />
    <glyph glyph-name="f_f_i" unicode="ffi" horiz-adv-x="980" 
d="M960 13v-13h-287v13l76 91v286l-188 25v-341l70 -61v-13h-281v12l86 92v307h-208v-337l80 -61v-13h-291v12l86 92v281l-93 87v13h93v129q0 73 49.5 105t123.5 32q94 0 186 -65q50 65 156 65q61 0 122 -21v-130l-179 119v-289l313 86v-442zM453 674q-58 10 -113 10
q-57 0 -84.5 -21.5t-27.5 -77.5v-100h208v120q0 40 17 69z" />
    <glyph glyph-name="f_f_l" unicode="ffl" horiz-adv-x="993" 
d="M978 13v-13h-287v13l76 91v565q-46 12 -85 12q-121 0 -121 -90v-106h105v-74h-105v-337l70 -61v-13h-281v12l86 92v307h-208v-337l80 -61v-13h-291v12l86 92v281l-93 87v13h93v129q0 73 49.5 105t123.5 32q93 0 185 -65q44 61 135 61q96 0 166 -55l130 75v-693zM453 674
q-58 10 -113 10q-57 0 -84.5 -21.5t-27.5 -77.5v-100h208v120q0 40 17 69z" />
    <glyph glyph-name="f_j" unicode="fj" horiz-adv-x="641" 
d="M541 516v-615q0 -63 -38 -97.5t-91 -34.5q-56 0 -100 43v10q39 8 71.5 33.5t32.5 63.5v471l-188 25v-341l70 -61v-13h-281v12l86 92v281l-93 87v13h93v120q0 75 51.5 110t128.5 35q66 0 124 -20v-130l-179 119v-289z" />
    <glyph glyph-name="f_t" unicode="ft" horiz-adv-x="751" 
d="M721 485v-74h-166v-257q0 -83 101 -83q23 0 44 3l2 -14q-29 -35 -68.5 -55t-79.5 -20q-53 0 -89 33.5t-36 97.5v272l-201 85v-399l70 -61v-13h-281v12l86 92v281l-93 87v13h93v120q0 75 51.5 110t128.5 35q66 0 124 -20v-130l-179 119v-234h206l109 168h12v-168h166z" />
    <glyph glyph-name="f_f_j" unicode="ffj" horiz-adv-x="974" 
d="M874 516v-615q0 -63 -38 -97.5t-91 -34.5q-56 0 -100 43v10q39 8 71.5 33.5t32.5 63.5v471l-188 25v-341l70 -61v-13h-281v12l86 92v307h-208v-337l80 -61v-13h-291v12l86 92v281l-93 87v13h93v129q0 73 49.5 105t123.5 32q94 0 186 -65q49 64 157 64q64 0 121 -20v-130
l-179 119v-289zM453 674q-58 10 -113 10q-57 0 -84.5 -21.5t-27.5 -77.5v-100h208v120q0 40 17 69z" />
    <glyph glyph-name="f_f_t" unicode="fft" horiz-adv-x="1084" 
d="M1054 485v-74h-166v-257q0 -83 101 -83q23 0 44 3l2 -14q-29 -35 -68.5 -55t-79.5 -20q-53 0 -89 33.5t-36 97.5v272l-201 85v-399l70 -61v-13h-281v12l86 92v307h-208v-337l80 -61v-13h-291v12l86 92v281l-93 87v13h93v129q0 73 49.5 105t123.5 32q94 0 184 -64
q44 63 156 63q66 0 124 -20v-130l-179 119v-234h206l109 168h12v-168h166zM340 684q-57 0 -84.5 -21.5t-27.5 -77.5v-100h208v120q0 39 16 69q-58 10 -112 10z" />
    <glyph glyph-name=".notdef" horiz-adv-x="500" 
d="M438 0h-375v800h375v-800zM125 738v-675h250v675h-250z" />
    <glyph glyph-name=".null" horiz-adv-x="0" 
 />
    <glyph glyph-name="nonmarkingreturn" horiz-adv-x="333" 
 />
    <glyph glyph-name="space" unicode=" " horiz-adv-x="200" 
 />
    <glyph glyph-name="exclam" unicode="!" horiz-adv-x="265" 
d="M45 700h175l-80 -476h-15zM218 72q0 -35 -25 -60t-60 -25t-60 25t-25 60t25 60t60 25t60 -25t25 -60z" />
    <glyph glyph-name="quotedbl" unicode="&#x22;" horiz-adv-x="459" 
d="M260 700h169l-75 -307h-19zM30 700h169l-75 -307h-19z" />
    <glyph glyph-name="numbersign" unicode="#" horiz-adv-x="622" 
d="M602 476v-44h-143l-48 -162h129v-44h-142l-69 -226h-48l68 226h-142l-68 -226h-48l68 226h-129v44h142l49 162h-128v44h141l69 224h50l-70 -224h141l69 224h50l-70 -224h129zM362 270l49 162h-142l-48 -162h141z" />
    <glyph glyph-name="dollar" unicode="$" horiz-adv-x="623" 
d="M553 192q0 -92 -64 -150.5t-147 -58.5v-102h-48v107q-62 14 -104 64l-120 -63v240h12l109 -146q45 -12 87 -12q10 0 16 1v238q-32 11 -42.5 15t-40 17t-41 22t-32 27t-29 36.5t-16 45.5t-7.5 59q0 84 53 131.5t127 47.5q10 0 28 -2v107h48v-119q45 -18 78 -52l114 65
v-240h-12l-109 150q-43 10 -71 11v-209q29 -11 43 -16.5t40.5 -18t40.5 -23.5t33.5 -29t29 -37.5t17 -46.5t7.5 -59zM294 441v188q-83 -14 -83 -100q0 -31 21.5 -51t61.5 -37zM426 188q0 38 -22 62t-62 42v-213q84 25 84 109z" />
    <glyph glyph-name="percent" unicode="%" horiz-adv-x="706" 
d="M532 737l42 -23l-389 -736l-43 23zM681 176q0 -88 -42 -136.5t-104 -48.5t-104 48.5t-42 135.5t42 135.5t104 48.5q63 0 104.5 -48t41.5 -135zM317 527q0 -88 -42 -136.5t-104 -48.5t-104 48.5t-42 135.5t42 135.5t104 48.5q63 0 104.5 -48t41.5 -135zM632 176
q0 70 -29 104t-68 34t-68 -34.5t-29 -104.5t29 -104t68 -34t68 34.5t29 104.5zM268 527q0 70 -29 104t-68 34t-68 -34.5t-29 -104.5t29 -104t68 -34t68 34.5t29 104.5z" />
    <glyph glyph-name="ampersand" unicode="&#x26;" horiz-adv-x="736" 
d="M706 400v-15l-96 -65l-61 -157l126 -148v-15h-145l-91 107q-23 -62 -75 -94.5t-115 -32.5q-80 0 -139 50t-59 136q0 67 43.5 122t124.5 74l-54 63q-44 51 -44 117q0 81 49 126.5t115 45.5q92 0 136 -75l106 71v-240h-12l-109 150q-40 8 -70 8q-93 0 -93 -73q0 -35 26 -66
l218 -255l34 86l-73 66v14h258zM425 122l-191 223q-52 -43 -52 -124q0 -60 34.5 -101.5t99.5 -41.5q68 0 109 44z" />
    <glyph glyph-name="quotesingle" unicode="'" horiz-adv-x="229" 
d="M30 700h169l-75 -307h-19z" />
    <glyph glyph-name="parenleft" unicode="(" horiz-adv-x="343" 
d="M328 -119l-40 -42q-117 74 -177.5 195t-60.5 260t60.5 260t177.5 195l40 -42q-67 -49 -103 -161t-36 -250q0 -140 36 -253t103 -162z" />
    <glyph glyph-name="parenright" unicode=")" horiz-adv-x="348" 
d="M293 294q0 -139 -60.5 -260t-177.5 -195l-40 42q67 49 103 162t36 253q0 138 -36 250t-103 161l40 42q117 -74 177.5 -195t60.5 -260z" />
    <glyph glyph-name="asterisk" unicode="*" horiz-adv-x="622" 
d="M491 630l51 -158l-224 10l187 -124l-134 -97l-60 216l-60 -216l-134 97l187 124l-224 -10l51 158l176 -140l-79 210h166l-79 -210z" />
    <glyph glyph-name="plus" unicode="+" horiz-adv-x="603" 
d="M543 368v-52h-215v-215h-52v215h-216v52h216v216h52v-216h215z" />
    <glyph glyph-name="comma" unicode="," horiz-adv-x="273" 
d="M223 47q0 -71 -53.5 -129t-124.5 -58l55 133q-24 9 -39 30.5t-15 48.5q0 35 25 60t60 25q44 0 68 -32.5t24 -77.5z" />
    <glyph glyph-name="hyphen" unicode="-" horiz-adv-x="459" 
d="M409 313v-74h-359v74h359z" />
    <glyph glyph-name="period" unicode="." horiz-adv-x="265" 
d="M215 72q0 -35 -25 -60t-60 -25t-60 25t-25 60t25 60t60 25t60 -25t25 -60z" />
    <glyph glyph-name="slash" unicode="/" horiz-adv-x="352" 
d="M308 730l44 -18l-307 -731l-45 19z" />
    <glyph glyph-name="zero" unicode="0" horiz-adv-x="674" 
d="M624 349q0 -173 -82 -268t-204 -95t-205 95t-83 268t83 267.5t205 94.5t204 -94.5t82 -267.5zM485 349q0 43 -2 76t-10.5 74.5t-24 68.5t-44 45.5t-67.5 18.5t-68 -18.5t-44 -45.5t-24 -68t-11 -74.5t-2 -76.5q0 -35 1.5 -63t6.5 -63.5t15.5 -61t26 -49t41 -35.5
t58.5 -12t58.5 12t41 35.5t26 49t15 61t6 63.5t1.5 63z" />
    <glyph glyph-name="one" unicode="1" horiz-adv-x="467" 
d="M407 15v-15h-357v15l116 89v461h-126v18l183 117h68v-616z" />
    <glyph glyph-name="two" unicode="2" horiz-adv-x="598" 
d="M528 229v-246l-86 17h-412v17q73 37 157 119t144.5 182t60.5 173q0 70 -34 104.5t-92 34.5q-33 0 -67 -10l-109 -150h-12v240l114 -65q47 60 136 60q77 0 135.5 -54t58.5 -145q0 -59 -26 -116t-63 -98.5t-86 -80t-85.5 -60t-71.5 -38.5v-2h255l71 118h12z" />
    <glyph glyph-name="three" unicode="3" horiz-adv-x="606" 
d="M546 175q0 -75 -54.5 -131t-150.5 -56q-97 0 -149 69l-122 -68v240h12l109 -146q54 -8 90 -8q68 0 100 32.5t32 83.5q0 122 -146 122h-48v74h48q82 0 109 33t27 87q0 118 -122 118q-37 0 -80 -8l-109 -146h-12v240l123 -67q49 66 133 66q94 0 147.5 -55.5t53.5 -130.5
q0 -64 -41.5 -113t-118.5 -60v-2q81 -9 125 -58.5t44 -115.5z" />
    <glyph glyph-name="four" unicode="4" horiz-adv-x="652" 
d="M592 226v-106h-121v-120h-125v120h-316v20l343 560h98v-474h121zM133 226h213v302z" />
    <glyph glyph-name="five" unicode="5" horiz-adv-x="601" 
d="M546 219q0 -92 -59 -161t-161 -69q-87 0 -143 65l-123 -65v240h12l109 -146q54 -8 81 -8q67 0 110 34.5t43 104.5q0 147 -167 147q-75 0 -154 -25l28 364h395v-112h-313l-15 -193q51 47 134 47q97 0 160 -62.5t63 -160.5z" />
    <glyph glyph-name="six" unicode="6" horiz-adv-x="618" 
d="M563 208q0 -90 -62.5 -155.5t-175.5 -65.5q-76 0 -130 31t-82.5 85t-40.5 114.5t-12 132.5q0 65 12 124.5t38 115t76 88.5t118 33q90 0 130 -67l108 66v-240h-12l-110 153q-22 6 -47 6q-45 0 -77.5 -15t-51 -38t-30 -58.5t-15 -68t-4.5 -74.5q61 66 156 66
q86 0 149 -65.5t63 -167.5zM433 206q0 81 -45 118.5t-117 37.5q-41 0 -76 -7v-5q0 -83 10.5 -140.5t29.5 -87t41.5 -42t50.5 -12.5q51 0 78.5 40t27.5 98z" />
    <glyph glyph-name="seven" unicode="7" horiz-adv-x="598" 
d="M553 700v-14l-237 -686h-164l329 588h-333l-71 -118h-12v240l86 -10h402z" />
    <glyph glyph-name="eight" unicode="8" horiz-adv-x="632" 
d="M582 198q0 -86 -74.5 -151t-195.5 -65q-125 0 -193.5 59.5t-68.5 139.5q0 60 40 107t111 61q-121 63 -121 187q0 88 69.5 136t165.5 48q117 0 180.5 -54t63.5 -127q0 -53 -34 -95t-94 -55q71 -30 111 -73t40 -118zM437 498q0 69 -37 105t-87 36q-44 0 -74.5 -24
t-30.5 -66q0 -22 9.5 -40.5t20.5 -30.5t36.5 -25.5t40.5 -19.5t50 -19t49 -18q23 41 23 102zM451 185q0 26 -13.5 46t-39.5 34.5t-52 25t-64.5 24.5t-63.5 26q-19 -20 -31 -59t-12 -78q0 -68 41 -103.5t98 -35.5t97 31t40 89z" />
    <glyph glyph-name="nine" unicode="9" horiz-adv-x="623" 
d="M563 345q0 -62 -12 -121t-38 -114.5t-76 -89t-118 -33.5q-90 0 -130 67l-108 -66v240h12l110 -153q22 -6 47 -6q45 0 77.5 15t51 38t30 58.5t15 68t4.5 74.5q-60 -66 -152 -66q-87 0 -151 64.5t-64 164.5q0 93 60 158.5t175 65.5q121 0 194 -87.5t73 -277.5zM428 343v5
q0 83 -10.5 140.5t-29.5 87t-41.5 42t-50.5 12.5q-51 0 -78.5 -40t-27.5 -98q0 -81 45 -118.5t117 -37.5q41 0 76 7z" />
    <glyph glyph-name="colon" unicode=":" horiz-adv-x="265" 
d="M215 423q0 -35 -25 -60t-60 -25t-60 25t-25 60t25 60t60 25t60 -25t25 -60zM215 72q0 -35 -25 -60t-60 -25t-60 25t-25 60t25 60t60 25t60 -25t25 -60z" />
    <glyph glyph-name="semicolon" unicode=";" horiz-adv-x="273" 
d="M216 423q0 -35 -25 -60t-60 -25t-60 25t-25 60t25 60t60 25t60 -25t25 -60zM223 47q0 -71 -53.5 -129t-124.5 -58l55 133q-24 9 -39 30.5t-15 48.5q0 35 25 60t60 25q44 0 68 -32.5t24 -77.5z" />
    <glyph glyph-name="less" unicode="&#x3c;" horiz-adv-x="524" 
d="M105 342l379 -236l-27 -41l-427 264v26l427 264l27 -42z" />
    <glyph glyph-name="equal" unicode="=" horiz-adv-x="603" 
d="M543 470v-52h-483v52h483zM543 265v-52h-483v52h483z" />
    <glyph glyph-name="greater" unicode="&#x3e;" horiz-adv-x="524" 
d="M494 355v-26l-427 -264l-27 41l379 236l-379 235l27 42z" />
    <glyph glyph-name="question" unicode="?" horiz-adv-x="548" 
d="M498 516q0 -52 -22 -94t-54 -68.5t-63.5 -48.5t-53.5 -45.5t-22 -48.5h-17l-55 138q58 23 105 69.5t47 101.5q0 46 -30.5 75.5t-91.5 29.5q-37 0 -80 -8l-109 -146h-12v240l123 -67q49 66 133 66q93 0 147.5 -57.5t54.5 -136.5zM342 72q0 -35 -25 -60t-60 -25t-60 25
t-25 60t25 60t60 25t60 -25t25 -60z" />
    <glyph glyph-name="at" unicode="@" horiz-adv-x="910" 
d="M850 368q0 -82 -23.5 -146t-62 -100.5t-82.5 -55t-89 -18.5q-49 0 -88 20.5t-51 55.5q-39 -42 -95 -42q-55 0 -96 42.5t-41 116.5q0 60 25.5 116.5t78 96t120.5 39.5q63 0 108 -42l156 46l-117 -320q-9 -23 -9 -40q0 -31 38 -31q70 0 124 73.5t54 188.5q0 118 -78 182.5
t-200 64.5q-175 0 -293.5 -111.5t-118.5 -272.5q0 -116 71 -194t205 -78q101 0 191 60l28 -41q-104 -69 -219 -69q-80 0 -143.5 26.5t-102.5 71.5t-59.5 102.5t-20.5 121.5q0 183 134 308.5t328 125.5q139 0 233.5 -77t94.5 -220zM448 140l99 295q-23 4 -47 4
q-65 0 -105 -57.5t-40 -126.5q0 -50 22.5 -82.5t65.5 -32.5h5z" />
    <glyph glyph-name="A" unicode="A" horiz-adv-x="759" 
d="M739 15v-15h-300v15l87 69l-37 99h-237l-25 -100l99 -68v-15h-306v15l107 93l238 602h50l239 -606zM271 259l190 -2l-113 304z" />
    <glyph glyph-name="B" unicode="B" horiz-adv-x="686" 
d="M626 209q0 -83 -59.5 -146t-157.5 -63h-369v15l86 90v490l-86 90v15h376q95 0 146.5 -47.5t51.5 -114.5q0 -51 -28.5 -93t-83.5 -59q61 -24 92.5 -71.5t31.5 -105.5zM492 481q0 61 -34 103t-99 42h-108v-222h140q50 0 86 -10q15 34 15 87zM489 204q0 52 -30.5 89
t-86.5 37h-121v-256h121q55 0 86 38.5t31 91.5z" />
    <glyph glyph-name="C" unicode="C" horiz-adv-x="660" 
d="M595 230v-240l-105 73q-53 -75 -160 -75q-92 0 -159.5 53.5t-99 134t-31.5 174.5t31.5 174.5t99 134t159.5 53.5q107 0 160 -75l105 73v-240h-12l-109 148q-34 9 -81 9q-59 0 -101.5 -22t-66.5 -62t-34.5 -87.5t-10.5 -105.5t10.5 -105.5t34.5 -87.5t66.5 -62t101.5 -22
q47 0 81 9l109 148h12z" />
    <glyph glyph-name="D" unicode="D" horiz-adv-x="714" 
d="M674 351q0 -68 -19 -129t-57 -111.5t-101.5 -80.5t-144.5 -30h-312v15l86 89v492l-86 89v15h312q82 0 145.5 -29.5t101 -79.5t56.5 -111t19 -129zM533 350q0 131 -49.5 203.5t-151.5 72.5h-81v-552h81q102 0 151.5 72.5t49.5 203.5z" />
    <glyph glyph-name="E" unicode="E" horiz-adv-x="648" 
d="M588 234v-234h-548v15l86 89v492l-86 89v15h530v-229h-12l-94 155h-213v-264l107 40l62 105h12v-311h-12l-64 115l-105 29v-266h230l95 160h12z" />
    <glyph glyph-name="F" unicode="F" horiz-adv-x="637" 
d="M587 700v-229h-12l-94 155h-230v-264l117 40l62 105h12v-311h-12l-64 115l-115 29v-256l106 -69v-15h-317v15l86 89v492l-86 89v15h547z" />
    <glyph glyph-name="G" unicode="G" horiz-adv-x="690" 
d="M670 345v-77h-75v-279l-106 75q-47 -76 -163 -76q-87 0 -154 53.5t-99.5 134.5t-32.5 174q0 94 31.5 174.5t99 134t159.5 53.5q107 0 160 -75l105 73v-240h-12l-109 148q-34 9 -80 9q-114 0 -164 -77t-50 -200q0 -277 220 -277q40 0 69 5v175l-103 74v18h304z" />
    <glyph glyph-name="H" unicode="H" horiz-adv-x="766" 
d="M726 14v-14h-292v14l81 70v229h-264v-229l81 -70v-14h-292v14l86 90v492l-86 90v14h292v-14l-81 -70v-229h264v229l-81 70v14h292v-14l-86 -90v-492z" />
    <glyph glyph-name="I" unicode="I" horiz-adv-x="377" 
d="M337 15v-15h-297v15l86 89v492l-86 89v15h297v-15l-86 -89v-492z" />
    <glyph glyph-name="J" unicode="J" horiz-adv-x="611" 
d="M581 700v-15l-86 -89v-468q0 -66 -49 -103.5t-115 -37.5q-99 0 -145 69l-126 -67v240h12l109 -146q36 -6 69 -6q120 0 120 72v467l-106 69v15h317z" />
    <glyph glyph-name="K" unicode="K" horiz-adv-x="743" 
d="M718 15v-15h-197l-177 324l-93 -102v-137l74 -70v-15h-285v15l86 89v492l-86 89v15h287v-15l-76 -69v-329l245 332l-86 66v15h303v-15l-104 -69l-174 -191l190 -344z" />
    <glyph glyph-name="L" unicode="L" horiz-adv-x="632" 
d="M582 234v-234h-542v15l86 89v492l-86 89v15h307v-15l-96 -75v-536h224l95 160h12z" />
    <glyph glyph-name="M" unicode="M" horiz-adv-x="925" 
d="M885 15v-15h-307v15l96 69v455l-203 -457h-32l-208 456v-454l96 -69v-15h-287v15l106 89v492l-106 89v15h242l205 -441l194 441h204v-15l-86 -89v-492z" />
    <glyph glyph-name="N" unicode="N" horiz-adv-x="794" 
d="M754 700v-15l-106 -89v-608h-36l-391 478v-382l111 -69v-15h-302v15l106 89v465l-98 120v11h151l374 -457v373l-111 69v15h302z" />
    <glyph glyph-name="O" unicode="O" horiz-adv-x="737" 
d="M697 349q0 -173 -94.5 -268t-232.5 -95q-139 0 -234.5 95t-95.5 268t95.5 267.5t234.5 94.5q138 0 232.5 -94.5t94.5 -267.5zM556 349q0 43 -2.5 75.5t-14 72.5t-30.5 65.5t-55 43.5t-86 18t-86 -18t-55 -43.5t-30.5 -65.5t-14 -72.5t-2.5 -75.5t2.5 -75.5t14 -72.5
t30.5 -66t55 -44t86 -18t86 18t55 44t30.5 66t14 72.5t2.5 75.5z" />
    <glyph glyph-name="P" unicode="P" horiz-adv-x="650" 
d="M610 485q0 -88 -57.5 -151.5t-164.5 -63.5h-137v-186l106 -70v-14h-317v14l86 90v491l-86 91v14h348q107 0 164.5 -63.5t57.5 -151.5zM483 485q0 57 -34 99t-90 42h-108v-282h108q56 0 90 42t34 99z" />
    <glyph glyph-name="Q" unicode="Q" horiz-adv-x="747" 
d="M735 -120v-16l-241 -30l-105 152h-14q-139 0 -234.5 95t-95.5 268t95.5 267.5t234.5 94.5q138 0 232.5 -94.5t94.5 -267.5q0 -122 -49 -206.5t-132 -124.5l62 -73zM561 349q0 43 -2.5 75.5t-14 72.5t-30.5 65.5t-55 43.5t-86 18t-86 -18t-55 -43.5t-30.5 -65.5t-14 -72.5
t-2.5 -75.5t2.5 -75.5t14 -72.5t30.5 -66t55 -44t86 -18t86 18t55 44t30.5 66t14 72.5t2.5 75.5z" />
    <glyph glyph-name="R" unicode="R" horiz-adv-x="718" 
d="M688 15v-15h-194l-161 285h-82v-202l68 -68v-15h-279v15l86 89v491l-86 89v16h367q101 0 157 -56t56 -132q0 -67 -42.5 -120.5t-121.5 -68.5l139 -242zM493 485q0 58 -30.5 99.5t-86.5 41.5h-125v-267h201q41 40 41 126z" />
    <glyph glyph-name="S" unicode="S" horiz-adv-x="623" 
d="M563 200q0 -96 -64 -156t-152 -60q-109 0 -167 68l-120 -63v240h12l109 -146q39 -11 89 -11q70 0 118 29t48 95q0 34 -20 57t-51.5 35.5t-70 23t-77 24.5t-70 35t-51.5 60t-20 93q0 86 58 136.5t138 50.5q95 0 158 -66l114 65v-240h-12l-109 150q-48 11 -90 11
q-132 0 -132 -105q0 -40 37.5 -64t90.5 -39.5t106 -36t90.5 -67t37.5 -119.5z" />
    <glyph glyph-name="T" unicode="T" horiz-adv-x="677" 
d="M632 700v-229h-12l-100 155h-119v-522l86 -90v-14h-297v14l86 90v522h-118l-101 -155h-12v229h587z" />
    <glyph glyph-name="U" unicode="U" horiz-adv-x="763" 
d="M743 700v-15l-106 -89v-411q0 -54 -23.5 -94.5t-63 -63t-84.5 -33t-94 -10.5t-94 10.5t-85 33t-63.5 63t-23.5 94.5v411l-86 89v15h302v-15l-91 -69v-431q0 -56 46.5 -87t110.5 -31q66 0 115 32t49 87v430l-96 69v15h287z" />
    <glyph glyph-name="V" unicode="V" horiz-adv-x="779" 
d="M759 700v-15l-107 -93l-246 -604h-48l-249 608l-89 89v15h308v-15l-87 -69l188 -471l101 470l-94 70v15h323z" />
    <glyph glyph-name="W" unicode="W" horiz-adv-x="1049" 
d="M1029 700v-15l-103 -93l-220 -604h-48l-155 469l-159 -469h-48l-191 608l-85 89v15h302v-15l-87 -69l133 -450l92 449l-94 70v15h287v-15l-79 -66l155 -470l72 466l-90 70v15h318z" />
    <glyph glyph-name="X" unicode="X" horiz-adv-x="724" 
d="M704 15v-15h-309v15l100 71l-177 223l-103 -226l98 -68v-15h-293v15l280 317l-280 353v15h309v-15l-100 -71l175 -220l105 223l-98 68v15h293v-15l-278 -320z" />
    <glyph glyph-name="Y" unicode="Y" horiz-adv-x="720" 
d="M710 700v-15l-87 -90l-201 -372v-119l86 -89v-15h-297v15l86 89v119l-201 373l-86 89v15h309v-15l-87 -69l176 -344l101 344l-96 69v15h297z" />
    <glyph glyph-name="Z" unicode="Z" horiz-adv-x="674" 
d="M619 700v-15l-383 -611h251l95 160h12v-234h-544v15l383 611h-230l-94 -155h-12v229h522z" />
    <glyph glyph-name="bracketleft" unicode="[" horiz-adv-x="318" 
d="M308 -85v-52h-228v857h228v-52h-103v-753h103z" />
    <glyph glyph-name="backslash" unicode="\" horiz-adv-x="352" 
d="M44 730l308 -730l-45 -19l-307 731z" />
    <glyph glyph-name="bracketright" unicode="]" horiz-adv-x="318" 
d="M238 720v-857h-228v52h103v753h-103v52h228z" />
    <glyph glyph-name="asciicircum" unicode="^" horiz-adv-x="586" 
d="M292 522l-242 -204l-10 8l245 383h16l245 -383l-10 -8z" />
    <glyph glyph-name="underscore" unicode="_" horiz-adv-x="370" 
d="M340 -67v-74h-310v74h310z" />
    <glyph glyph-name="grave" unicode="`" 
d="M244 758l182 -183l-5 -10l-246 61z" />
    <glyph glyph-name="a" unicode="a" horiz-adv-x="560" 
d="M560 80v-13l-196 -85l-30 83q-62 -76 -151 -76q-65 0 -101.5 39t-36.5 93q0 62 46 107.5t130 45.5q61 0 108 -25v111q0 68 -71 68q-28 0 -49 -3l-112 -134h-11v205l118 -51q19 28 51.5 46t66.5 18q55 0 94 -37t39 -108v-264zM329 79v155q-156 -16 -156 -91t87 -75
q32 0 69 11z" />
    <glyph glyph-name="b" unicode="b" horiz-adv-x="562" 
d="M517 256q0 -108 -51.5 -186.5t-151.5 -78.5q-37 0 -69 19t-51 56l-123 -76v651l-106 20v12l231 94v-327q19 34 53.5 52t73.5 18q97 0 145.5 -74t48.5 -180zM382 252q0 93 -34.5 134.5t-101.5 41.5q-26 0 -50 -7v-338q28 -7 50 -7q67 0 101.5 41.5t34.5 134.5z" />
    <glyph glyph-name="c" unicode="c" horiz-adv-x="505" 
d="M452 109l3 -9q-57 -111 -187 -111q-107 0 -165 77t-58 191q0 45 9 87t28.5 80t56 61t84.5 23q77 0 115 -65l108 56v-207h-11l-106 133q-26 4 -34 4q-114 0 -114 -167q0 -176 143 -176q74 0 128 23z" />
    <glyph glyph-name="d" unicode="d" horiz-adv-x="597" 
d="M597 80v-12l-198 -86l-29 85q-53 -75 -135 -75q-65 0 -109.5 40.5t-62.5 95.5t-18 118q0 48 11 92.5t33.5 83.5t62 62.5t91.5 23.5q83 0 123 -69v202l-107 20v12l232 94v-667zM366 81v338q-28 7 -50 7q-67 0 -101.5 -41.5t-34.5 -134.5t34.5 -134.5t101.5 -41.5
q29 0 50 7z" />
    <glyph glyph-name="e" unicode="e" horiz-adv-x="515" 
d="M475 235h-293q4 -71 35 -110t102 -39q74 0 128 23l3 -9q-57 -111 -187 -111q-106 0 -162 75.5t-56 186.5q0 66 22 122t73.5 95t123.5 39q103 0 157 -69t54 -203zM181 251l155 69q0 114 -71 114q-46 0 -65 -44.5t-19 -138.5z" />
    <glyph glyph-name="f" unicode="f" horiz-adv-x="427" 
d="M407 730v-130l-179 119v-234h165v-74h-165v-337l135 -61v-13h-346v12l86 92v281l-93 87v13h93v120q0 75 51.5 110t128.5 35q66 0 124 -20z" />
    <glyph glyph-name="g" unicode="g" horiz-adv-x="606" 
d="M586 566v-178l-157 68q55 -51 55 -123q0 -73 -57.5 -126.5t-165.5 -53.5q-59 0 -109 20l56 -86l220 -13q65 -4 102.5 -40t37.5 -87q0 -74 -76.5 -129.5t-220.5 -55.5q-103 0 -179.5 36t-76.5 100q0 39 33.5 67t96.5 35q-45 29 -45 80q0 57 48 95q-53 23 -81 66t-28 92
q0 73 57 125.5t165 52.5q106 0 167 -54zM348 332q0 110 -87 110q-86 0 -86 -110t86 -110q87 0 87 110zM442 -89q0 22 -16 38.5t-43 18.5l-175 12q-34 3 -62 19q-1 -9 -1 -23q0 -152 145 -152q74 0 113 26.5t39 60.5z" />
    <glyph glyph-name="h" unicode="h" horiz-adv-x="614" 
d="M599 13v-13h-255v13l54 91v247q0 59 -85 59q-41 0 -81 -12v-324l53 -61v-13h-264v13l86 91v537l-107 20v12l232 94v-348q69 89 160 89q56 0 93.5 -34.5t37.5 -99.5v-300z" />
    <glyph glyph-name="i" unicode="i" horiz-adv-x="337" 
d="M255 693q0 -34 -24 -58t-57 -24q-34 0 -58 24t-24 58q0 33 24 57t58 24q33 0 57 -24t24 -57zM322 13v-13h-297v13l86 91v286l-106 20v12l231 94v-442z" />
    <glyph glyph-name="j" unicode="j" horiz-adv-x="332" 
d="M262 693q0 -34 -24 -58t-57 -24q-34 0 -58 24t-24 58q0 33 24 57t58 24q33 0 57 -24t24 -57zM243 516v-615q0 -63 -38 -97.5t-91 -34.5q-56 0 -100 43v10q39 8 71.5 33.5t32.5 63.5v471l-106 20v12z" />
    <glyph glyph-name="k" unicode="k" horiz-adv-x="619" 
d="M609 13v-13h-181l-146 214l-50 -44v-96l86 -61v-13h-297v13l86 91v537l-107 20v12l232 94v-559l150 201l-77 64v13h274v-13l-206 -180l156 -219z" />
    <glyph glyph-name="l" unicode="l" horiz-adv-x="333" 
d="M318 13v-13h-297v13l86 91v537l-107 20v12l232 94v-693z" />
    <glyph glyph-name="m" unicode="m" horiz-adv-x="893" 
d="M878 12v-12h-265v12l54 92v247q0 60 -72 60q-37 0 -80 -13q1 -7 1 -24v-300l48 -62v-12h-227v12l54 92v247q0 60 -72 60q-36 0 -79 -13v-324l53 -62v-12h-264v12l86 92v281l-100 20v12l204 93l21 -89q33 41 76.5 64t84.5 23t71.5 -24t39.5 -70q32 45 77 69.5t88 24.5
q50 0 82.5 -34.5t32.5 -99.5v-300z" />
    <glyph glyph-name="n" unicode="n" horiz-adv-x="624" 
d="M609 12v-12h-255v12l54 92v247q0 59 -85 59q-43 0 -83 -12v-324l53 -62v-12h-264v12l86 92v281l-100 20v12l204 93l21 -91q68 89 162 89q56 0 93.5 -34.5t37.5 -99.5v-300z" />
    <glyph glyph-name="o" unicode="o" horiz-adv-x="584" 
d="M539 250q0 -123 -73.5 -192.5t-173.5 -69.5t-173.5 69.5t-73.5 192.5t73.5 192.5t173.5 69.5t173.5 -69.5t73.5 -192.5zM399 250q0 28 -1.5 49t-8 47t-17.5 42.5t-31.5 28t-49.5 11.5t-49.5 -11.5t-31.5 -28t-17.5 -42.5t-8 -47t-1.5 -49t1.5 -49t8 -47t17.5 -42.5
t31.5 -28t49.5 -11.5t49.5 11.5t31.5 28t17.5 42.5t8 47t1.5 49z" />
    <glyph glyph-name="p" unicode="p" horiz-adv-x="586" 
d="M541 256q0 -108 -51.5 -186.5t-151.5 -78.5q-37 0 -69 20.5t-49 58.5v-216l96 -60v-14h-307v14l86 90v500l-100 21v17l205 88l18 -76q41 76 129 76q97 0 145.5 -74t48.5 -180zM406 252q0 93 -34.5 134.5t-101.5 41.5q-22 0 -50 -7v-338q25 -7 50 -7q67 0 101.5 41.5
t34.5 134.5z" />
    <glyph glyph-name="q" unicode="q" horiz-adv-x="567" 
d="M597 -162v-12l-231 -94v327q-37 -69 -127 -69q-67 0 -112.5 39.5t-63.5 94t-18 119.5q0 108 51.5 186.5t151.5 78.5q37 0 69 -19t51 -56l123 76v-651zM366 79v338q-28 7 -50 7q-67 0 -101.5 -41.5t-34.5 -134.5t34.5 -134.5t101.5 -41.5q22 0 50 7z" />
    <glyph glyph-name="r" unicode="r" horiz-adv-x="444" 
d="M414 504l-5 -142l-170 46v-334l105 -62v-12h-315v12l85 92v281l-99 20v12l202 93l22 -87q24 41 71.5 61t103.5 20z" />
    <glyph glyph-name="s" unicode="s" horiz-adv-x="505" 
d="M455 138q0 -72 -49 -112t-116 -40q-44 0 -81.5 19t-56.5 54l-102 -63v208h11l98 -127q29 -9 79 -9q93 0 93 53q0 30 -28 49.5t-67.5 31.5t-79.5 27t-68 48.5t-28 84.5q0 70 43.5 107t102.5 37q88 0 125 -71l104 64v-207h-11l-104 128q-32 4 -55 4q-84 0 -84 -51
q0 -24 28 -40.5t68.5 -29t81 -29t68.5 -51t28 -85.5z" />
    <glyph glyph-name="t" unicode="t" horiz-adv-x="415" 
d="M385 485v-74h-166v-257q0 -83 95 -83q23 0 47 4l2 -14q-62 -76 -145 -76q-53 0 -89 33.5t-36 97.5v270l-83 86v13h84l113 168h12v-168h166z" />
    <glyph glyph-name="u" unicode="u" horiz-adv-x="626" 
d="M626 85v-12l-205 -93l-21 90q-68 -89 -161 -89q-56 0 -93.5 34.5t-37.5 99.5v271l-108 20v13l233 98v-378q0 -62 87 -62q41 0 79 12v297l-103 20v13l228 98v-412z" />
    <glyph glyph-name="v" unicode="v" horiz-adv-x="607" 
d="M597 485v-13l-82 -85l-208 -407h-24l-188 408l-85 84v13h270v-13l-62 -68l130 -286l58 286l-68 68v13h259z" />
    <glyph glyph-name="w" unicode="w" horiz-adv-x="865" 
d="M855 485v-13l-82 -85l-201 -407h-24l-108 259l-141 -259h-24l-180 408l-85 84v13h271v-13l-60 -68l121 -281l53 225l-57 137h211v-13l-59 -63l116 -292l62 287l-62 68v13h249z" />
    <glyph glyph-name="x" unicode="x" horiz-adv-x="606" 
d="M581 13v-13h-268v13l55 68l-115 131l-47 -131l60 -68v-13h-241v13l214 215l-214 244v13h270v-13l-66 -68l122 -135l48 135l-59 68v13h241v-13l-214 -222z" />
    <glyph glyph-name="y" unicode="y" horiz-adv-x="607" 
d="M597 485v-13l-82 -85l-247 -537q-41 -88 -129 -88q-15 0 -41 4l-55 126q45 -8 87 -8q111 0 151 71l-186 433l-85 84v13h274v-13l-62 -68l129 -305l55 305l-68 68v13h259z" />
    <glyph glyph-name="z" unicode="z" horiz-adv-x="511" 
d="M476 485v-12l-298 -451l186 57l84 121h11v-200h-429v12l297 451l-168 -55l-88 -123h-11v200h416z" />
    <glyph glyph-name="braceleft" unicode="{" horiz-adv-x="354" 
d="M344 -106v-48q-98 4 -165 56t-67 137v136q0 44 -26.5 68.5t-65.5 26.5v41q39 2 65.5 26.5t26.5 68.5v136q0 84 67 136t165 56v-47q-44 -2 -75.5 -25.5t-31.5 -65.5v-132q0 -140 -144 -173q144 -31 144 -173v-133q0 -43 31.5 -65.5t75.5 -25.5z" />
    <glyph glyph-name="bar" unicode="|" horiz-adv-x="212" 
d="M132 838v-975h-52v975h52z" />
    <glyph glyph-name="braceright" unicode="}" horiz-adv-x="354" 
d="M344 311v-41q-39 -2 -65.5 -26.5t-26.5 -68.5v-136q0 -85 -67 -137t-165 -56v48q44 3 75.5 25.5t31.5 65.5v133q0 141 144 173q-144 34 -144 173v132q0 42 -31.5 65.5t-75.5 25.5v47q98 -4 165 -56t67 -136v-136q0 -44 26.5 -68.5t65.5 -26.5z" />
    <glyph glyph-name="asciitilde" unicode="~" horiz-adv-x="590" 
d="M530 351q0 -60 -37 -95t-96 -35q-41 0 -82 16l-148 56l-88 -85q-19 48 -19 89q0 60 37 95t97 35q40 0 81 -16l149 -56l88 85q18 -50 18 -89z" />
    <glyph glyph-name="DEL" horiz-adv-x="1000" 
 />
    <glyph glyph-name="exclamdown" unicode="&#xa1;" horiz-adv-x="245" 
d="M208 438q0 -35 -25 -60t-60 -25t-60 25t-25 60t25 60t60 25t60 -25t25 -60zM130 286l80 -476h-175l80 476h15z" />
    <glyph glyph-name="cent" unicode="&#xa2;" horiz-adv-x="508" 
d="M451 116l2 -11q-49 -96 -152 -113v-111h-47v108q-90 4 -149.5 72t-59.5 190q0 49 8.5 91.5t28 81.5t56.5 62t89 23q13 0 27 -3v110h47v-128q28 -17 43 -45l108 56v-202h-11l-106 127q-18 5 -34 6v-340q6 -1 18 -1q56 0 132 27zM254 102v327q-42 -9 -57.5 -50t-15.5 -117
q0 -126 73 -160z" />
    <glyph glyph-name="sterling" unicode="&#xa3;" horiz-adv-x="604" 
d="M534 234v-251l-86 17h-398v15q63 31 88.5 66.5t25.5 89.5q0 64 -22 163h-79v76h63q-13 74 -13 121q0 89 51 136.5t120 47.5q88 0 133 -68l113 63v-240h-12l-109 154q-38 9 -64 9q-106 0 -106 -101q0 -52 18 -122h137v-76h-120q9 -49 9 -88q0 -54 -31.5 -100.5
t-93.5 -71.5h269l95 160h12z" />
    <glyph glyph-name="yen" unicode="&#xa5;" horiz-adv-x="780" 
d="M730 700v-15l-87 -90l-191 -327h177v-52h-177v-112l86 -89v-15h-297v15l86 89v112h-177v52h177l-191 328l-86 89v15h294v-15l-67 -69l159 -299l107 299l-106 69v15h293z" />
    <glyph glyph-name="brokenbar" unicode="&#xa6;" horiz-adv-x="212" 
d="M132 838v-369l-52 -40v409h52zM132 273v-410h-52v370z" />
    <glyph glyph-name="section" unicode="&#xa7;" horiz-adv-x="516" 
d="M456 611l-42 -27q-56 90 -141 90q-31 0 -57.5 -21.5t-26.5 -74.5q0 -43 27.5 -80.5t66.5 -69t77.5 -66.5t66 -89.5t27.5 -122.5q0 -94 -62 -154t-143 -60q-53 0 -103 28t-86 85l42 27q58 -90 147 -90q32 0 60.5 21.5t28.5 74.5q0 34 -14.5 64t-38 52.5t-52 45t-57 48
t-52 54.5t-38 71.5t-14.5 92.5q0 94 60 154t141 60q111 0 183 -113zM405 150q0 44 -14.5 81.5t-38 64.5t-51.5 52t-56.5 48.5t-52 48.5t-38 59t-14.5 74l1 14q-19 -38 -19 -82q0 -60 27.5 -107t66 -79.5t77.5 -64t66.5 -76.5t27.5 -101q0 -11 -1 -16q19 36 19 84z" />
    <glyph glyph-name="dieresis" unicode="&#xa8;" 
d="M454 682q0 -24 -16.5 -40.5t-40.5 -16.5q-25 0 -42 16t-17 41q0 24 17 40.5t42 16.5q23 0 40 -17t17 -40zM246 682q0 -24 -16.5 -40.5t-40.5 -16.5q-25 0 -42 16t-17 41q0 24 17 40.5t42 16.5q23 0 40 -17t17 -40z" />
    <glyph glyph-name="copyright" unicode="&#xa9;" horiz-adv-x="859" 
d="M804 360q0 -155 -110 -264.5t-265 -109.5t-264.5 109.5t-109.5 264.5t109.5 264.5t264.5 109.5t265 -109.5t110 -264.5zM764 360q0 139 -98 237t-237 98t-236.5 -98t-97.5 -237t97.5 -237t236.5 -98t237 98t98 237zM570 292v-152l-65 43q-31 -40 -93 -40q-82 0 -128.5 65
t-46.5 152t46.5 152t128.5 65q62 0 93 -40l65 43v-152h-15l-63 87q-21 4 -42 4q-59 0 -90.5 -41.5t-31.5 -117.5t31.5 -117.5t90.5 -41.5q21 0 42 4l63 87h15z" />
    <glyph glyph-name="guillemotleft" unicode="&#xab;" horiz-adv-x="665" 
d="M491 265l114 -232l-8 -10l-277 235v16l277 235l8 -10zM231 265l114 -232l-8 -10l-277 235v16l277 235l8 -10z" />
    <glyph glyph-name="registered" unicode="&#xae;" horiz-adv-x="859" 
d="M804 360q0 -155 -110 -264.5t-265 -109.5t-264.5 109.5t-109.5 264.5t109.5 264.5t264.5 109.5t265 -109.5t110 -264.5zM764 360q0 139 -98 237t-237 98t-236.5 -98t-97.5 -237t97.5 -237t236.5 -98t237 98t98 237zM639 171v-16h-123l-92 167h-40v-111l40 -40v-16h-173
v16l50 52v284l-50 52v16h221q61 0 95 -34t34 -81q0 -39 -25 -71t-70 -43l78 -135zM517 444q0 33 -16 55.5t-47 22.5h-70v-147h110q23 23 23 69z" />
    <glyph glyph-name="macron" unicode="&#xaf;" horiz-adv-x="514" 
d="M374 697v-35h-234v35h234z" />
    <glyph glyph-name="degree" unicode="&#xb0;" horiz-adv-x="348" 
d="M308 567q0 -56 -39 -95.5t-94 -39.5q-56 0 -95.5 39.5t-39.5 95.5q0 55 39.5 94t95.5 39q55 0 94 -39t39 -94zM276 567q0 41 -30 71t-71 30q-43 0 -72.5 -30t-29.5 -71q0 -43 29.5 -72.5t72.5 -29.5q41 0 71 29.5t30 72.5z" />
    <glyph glyph-name="twosuperior" unicode="&#xb2;" horiz-adv-x="399" 
d="M339 481v-137l-44 6h-235v16q68 32 120.5 95t52.5 137q0 64 -61 64q-18 0 -32 -3l-42 -80h-11v130l57 -32q32 33 75 33q42 0 73.5 -30.5t31.5 -79.5q0 -62 -48 -107t-111 -70v-3h126l37 61h11z" />
    <glyph glyph-name="threesuperior" unicode="&#xb3;" horiz-adv-x="361" 
d="M311 436q0 -39 -31.5 -68.5t-85.5 -29.5q-56 0 -87 36l-57 -32v130h12l51 -83q26 -4 40 -4q67 0 67 61q0 18 -4 29.5t-21.5 21t-48.5 9.5h-11v39h11q24 0 39 5.5t21 16.5t7.5 19.5t1.5 22.5q0 58 -54 58q-16 0 -38 -5l-51 -82h-12v130l57 -32q32 32 82 32q51 0 79 -27
t28 -66q0 -34 -26 -59.5t-73 -29.5v-2q48 -3 76 -29t28 -61z" />
    <glyph glyph-name="acute" unicode="&#xb4;" 
d="M357 758l69 -132l-246 -61l-5 10z" />
    <glyph glyph-name="paragraph" unicode="&#xb6;" horiz-adv-x="602" 
d="M562 -75v-15h-161v735h-90v-735h-161v15l106 89v287h-7q-83 0 -141 58.5t-58 140.5q0 83 58 141.5t141 58.5h313v-15l-106 -89v-582z" />
    <glyph glyph-name="periodcentered" unicode="&#xb7;" horiz-adv-x="310" 
d="M240 272q0 -35 -25 -60t-60 -25t-60 25t-25 60t25 60t60 25t60 -25t25 -60z" />
    <glyph glyph-name="cedilla" unicode="&#xb8;" horiz-adv-x="508" 
d="M356 -146q0 -54 -42.5 -94t-127.5 -40l44 95l-35 79q6 29 26.5 44.5t46.5 15.5q35 0 61.5 -26.5t26.5 -73.5z" />
    <glyph glyph-name="onesuperior" unicode="&#xb9;" horiz-adv-x="333" 
d="M283 363v-13h-228v12l70 39v217h-75v11l116 71h49v-299z" />
    <glyph glyph-name="guillemotright" unicode="&#xbb;" horiz-adv-x="665" 
d="M605 274v-16l-277 -235l-8 10l114 232l-114 234l8 10zM345 274v-16l-277 -235l-8 10l114 232l-114 234l8 10z" />
    <glyph glyph-name="onequarter" unicode="&#xbc;" horiz-adv-x="771" 
d="M721 128v-60h-56v-68h-89v68h-166v32l179 255h76v-227h56zM614 706l25 -18l-493 -696l-26 19zM283 363v-13h-228v12l70 39v217h-75v11l116 71h49v-299zM458 128h118v149z" />
    <glyph glyph-name="onehalf" unicode="&#xbd;" horiz-adv-x="772" 
d="M722 131v-137l-44 6h-235v16q68 32 120.5 95t52.5 137q0 64 -61 64q-19 0 -32 -3l-42 -80h-11v130l57 -32q31 33 75 33q42 0 73.5 -30.5t31.5 -79.5q0 -62 -48 -107t-111 -70v-3h126l37 61h11zM614 706l25 -18l-493 -696l-26 19zM283 363v-13h-228v12l70 39v217h-75v11
l116 71h49v-299z" />
    <glyph glyph-name="threequarters" unicode="&#xbe;" horiz-adv-x="790" 
d="M740 128v-60h-56v-68h-89v68h-166v32l179 255h76v-227h56zM632 706l25 -18l-493 -696l-26 19zM311 436q0 -39 -31.5 -68.5t-85.5 -29.5q-56 0 -87 36l-57 -32v130h12l51 -83q26 -4 40 -4q67 0 67 61q0 18 -4 29.5t-21.5 21t-48.5 9.5h-11v39h11q24 0 39 5.5t21 16.5
t7.5 19.5t1.5 22.5q0 58 -54 58q-16 0 -38 -5l-51 -82h-12v130l57 -32q32 32 82 32q51 0 79 -27t28 -66q0 -34 -26 -59.5t-73 -29.5v-2q48 -3 76 -29t28 -61zM477 128h118v149z" />
    <glyph glyph-name="questiondown" unicode="&#xbf;" horiz-adv-x="538" 
d="M376 436q0 -35 -25 -60t-60 -25t-60 25t-25 60t25 60t60 25t60 -25t25 -60zM508 37v-240l-123 67q-49 -66 -133 -66q-93 0 -147.5 57.5t-54.5 136.5q0 52 22 94t54 68.5t63.5 48.5t53.5 45.5t22 48.5h17l55 -138q-58 -23 -105 -69.5t-47 -101.5q0 -46 30.5 -75.5
t91.5 -29.5q37 0 80 8l109 146h12z" />
    <glyph glyph-name="Agrave" unicode="&#xc0;" horiz-adv-x="759" 
d="M739 15v-15h-300v15l87 69l-37 99h-237l-25 -100l99 -68v-15h-306v15l107 93l238 602h50l239 -606zM271 259l190 -2l-113 304zM344 948l182 -183l-5 -10l-246 61z" />
    <glyph glyph-name="Aacute" unicode="&#xc1;" horiz-adv-x="759" 
d="M739 15v-15h-300v15l87 69l-37 99h-237l-25 -100l99 -68v-15h-306v15l107 93l238 602h50l239 -606zM271 259l190 -2l-113 304zM447 958l69 -132l-246 -61l-5 10z" />
    <glyph glyph-name="Acircumflex" unicode="&#xc2;" horiz-adv-x="759" 
d="M739 15v-15h-300v15l87 69l-37 99h-237l-25 -100l99 -68v-15h-306v15l107 93l238 602h50l239 -606zM271 259l190 -2l-113 304zM389 930l140 -172l-6 -10l-141 57l-141 -57l-6 10l140 172h14z" />
    <glyph glyph-name="Atilde" unicode="&#xc3;" horiz-adv-x="759" 
d="M739 15v-15h-300v15l87 69l-37 99h-237l-25 -100l99 -68v-15h-306v15l107 93l238 602h50l239 -606zM271 259l190 -2l-113 304zM556 868q0 -42 -25.5 -70t-72.5 -28q-22 0 -52 10l-102 37l-69 -47q-8 23 -8 50q0 43 24.5 71t72.5 28q22 0 52 -10l102 -37l68 47
q10 -28 10 -51z" />
    <glyph glyph-name="Adieresis" unicode="&#xc4;" horiz-adv-x="759" 
d="M739 15v-15h-300v15l87 69l-37 99h-237l-25 -100l99 -68v-15h-306v15l107 93l238 602h50l239 -606zM271 259l190 -2l-113 304zM554 822q0 -24 -16.5 -40.5t-40.5 -16.5q-25 0 -42 16t-17 41q0 24 17 40.5t42 16.5q23 0 40 -17t17 -40zM346 822q0 -24 -16.5 -40.5
t-40.5 -16.5q-25 0 -42 16t-17 41q0 24 17 40.5t42 16.5q23 0 40 -17t17 -40z" />
    <glyph glyph-name="Aring" unicode="&#xc5;" horiz-adv-x="759" 
d="M739 15v-15h-300v15l87 69l-37 99h-237l-25 -100l99 -68v-15h-306v15l107 93l238 602h50l239 -606zM271 259l190 -2l-113 304zM484 842q0 -37 -26 -63.5t-63 -26.5t-62.5 26t-25.5 63q0 36 25.5 62t62.5 26t63 -26t26 -61zM454 842q0 23 -17.5 40t-41.5 17t-41 -17
t-17 -41q0 -25 17 -42t41 -17t41.5 17.5t17.5 42.5z" />
    <glyph glyph-name="AE" unicode="&#xc6;" horiz-adv-x="943" 
d="M878 234v-234h-450v15l76 69l-59 199h-182l-51 -200l96 -68v-15h-288v15l93 93l227 592h520v-229h-12l-94 155h-281l81 -263l108 39l62 105h12v-311h-12l-64 115l-99 28l82 -265h128l95 160h12zM282 357h141l-76 258z" />
    <glyph glyph-name="Ccedilla" unicode="&#xc7;" horiz-adv-x="660" 
d="M595 230v-240l-105 73q-53 -75 -160 -75q-92 0 -159.5 53.5t-99 134t-31.5 174.5t31.5 174.5t99 134t159.5 53.5q107 0 160 -75l105 73v-240h-12l-109 148q-34 9 -81 9q-59 0 -101.5 -22t-66.5 -62t-34.5 -87.5t-10.5 -105.5t10.5 -105.5t34.5 -87.5t66.5 -62t101.5 -22
q47 0 81 9l109 148h12zM416 -146q0 -54 -42.5 -94t-127.5 -40l44 95l-35 79q6 29 26.5 44.5t46.5 15.5q35 0 61.5 -26.5t26.5 -73.5z" />
    <glyph glyph-name="Egrave" unicode="&#xc8;" horiz-adv-x="648" 
d="M588 234v-234h-548v15l86 89v492l-86 89v15h530v-229h-12l-94 155h-213v-264l107 40l62 105h12v-311h-12l-64 115l-105 29v-266h230l95 160h12zM294 948l182 -183l-5 -10l-246 61z" />
    <glyph glyph-name="Eacute" unicode="&#xc9;" horiz-adv-x="648" 
d="M588 234v-234h-548v15l86 89v492l-86 89v15h530v-229h-12l-94 155h-213v-264l107 40l62 105h12v-311h-12l-64 115l-105 29v-266h230l95 160h12zM397 958l69 -132l-246 -61l-5 10z" />
    <glyph glyph-name="Ecircumflex" unicode="&#xca;" horiz-adv-x="648" 
d="M588 234v-234h-548v15l86 89v492l-86 89v15h530v-229h-12l-94 155h-213v-264l107 40l62 105h12v-311h-12l-64 115l-105 29v-266h230l95 160h12zM349 930l140 -172l-6 -10l-141 57l-141 -57l-6 10l140 172h14z" />
    <glyph glyph-name="Edieresis" unicode="&#xcb;" horiz-adv-x="648" 
d="M588 234v-234h-548v15l86 89v492l-86 89v15h530v-229h-12l-94 155h-213v-264l107 40l62 105h12v-311h-12l-64 115l-105 29v-266h230l95 160h12zM494 822q0 -24 -16.5 -40.5t-40.5 -16.5q-25 0 -42 16t-17 41q0 24 17 40.5t42 16.5q23 0 40 -17t17 -40zM286 822
q0 -24 -16.5 -40.5t-40.5 -16.5q-25 0 -42 16t-17 41q0 24 17 40.5t42 16.5q23 0 40 -17t17 -40z" />
    <glyph glyph-name="Igrave" unicode="&#xcc;" horiz-adv-x="377" 
d="M337 15v-15h-297v15l86 89v492l-86 89v15h297v-15l-86 -89v-492zM134 948l182 -183l-5 -10l-246 61z" />
    <glyph glyph-name="Iacute" unicode="&#xcd;" horiz-adv-x="377" 
d="M337 15v-15h-297v15l86 89v492l-86 89v15h297v-15l-86 -89v-492zM247 958l69 -132l-246 -61l-5 10z" />
    <glyph glyph-name="Icircumflex" unicode="&#xce;" horiz-adv-x="377" 
d="M337 15v-15h-297v15l86 89v492l-86 89v15h297v-15l-86 -89v-492zM198 930l140 -172l-6 -10l-141 57l-141 -57l-6 10l140 172h14z" />
    <glyph glyph-name="Idieresis" unicode="&#xcf;" horiz-adv-x="377" 
d="M337 15v-15h-297v15l86 89v492l-86 89v15h297v-15l-86 -89v-492zM350 822q0 -24 -16.5 -40.5t-40.5 -16.5q-25 0 -42 16t-17 41q0 24 17 40.5t42 16.5q23 0 40 -17t17 -40zM142 822q0 -24 -16.5 -40.5t-40.5 -16.5q-25 0 -42 16t-17 41q0 24 17 40.5t42 16.5q23 0 40 -17
t17 -40z" />
    <glyph glyph-name="Eth" unicode="&#xd0;" horiz-adv-x="714" 
d="M674 351q0 -68 -19 -129t-57 -111.5t-101.5 -80.5t-144.5 -30h-312v15l86 89v192l-62 -42l-19 30l81 54v258l-86 89v15h312q82 0 145.5 -29.5t101 -79.5t56.5 -111t19 -129zM533 350q0 131 -49.5 203.5t-151.5 72.5h-81v-204l72 48l18 -30l-90 -60v-306h81
q102 0 151.5 72.5t49.5 203.5z" />
    <glyph glyph-name="Ntilde" unicode="&#xd1;" horiz-adv-x="794" 
d="M754 700v-15l-106 -89v-608h-36l-391 478v-382l111 -69v-15h-302v15l106 89v465l-98 120v11h151l374 -457v373l-111 69v15h302zM576 868q0 -42 -25.5 -70t-72.5 -28q-22 0 -52 10l-102 37l-69 -47q-8 23 -8 50q0 43 24.5 71t72.5 28q22 0 52 -10l102 -37l68 47
q10 -28 10 -51z" />
    <glyph glyph-name="Ograve" unicode="&#xd2;" horiz-adv-x="737" 
d="M697 349q0 -173 -94.5 -268t-232.5 -95q-139 0 -234.5 95t-95.5 268t95.5 267.5t234.5 94.5q138 0 232.5 -94.5t94.5 -267.5zM556 349q0 43 -2.5 75.5t-14 72.5t-30.5 65.5t-55 43.5t-86 18t-86 -18t-55 -43.5t-30.5 -65.5t-14 -72.5t-2.5 -75.5t2.5 -75.5t14 -72.5
t30.5 -66t55 -44t86 -18t86 18t55 44t30.5 66t14 72.5t2.5 75.5zM314 948l182 -183l-5 -10l-246 61z" />
    <glyph glyph-name="Oacute" unicode="&#xd3;" horiz-adv-x="737" 
d="M697 349q0 -173 -94.5 -268t-232.5 -95q-139 0 -234.5 95t-95.5 268t95.5 267.5t234.5 94.5q138 0 232.5 -94.5t94.5 -267.5zM556 349q0 43 -2.5 75.5t-14 72.5t-30.5 65.5t-55 43.5t-86 18t-86 -18t-55 -43.5t-30.5 -65.5t-14 -72.5t-2.5 -75.5t2.5 -75.5t14 -72.5
t30.5 -66t55 -44t86 -18t86 18t55 44t30.5 66t14 72.5t2.5 75.5zM437 958l69 -132l-246 -61l-5 10z" />
    <glyph glyph-name="Ocircumflex" unicode="&#xd4;" horiz-adv-x="737" 
d="M697 349q0 -173 -94.5 -268t-232.5 -95q-139 0 -234.5 95t-95.5 268t95.5 267.5t234.5 94.5q138 0 232.5 -94.5t94.5 -267.5zM556 349q0 43 -2.5 75.5t-14 72.5t-30.5 65.5t-55 43.5t-86 18t-86 -18t-55 -43.5t-30.5 -65.5t-14 -72.5t-2.5 -75.5t2.5 -75.5t14 -72.5
t30.5 -66t55 -44t86 -18t86 18t55 44t30.5 66t14 72.5t2.5 75.5zM379 930l140 -172l-6 -10l-141 57l-141 -57l-6 10l140 172h14z" />
    <glyph glyph-name="Otilde" unicode="&#xd5;" horiz-adv-x="737" 
d="M697 349q0 -173 -94.5 -268t-232.5 -95q-139 0 -234.5 95t-95.5 268t95.5 267.5t234.5 94.5q138 0 232.5 -94.5t94.5 -267.5zM556 349q0 43 -2.5 75.5t-14 72.5t-30.5 65.5t-55 43.5t-86 18t-86 -18t-55 -43.5t-30.5 -65.5t-14 -72.5t-2.5 -75.5t2.5 -75.5t14 -72.5
t30.5 -66t55 -44t86 -18t86 18t55 44t30.5 66t14 72.5t2.5 75.5zM546 868q0 -42 -25.5 -70t-72.5 -28q-22 0 -52 10l-102 37l-69 -47q-8 23 -8 50q0 43 24.5 71t72.5 28q22 0 52 -10l102 -37l68 47q10 -28 10 -51z" />
    <glyph glyph-name="Odieresis" unicode="&#xd6;" horiz-adv-x="737" 
d="M697 349q0 -173 -94.5 -268t-232.5 -95q-139 0 -234.5 95t-95.5 268t95.5 267.5t234.5 94.5q138 0 232.5 -94.5t94.5 -267.5zM556 349q0 43 -2.5 75.5t-14 72.5t-30.5 65.5t-55 43.5t-86 18t-86 -18t-55 -43.5t-30.5 -65.5t-14 -72.5t-2.5 -75.5t2.5 -75.5t14 -72.5
t30.5 -66t55 -44t86 -18t86 18t55 44t30.5 66t14 72.5t2.5 75.5zM532 822q0 -24 -16.5 -40.5t-40.5 -16.5q-25 0 -42 16t-17 41q0 24 17 40.5t42 16.5q23 0 40 -17t17 -40zM324 822q0 -24 -16.5 -40.5t-40.5 -16.5q-25 0 -42 16t-17 41q0 24 17 40.5t42 16.5q23 0 40 -17
t17 -40z" />
    <glyph glyph-name="multiply" unicode="&#xd7;" horiz-adv-x="603" 
d="M339 343l172 -173l-37 -36l-172 172l-173 -173l-36 37l172 173l-172 172l36 37l173 -173l172 172l37 -36z" />
    <glyph glyph-name="Oslash" unicode="&#xd8;" horiz-adv-x="737" 
d="M697 349q0 -173 -94.5 -268t-232.5 -95q-96 0 -173 46l-56 -95l-32 21l57 95q-126 99 -126 296q0 173 95.5 267.5t234.5 94.5q90 0 164 -41l53 88l31 -20l-53 -89q132 -97 132 -300zM221 145l264 442q-43 37 -117 37q-50 0 -86 -18t-55 -43.5t-30.5 -65.5t-14 -72.5
t-2.5 -75.5q0 -140 41 -204zM556 349q0 146 -45 210l-265 -445q46 -41 122 -41q50 0 86 18t55 44t30.5 66t14 72.5t2.5 75.5z" />
    <glyph glyph-name="Ugrave" unicode="&#xd9;" horiz-adv-x="763" 
d="M743 700v-15l-106 -89v-411q0 -54 -23.5 -94.5t-63 -63t-84.5 -33t-94 -10.5t-94 10.5t-85 33t-63.5 63t-23.5 94.5v411l-86 89v15h302v-15l-91 -69v-431q0 -56 46.5 -87t110.5 -31q66 0 115 32t49 87v430l-96 69v15h287zM334 948l182 -183l-5 -10l-246 61z" />
    <glyph glyph-name="Uacute" unicode="&#xda;" horiz-adv-x="763" 
d="M743 700v-15l-106 -89v-411q0 -54 -23.5 -94.5t-63 -63t-84.5 -33t-94 -10.5t-94 10.5t-85 33t-63.5 63t-23.5 94.5v411l-86 89v15h302v-15l-91 -69v-431q0 -56 46.5 -87t110.5 -31q66 0 115 32t49 87v430l-96 69v15h287zM457 958l69 -132l-246 -61l-5 10z" />
    <glyph glyph-name="Ucircumflex" unicode="&#xdb;" horiz-adv-x="763" 
d="M743 700v-15l-106 -89v-411q0 -54 -23.5 -94.5t-63 -63t-84.5 -33t-94 -10.5t-94 10.5t-85 33t-63.5 63t-23.5 94.5v411l-86 89v15h302v-15l-91 -69v-431q0 -56 46.5 -87t110.5 -31q66 0 115 32t49 87v430l-96 69v15h287zM399 930l140 -172l-6 -10l-141 57l-141 -57
l-6 10l140 172h14z" />
    <glyph glyph-name="Udieresis" unicode="&#xdc;" horiz-adv-x="763" 
d="M743 700v-15l-106 -89v-411q0 -54 -23.5 -94.5t-63 -63t-84.5 -33t-94 -10.5t-94 10.5t-85 33t-63.5 63t-23.5 94.5v411l-86 89v15h302v-15l-91 -69v-431q0 -56 46.5 -87t110.5 -31q66 0 115 32t49 87v430l-96 69v15h287zM549 822q0 -24 -16.5 -40.5t-40.5 -16.5
q-25 0 -42 16t-17 41q0 24 17 40.5t42 16.5q23 0 40 -17t17 -40zM341 822q0 -24 -16.5 -40.5t-40.5 -16.5q-25 0 -42 16t-17 41q0 24 17 40.5t42 16.5q23 0 40 -17t17 -40z" />
    <glyph glyph-name="Yacute" unicode="&#xdd;" horiz-adv-x="720" 
d="M710 700v-15l-87 -90l-201 -372v-119l86 -89v-15h-297v15l86 89v119l-201 373l-86 89v15h309v-15l-87 -69l176 -344l101 344l-96 69v15h297zM437 958l69 -132l-246 -61l-5 10z" />
    <glyph glyph-name="Thorn" unicode="&#xde;" horiz-adv-x="657" 
d="M607 344q0 -90 -56 -155t-160 -65q-83 0 -140 66v-86l86 -89v-15h-297v15l86 89v492l-86 89v15h297v-15l-86 -89v-92q57 66 140 66q103 0 159.5 -67t56.5 -159zM480 347q0 60 -38.5 102.5t-112.5 42.5q-38 0 -78 -14v-262q40 -14 78 -14q74 0 112.5 42.5t38.5 102.5z" />
    <glyph glyph-name="germandbls" unicode="&#xdf;" horiz-adv-x="684" 
d="M659 152q0 -76 -45 -119t-104 -43q-77 0 -113 69l-102 -63v203h11l100 -121q22 -2 46 -2q31 0 53 16t22 47q0 27 -24 51t-58.5 44t-69 41.5t-58.5 53.5t-24 72q0 26 12 59l84 220q-16 3 -32 3q-54 0 -95 -20t-41 -64v-599h-211v12l86 92v505q0 136 123 136
q75 0 171 -44.5t148 -89.5l-213 -162l172 -99q73 -42 117.5 -89t44.5 -109z" />
    <glyph glyph-name="agrave" unicode="&#xe0;" horiz-adv-x="560" 
d="M560 80v-13l-196 -85l-30 83q-62 -76 -151 -76q-65 0 -101.5 39t-36.5 93q0 62 46 107.5t130 45.5q61 0 108 -25v111q0 68 -71 68q-28 0 -49 -3l-112 -134h-11v205l118 -51q19 28 51.5 46t66.5 18q55 0 94 -37t39 -108v-264zM329 79v155q-156 -16 -156 -91t87 -75
q32 0 69 11zM244 758l182 -183l-5 -10l-246 61z" />
    <glyph glyph-name="aacute" unicode="&#xe1;" horiz-adv-x="560" 
d="M560 80v-13l-196 -85l-30 83q-62 -76 -151 -76q-65 0 -101.5 39t-36.5 93q0 62 46 107.5t130 45.5q61 0 108 -25v111q0 68 -71 68q-28 0 -49 -3l-112 -134h-11v205l118 -51q19 28 51.5 46t66.5 18q55 0 94 -37t39 -108v-264zM329 79v155q-156 -16 -156 -91t87 -75
q32 0 69 11zM357 758l69 -132l-246 -61l-5 10z" />
    <glyph glyph-name="acircumflex" unicode="&#xe2;" horiz-adv-x="560" 
d="M560 80v-13l-196 -85l-30 83q-62 -76 -151 -76q-65 0 -101.5 39t-36.5 93q0 62 46 107.5t130 45.5q61 0 108 -25v111q0 68 -71 68q-28 0 -49 -3l-112 -134h-11v205l118 -51q19 28 51.5 46t66.5 18q55 0 94 -37t39 -108v-264zM329 79v155q-156 -16 -156 -91t87 -75
q32 0 69 11zM289 750l140 -172l-6 -10l-141 57l-141 -57l-6 10l140 172h14z" />
    <glyph glyph-name="atilde" unicode="&#xe3;" horiz-adv-x="560" 
d="M560 80v-13l-196 -85l-30 83q-62 -76 -151 -76q-65 0 -101.5 39t-36.5 93q0 62 46 107.5t130 45.5q61 0 108 -25v111q0 68 -71 68q-28 0 -49 -3l-112 -134h-11v205l118 -51q19 28 51.5 46t66.5 18q55 0 94 -37t39 -108v-264zM329 79v155q-156 -16 -156 -91t87 -75
q32 0 69 11zM454 698q0 -42 -25.5 -70t-72.5 -28q-22 0 -52 10l-102 37l-69 -47q-8 23 -8 50q0 43 24.5 71t72.5 28q22 0 52 -10l102 -37l68 47q10 -28 10 -51z" />
    <glyph glyph-name="adieresis" unicode="&#xe4;" horiz-adv-x="560" 
d="M560 80v-13l-196 -85l-30 83q-62 -76 -151 -76q-65 0 -101.5 39t-36.5 93q0 62 46 107.5t130 45.5q61 0 108 -25v111q0 68 -71 68q-28 0 -49 -3l-112 -134h-11v205l118 -51q19 28 51.5 46t66.5 18q55 0 94 -37t39 -108v-264zM329 79v155q-156 -16 -156 -91t87 -75
q32 0 69 11zM454 682q0 -24 -16.5 -40.5t-40.5 -16.5q-25 0 -42 16t-17 41q0 24 17 40.5t42 16.5q23 0 40 -17t17 -40zM246 682q0 -24 -16.5 -40.5t-40.5 -16.5q-25 0 -42 16t-17 41q0 24 17 40.5t42 16.5q23 0 40 -17t17 -40z" />
    <glyph glyph-name="aring" unicode="&#xe5;" horiz-adv-x="560" 
d="M560 80v-13l-196 -85l-30 83q-62 -76 -151 -76q-65 0 -101.5 39t-36.5 93q0 62 46 107.5t130 45.5q61 0 108 -25v111q0 68 -71 68q-28 0 -49 -3l-112 -134h-11v205l118 -51q19 28 51.5 46t66.5 18q55 0 94 -37t39 -108v-264zM329 79v155q-156 -16 -156 -91t87 -75
q32 0 69 11zM374 672q0 -37 -26 -63.5t-63 -26.5t-62.5 26t-25.5 63q0 36 25.5 62t62.5 26t63 -26t26 -61zM344 672q0 23 -17.5 40t-41.5 17t-41 -17t-17 -41q0 -25 17 -42t41 -17t41.5 17.5t17.5 42.5z" />
    <glyph glyph-name="ae" unicode="&#xe6;" horiz-adv-x="799" 
d="M759 235h-293q9 -146 137 -146q56 0 132 27l2 -11q-59 -116 -190 -116q-116 0 -177 97q-30 -47 -77.5 -72t-98.5 -25q-62 0 -105.5 35.5t-43.5 96.5q0 62 46 107.5t130 45.5q61 0 108 -25v108q0 68 -71 68q-28 0 -49 -3l-112 -131h-11v205l118 -48q19 28 51 44.5t67 16.5
q62 0 99 -43q52 41 127 41q103 0 157 -69t54 -203zM466 251l154 69q0 114 -71 114q-46 0 -64.5 -44t-18.5 -139zM362 100q-33 62 -33 135q-156 -16 -156 -92q0 -68 84 -68q41 0 105 25z" />
    <glyph glyph-name="ccedilla" unicode="&#xe7;" horiz-adv-x="505" 
d="M452 109l3 -9q-57 -111 -187 -111q-107 0 -165 77t-58 191q0 45 9 87t28.5 80t56 61t84.5 23q77 0 115 -65l108 56v-207h-11l-106 133q-26 4 -34 4q-114 0 -114 -167q0 -176 143 -176q74 0 128 23zM356 -146q0 -54 -42.5 -94t-127.5 -40l44 95l-35 79q6 29 26.5 44.5
t46.5 15.5q35 0 61.5 -26.5t26.5 -73.5z" />
    <glyph glyph-name="egrave" unicode="&#xe8;" horiz-adv-x="515" 
d="M475 235h-293q4 -71 35 -110t102 -39q74 0 128 23l3 -9q-57 -111 -187 -111q-106 0 -162 75.5t-56 186.5q0 66 22 122t73.5 95t123.5 39q103 0 157 -69t54 -203zM181 251l155 69q0 114 -71 114q-46 0 -65 -44.5t-19 -138.5zM214 758l182 -183l-5 -10l-246 61z" />
    <glyph glyph-name="eacute" unicode="&#xe9;" horiz-adv-x="515" 
d="M475 235h-293q4 -71 35 -110t102 -39q74 0 128 23l3 -9q-57 -111 -187 -111q-106 0 -162 75.5t-56 186.5q0 66 22 122t73.5 95t123.5 39q103 0 157 -69t54 -203zM181 251l155 69q0 114 -71 114q-46 0 -65 -44.5t-19 -138.5zM327 758l69 -132l-246 -61l-5 10z" />
    <glyph glyph-name="ecircumflex" unicode="&#xea;" horiz-adv-x="515" 
d="M475 235h-293q4 -71 35 -110t102 -39q74 0 128 23l3 -9q-57 -111 -187 -111q-106 0 -162 75.5t-56 186.5q0 66 22 122t73.5 95t123.5 39q103 0 157 -69t54 -203zM181 251l155 69q0 114 -71 114q-46 0 -65 -44.5t-19 -138.5zM269 750l140 -172l-6 -10l-141 57l-141 -57
l-6 10l140 172h14z" />
    <glyph glyph-name="edieresis" unicode="&#xeb;" horiz-adv-x="515" 
d="M475 235h-293q4 -71 35 -110t102 -39q74 0 128 23l3 -9q-57 -111 -187 -111q-106 0 -162 75.5t-56 186.5q0 66 22 122t73.5 95t123.5 39q103 0 157 -69t54 -203zM181 251l155 69q0 114 -71 114q-46 0 -65 -44.5t-19 -138.5zM424 682q0 -24 -16.5 -40.5t-40.5 -16.5
q-25 0 -42 16t-17 41q0 24 17 40.5t42 16.5q23 0 40 -17t17 -40zM216 682q0 -24 -16.5 -40.5t-40.5 -16.5q-25 0 -42 16t-17 41q0 24 17 40.5t42 16.5q23 0 40 -17t17 -40z" />
    <glyph glyph-name="igrave" unicode="&#xec;" horiz-adv-x="342" 
d="M322 13v-13h-297v13l86 91v286l-106 20v12l231 94v-442zM99 758l182 -183l-5 -10l-246 61z" />
    <glyph glyph-name="iacute" unicode="&#xed;" horiz-adv-x="342" 
d="M322 13v-13h-297v13l86 91v286l-106 20v12l231 94v-442zM212 758l69 -132l-246 -61l-5 10z" />
    <glyph glyph-name="icircumflex" unicode="&#xee;" horiz-adv-x="342" 
d="M322 13v-13h-297v13l86 91v286l-106 20v12l231 94v-442zM166 750l140 -172l-6 -10l-141 57l-141 -57l-6 10l140 172h14z" />
    <glyph glyph-name="idieresis" unicode="&#xef;" horiz-adv-x="342" 
d="M322 13v-13h-297v13l86 91v286l-106 20v12l231 94v-442zM329 682q0 -24 -16.5 -40.5t-40.5 -16.5q-25 0 -42 16t-17 41q0 24 17 40.5t42 16.5q23 0 40 -17t17 -40zM121 682q0 -24 -16.5 -40.5t-40.5 -16.5q-25 0 -42 16t-17 41q0 24 17 40.5t42 16.5q23 0 40 -17t17 -40z
" />
    <glyph glyph-name="eth" unicode="&#xf0;" horiz-adv-x="555" 
d="M493 720l18 -30l-74 -49q49 -64 49 -168v-257q0 -92 -60.5 -157t-159.5 -65q-105 0 -163 73t-58 177q0 96 50.5 160t142.5 64q83 0 123 -69v70q0 67 -26 103l-101 -68l-19 30l93 62q-30 18 -79 18q-55 0 -138 -29l-2 11q29 56 81 87.5t111 31.5q77 0 132 -49zM361 235
v141q-28 4 -57 4q-68 0 -96 -28.5t-28 -116.5q0 -77 21 -115.5t69 -38.5q50 0 70.5 38t20.5 116z" />
    <glyph glyph-name="ntilde" unicode="&#xf1;" horiz-adv-x="624" 
d="M609 12v-12h-255v12l54 92v247q0 59 -85 59q-43 0 -83 -12v-324l53 -62v-12h-264v12l86 92v281l-100 20v12l204 93l21 -91q68 89 162 89q56 0 93.5 -34.5t37.5 -99.5v-300zM484 698q0 -42 -25.5 -70t-72.5 -28q-22 0 -52 10l-102 37l-69 -47q-8 23 -8 50q0 43 24.5 71
t72.5 28q22 0 52 -10l102 -37l68 47q10 -28 10 -51z" />
    <glyph glyph-name="ograve" unicode="&#xf2;" horiz-adv-x="584" 
d="M539 250q0 -123 -73.5 -192.5t-173.5 -69.5t-173.5 69.5t-73.5 192.5t73.5 192.5t173.5 69.5t173.5 -69.5t73.5 -192.5zM399 250q0 28 -1.5 49t-8 47t-17.5 42.5t-31.5 28t-49.5 11.5t-49.5 -11.5t-31.5 -28t-17.5 -42.5t-8 -47t-1.5 -49t1.5 -49t8 -47t17.5 -42.5
t31.5 -28t49.5 -11.5t49.5 11.5t31.5 28t17.5 42.5t8 47t1.5 49zM244 758l182 -183l-5 -10l-246 61z" />
    <glyph glyph-name="oacute" unicode="&#xf3;" horiz-adv-x="584" 
d="M539 250q0 -123 -73.5 -192.5t-173.5 -69.5t-173.5 69.5t-73.5 192.5t73.5 192.5t173.5 69.5t173.5 -69.5t73.5 -192.5zM399 250q0 28 -1.5 49t-8 47t-17.5 42.5t-31.5 28t-49.5 11.5t-49.5 -11.5t-31.5 -28t-17.5 -42.5t-8 -47t-1.5 -49t1.5 -49t8 -47t17.5 -42.5
t31.5 -28t49.5 -11.5t49.5 11.5t31.5 28t17.5 42.5t8 47t1.5 49zM347 758l69 -132l-246 -61l-5 10z" />
    <glyph glyph-name="ocircumflex" unicode="&#xf4;" horiz-adv-x="584" 
d="M539 250q0 -123 -73.5 -192.5t-173.5 -69.5t-173.5 69.5t-73.5 192.5t73.5 192.5t173.5 69.5t173.5 -69.5t73.5 -192.5zM399 250q0 28 -1.5 49t-8 47t-17.5 42.5t-31.5 28t-49.5 11.5t-49.5 -11.5t-31.5 -28t-17.5 -42.5t-8 -47t-1.5 -49t1.5 -49t8 -47t17.5 -42.5
t31.5 -28t49.5 -11.5t49.5 11.5t31.5 28t17.5 42.5t8 47t1.5 49zM299 750l140 -172l-6 -10l-141 57l-141 -57l-6 10l140 172h14z" />
    <glyph glyph-name="otilde" unicode="&#xf5;" horiz-adv-x="584" 
d="M539 250q0 -123 -73.5 -192.5t-173.5 -69.5t-173.5 69.5t-73.5 192.5t73.5 192.5t173.5 69.5t173.5 -69.5t73.5 -192.5zM399 250q0 28 -1.5 49t-8 47t-17.5 42.5t-31.5 28t-49.5 11.5t-49.5 -11.5t-31.5 -28t-17.5 -42.5t-8 -47t-1.5 -49t1.5 -49t8 -47t17.5 -42.5
t31.5 -28t49.5 -11.5t49.5 11.5t31.5 28t17.5 42.5t8 47t1.5 49zM454 698q0 -42 -25.5 -70t-72.5 -28q-22 0 -52 10l-102 37l-69 -47q-8 23 -8 50q0 43 24.5 71t72.5 28q22 0 52 -10l102 -37l68 47q10 -28 10 -51z" />
    <glyph glyph-name="odieresis" unicode="&#xf6;" horiz-adv-x="584" 
d="M539 250q0 -123 -73.5 -192.5t-173.5 -69.5t-173.5 69.5t-73.5 192.5t73.5 192.5t173.5 69.5t173.5 -69.5t73.5 -192.5zM399 250q0 28 -1.5 49t-8 47t-17.5 42.5t-31.5 28t-49.5 11.5t-49.5 -11.5t-31.5 -28t-17.5 -42.5t-8 -47t-1.5 -49t1.5 -49t8 -47t17.5 -42.5
t31.5 -28t49.5 -11.5t49.5 11.5t31.5 28t17.5 42.5t8 47t1.5 49zM454 682q0 -24 -16.5 -40.5t-40.5 -16.5q-25 0 -42 16t-17 41q0 24 17 40.5t42 16.5q23 0 40 -17t17 -40zM246 682q0 -24 -16.5 -40.5t-40.5 -16.5q-25 0 -42 16t-17 41q0 24 17 40.5t42 16.5q23 0 40 -17
t17 -40z" />
    <glyph glyph-name="divide" unicode="&#xf7;" horiz-adv-x="603" 
d="M359 533q0 -24 -16.5 -40.5t-40.5 -16.5q-25 0 -42 16t-17 41q0 24 17 40.5t42 16.5q23 0 40 -17t17 -40zM543 368v-52h-483v52h483zM359 152q0 -24 -16.5 -40.5t-40.5 -16.5q-25 0 -42 16t-17 41q0 24 17 40.5t42 16.5q23 0 40 -17t17 -40z" />
    <glyph glyph-name="oslash" unicode="&#xf8;" horiz-adv-x="584" 
d="M539 250q0 -123 -73.5 -192.5t-173.5 -69.5q-63 0 -119 29l-47 -80l-32 21l47 80q-96 74 -96 212q0 123 73.5 192.5t173.5 69.5q63 0 116 -28l42 71l31 -20l-41 -70q99 -73 99 -215zM199 134l160 269q-23 25 -68 25q-29 0 -49.5 -11.5t-31.5 -28t-17.5 -42.5t-8 -47
t-1.5 -49q0 -77 16 -116zM399 250q0 79 -17 119l-161 -271q26 -26 70 -26q29 0 49.5 11.5t31.5 28t17.5 42.5t8 47t1.5 49z" />
    <glyph glyph-name="ugrave" unicode="&#xf9;" horiz-adv-x="626" 
d="M626 85v-12l-205 -93l-21 90q-68 -89 -161 -89q-56 0 -93.5 34.5t-37.5 99.5v271l-108 20v13l233 98v-378q0 -62 87 -62q41 0 79 12v297l-103 20v13l228 98v-412zM264 758l182 -183l-5 -10l-246 61z" />
    <glyph glyph-name="uacute" unicode="&#xfa;" horiz-adv-x="626" 
d="M626 85v-12l-205 -93l-21 90q-68 -89 -161 -89q-56 0 -93.5 34.5t-37.5 99.5v271l-108 20v13l233 98v-378q0 -62 87 -62q41 0 79 12v297l-103 20v13l228 98v-412zM377 758l69 -132l-246 -61l-5 10z" />
    <glyph glyph-name="ucircumflex" unicode="&#xfb;" horiz-adv-x="626" 
d="M626 85v-12l-205 -93l-21 90q-68 -89 -161 -89q-56 0 -93.5 34.5t-37.5 99.5v271l-108 20v13l233 98v-378q0 -62 87 -62q41 0 79 12v297l-103 20v13l228 98v-412zM309 750l140 -172l-6 -10l-141 57l-141 -57l-6 10l140 172h14z" />
    <glyph glyph-name="udieresis" unicode="&#xfc;" horiz-adv-x="626" 
d="M626 85v-12l-205 -93l-21 90q-68 -89 -161 -89q-56 0 -93.5 34.5t-37.5 99.5v271l-108 20v13l233 98v-378q0 -62 87 -62q41 0 79 12v297l-103 20v13l228 98v-412zM474 682q0 -24 -16.5 -40.5t-40.5 -16.5q-25 0 -42 16t-17 41q0 24 17 40.5t42 16.5q23 0 40 -17t17 -40z
M266 682q0 -24 -16.5 -40.5t-40.5 -16.5q-25 0 -42 16t-17 41q0 24 17 40.5t42 16.5q23 0 40 -17t17 -40z" />
    <glyph glyph-name="yacute" unicode="&#xfd;" horiz-adv-x="607" 
d="M597 485v-13l-82 -85l-247 -537q-41 -88 -129 -88q-15 0 -41 4l-55 126q45 -8 87 -8q111 0 151 71l-186 433l-85 84v13h274v-13l-62 -68l129 -305l55 305l-68 68v13h259zM377 758l69 -132l-246 -61l-5 10z" />
    <glyph glyph-name="thorn" unicode="&#xfe;" horiz-adv-x="585" 
d="M540 256q0 -122 -51.5 -192t-144.5 -70q-85 0 -124 76v-216l96 -60v-14h-307v14l86 90v757l-107 20v12l232 94v-330q20 29 56 49.5t73 20.5q67 0 112 -38t62 -92t17 -121zM405 245q0 87 -28.5 131t-94.5 44q-28 0 -62 -8v-326q29 -4 60 -4q66 0 95.5 36t29.5 127z" />
    <glyph glyph-name="ydieresis" unicode="&#xff;" horiz-adv-x="607" 
d="M597 485v-13l-82 -85l-247 -537q-41 -88 -129 -88q-15 0 -41 4l-55 126q45 -8 87 -8q111 0 151 71l-186 433l-85 84v13h274v-13l-62 -68l129 -305l55 305l-68 68v13h259zM474 682q0 -24 -16.5 -40.5t-40.5 -16.5q-25 0 -42 16t-17 41q0 24 17 40.5t42 16.5q23 0 40 -17
t17 -40zM266 682q0 -24 -16.5 -40.5t-40.5 -16.5q-25 0 -42 16t-17 41q0 24 17 40.5t42 16.5q23 0 40 -17t17 -40z" />
    <glyph glyph-name="dotlessi" unicode="&#x131;" horiz-adv-x="342" 
d="M322 13v-13h-297v13l86 91v286l-106 20v12l231 94v-442z" />
    <glyph glyph-name="Lslash" unicode="&#x141;" horiz-adv-x="632" 
d="M582 234v-234h-542v15l86 89v192l-62 -42l-19 30l81 54v258l-86 89v15h307v-15l-96 -75v-188l72 48l18 -30l-90 -60v-306h224l95 160h12z" />
    <glyph glyph-name="lslash" unicode="&#x142;" horiz-adv-x="333" 
d="M304 470l18 -30l-90 -60v-306l86 -61v-13h-297v13l86 91v192l-62 -42l-19 30l81 54v303l-107 20v12l232 94v-345z" />
    <glyph glyph-name="OE" unicode="&#x152;" horiz-adv-x="1064" 
d="M999 234v-234h-530q-50 -14 -99 -14q-139 0 -234.5 95t-95.5 268t95.5 267.5t234.5 94.5q44 0 88 -11h522v-229h-12l-94 155h-281q100 -95 104 -264l82 38l62 107h12v-311h-12l-64 117l-80 27q-3 -170 -101 -266h296l95 160h12zM556 349q0 43 -2.5 75.5t-14 72.5
t-30.5 65.5t-55 43.5t-86 18t-86 -18t-55 -43.5t-30.5 -65.5t-14 -72.5t-2.5 -75.5t2.5 -75.5t14 -72.5t30.5 -66t55 -44t86 -18t86 18t55 44t30.5 66t14 72.5t2.5 75.5z" />
    <glyph glyph-name="oe" unicode="&#x153;" horiz-adv-x="853" 
d="M813 235h-293q9 -146 137 -146q56 0 132 27l2 -11q-59 -116 -190 -116q-101 0 -163 77q-59 -78 -159 -78q-98 0 -166 69t-68 193q0 125 66.5 193.5t164.5 68.5q104 0 164 -80q60 75 162 75q103 0 157 -69t54 -203zM520 251l154 69q0 114 -71 114q-46 0 -64.5 -44
t-18.5 -139zM431 81q-48 72 -48 170q0 100 48 168q-47 7 -81 7q-76 0 -121.5 -39t-45.5 -137t45.5 -137t121.5 -39q34 0 81 7z" />
    <glyph glyph-name="Scaron" unicode="&#x160;" horiz-adv-x="623" 
d="M563 200q0 -96 -64 -156t-152 -60q-109 0 -167 68l-120 -63v240h12l109 -146q39 -11 89 -11q70 0 118 29t48 95q0 34 -20 57t-51.5 35.5t-70 23t-77 24.5t-70 35t-51.5 60t-20 93q0 86 58 136.5t138 50.5q95 0 158 -66l114 65v-240h-12l-109 150q-48 11 -90 11
q-132 0 -132 -105q0 -40 37.5 -64t90.5 -39.5t106 -36t90.5 -67t37.5 -119.5zM463 930l6 -10l-140 -172h-14l-140 172l6 10l141 -57z" />
    <glyph glyph-name="scaron" unicode="&#x161;" horiz-adv-x="505" 
d="M455 138q0 -72 -49 -112t-116 -40q-44 0 -81.5 19t-56.5 54l-102 -63v208h11l98 -127q29 -9 79 -9q93 0 93 53q0 30 -28 49.5t-67.5 31.5t-79.5 27t-68 48.5t-28 84.5q0 70 43.5 107t102.5 37q88 0 125 -71l104 64v-207h-11l-104 128q-32 4 -55 4q-84 0 -84 -51
q0 -24 28 -40.5t68.5 -29t81 -29t68.5 -51t28 -85.5zM393 760l6 -10l-140 -172h-14l-140 172l6 10l141 -57z" />
    <glyph glyph-name="Ydieresis" unicode="&#x178;" horiz-adv-x="720" 
d="M710 700v-15l-87 -90l-201 -372v-119l86 -89v-15h-297v15l86 89v119l-201 373l-86 89v15h309v-15l-87 -69l176 -344l101 344l-96 69v15h297zM549 822q0 -24 -16.5 -40.5t-40.5 -16.5q-25 0 -42 16t-17 41q0 24 17 40.5t42 16.5q23 0 40 -17t17 -40zM341 822
q0 -24 -16.5 -40.5t-40.5 -16.5q-25 0 -42 16t-17 41q0 24 17 40.5t42 16.5q23 0 40 -17t17 -40z" />
    <glyph glyph-name="Zcaron" unicode="&#x17d;" horiz-adv-x="682" 
d="M619 700v-15l-383 -611h251l95 160h12v-234h-544v15l383 611h-230l-94 -155h-12v229h522zM483 930l6 -10l-140 -172h-14l-140 172l6 10l141 -57z" />
    <glyph glyph-name="zcaron" unicode="&#x17e;" horiz-adv-x="537" 
d="M476 485v-12l-298 -451l186 57l84 121h11v-200h-429v12l297 451l-168 -55l-88 -123h-11v200h416zM399 760l6 -10l-140 -172h-14l-140 172l6 10l141 -57z" />
    <glyph glyph-name="circumflex" unicode="&#x2c6;" 
d="M289 750l140 -172l-6 -10l-141 57l-141 -57l-6 10l140 172h14z" />
    <glyph glyph-name="caron" unicode="&#x2c7;" 
d="M423 760l6 -10l-140 -172h-14l-140 172l6 10l141 -57z" />
    <glyph glyph-name="breve" unicode="&#x2d8;" 
d="M415 717q0 -57 -40 -89t-94 -32q-52 0 -90.5 31t-38.5 88l3 34h13q0 -27 34 -39.5t82 -12.5t82 12.5t34 39.5h13q2 -13 2 -32z" />
    <glyph glyph-name="dotaccent" unicode="&#x2d9;" horiz-adv-x="227" 
d="M170 682q0 -24 -16.5 -40.5t-40.5 -16.5q-25 0 -42 16t-17 41q0 24 17 40.5t42 16.5q23 0 40 -17t17 -40z" />
    <glyph glyph-name="ring" unicode="&#x2da;" 
d="M374 672q0 -37 -26 -63.5t-63 -26.5t-62.5 26t-25.5 63q0 36 25.5 62t62.5 26t63 -26t26 -61zM344 672q0 23 -17.5 40t-41.5 17t-41 -17t-17 -41q0 -25 17 -42t41 -17t41.5 17.5t17.5 42.5z" />
    <glyph glyph-name="ogonek" unicode="&#x2db;" horiz-adv-x="497" 
d="M316 -151l49 -70q-6 -32 -30 -50t-53 -18q-41 0 -66.5 30.5t-25.5 73.5q0 50 39.5 90.5t117.5 48.5z" />
    <glyph glyph-name="tilde" unicode="&#x2dc;" 
d="M454 698q0 -42 -25.5 -70t-72.5 -28q-22 0 -52 10l-102 37l-69 -47q-8 23 -8 50q0 43 24.5 71t72.5 28q22 0 52 -10l102 -37l68 47q10 -28 10 -51z" />
    <glyph glyph-name="hungarumlaut" unicode="&#x2dd;" 
d="M363 777l113 -93l-167 -106l-9 7zM193 777l113 -93l-167 -106l-9 7z" />
    <glyph glyph-name="endash" unicode="&#x2013;" horiz-adv-x="600" 
d="M550 313v-74h-500v74h500z" />
    <glyph glyph-name="emdash" unicode="&#x2014;" horiz-adv-x="1100" 
d="M1050 313v-74h-1000v74h1000z" />
    <glyph glyph-name="quoteleft" unicode="&#x2018;" horiz-adv-x="238" 
d="M198 712l-55 -133q24 -9 39 -30.5t15 -48.5q0 -35 -25 -60t-60 -25q-44 0 -68 32.5t-24 77.5q0 71 53.5 129t124.5 58z" />
    <glyph glyph-name="quoteright" unicode="&#x2019;" horiz-adv-x="238" 
d="M208 602q0 -71 -53.5 -129t-124.5 -58l55 133q-24 9 -39 30.5t-15 48.5q0 35 25 60t60 25q44 0 68 -32.5t24 -77.5z" />
    <glyph glyph-name="quotesinglbase" unicode="&#x201a;" horiz-adv-x="268" 
d="M228 47q0 -71 -53.5 -129t-124.5 -58l55 133q-24 9 -39 30.5t-15 48.5q0 35 25 60t60 25q44 0 68 -32.5t24 -77.5z" />
    <glyph glyph-name="quotedblleft" unicode="&#x201c;" horiz-adv-x="478" 
d="M438 712l-55 -133q24 -9 39 -30.5t15 -48.5q0 -35 -25 -60t-60 -25q-44 0 -68 32.5t-24 77.5q0 71 53.5 129t124.5 58zM198 712l-55 -133q24 -9 39 -30.5t15 -48.5q0 -35 -25 -60t-60 -25q-44 0 -68 32.5t-24 77.5q0 71 53.5 129t124.5 58z" />
    <glyph glyph-name="quotedblright" unicode="&#x201d;" horiz-adv-x="478" 
d="M448 602q0 -71 -53.5 -129t-124.5 -58l55 133q-24 9 -39 30.5t-15 48.5q0 35 25 60t60 25q44 0 68 -32.5t24 -77.5zM208 602q0 -71 -53.5 -129t-124.5 -58l55 133q-24 9 -39 30.5t-15 48.5q0 35 25 60t60 25q44 0 68 -32.5t24 -77.5z" />
    <glyph glyph-name="quotedblbase" unicode="&#x201e;" horiz-adv-x="508" 
d="M468 47q0 -71 -53.5 -129t-124.5 -58l55 133q-24 9 -39 30.5t-15 48.5q0 35 25 60t60 25q44 0 68 -32.5t24 -77.5zM228 47q0 -71 -53.5 -129t-124.5 -58l55 133q-24 9 -39 30.5t-15 48.5q0 35 25 60t60 25q44 0 68 -32.5t24 -77.5z" />
    <glyph glyph-name="dagger" unicode="&#x2020;" horiz-adv-x="446" 
d="M431 570v-170l-199 76l84 -476h-186l84 476l-199 -76v170l199 -75l-84 205h186l-84 -205z" />
    <glyph glyph-name="daggerdbl" unicode="&#x2021;" horiz-adv-x="446" 
d="M431 300v-170l-189 70l74 -200h-186l74 200l-189 -70v170l189 -71l-74 121l74 121l-189 -71v170l189 -70l-74 200h186l-74 -200l189 70v-170l-189 71l74 -121l-74 -121z" />
    <glyph glyph-name="bullet" unicode="&#x2022;" horiz-adv-x="444" 
d="M376 303q0 -64 -45 -109t-108 -45q-65 0 -110 45t-45 109t45 108.5t110 44.5q63 0 108 -44.5t45 -108.5z" />
    <glyph glyph-name="ellipsis" unicode="&#x2026;" horiz-adv-x="1010" 
d="M940 72q0 -35 -25 -60t-60 -25t-60 25t-25 60t25 60t60 25t60 -25t25 -60zM590 72q0 -35 -25 -60t-60 -25t-60 25t-25 60t25 60t60 25t60 -25t25 -60zM240 72q0 -35 -25 -60t-60 -25t-60 25t-25 60t25 60t60 25t60 -25t25 -60z" />
    <glyph glyph-name="perthousand" unicode="&#x2030;" horiz-adv-x="1046" 
d="M1021 176q0 -88 -42 -136.5t-104 -48.5t-104 48.5t-42 135.5t42 135.5t104 48.5q63 0 104.5 -48t41.5 -135zM532 737l42 -23l-389 -736l-43 23zM681 176q0 -88 -42 -136.5t-104 -48.5t-104 48.5t-42 135.5t42 135.5t104 48.5q63 0 104.5 -48t41.5 -135zM317 527
q0 -88 -42 -136.5t-104 -48.5t-104 48.5t-42 135.5t42 135.5t104 48.5q63 0 104.5 -48t41.5 -135zM972 176q0 70 -29 104t-68 34t-68 -34.5t-29 -104.5t29 -104t68 -34t68 34.5t29 104.5zM632 176q0 70 -29 104t-68 34t-68 -34.5t-29 -104.5t29 -104t68 -34t68 34.5
t29 104.5zM268 527q0 70 -29 104t-68 34t-68 -34.5t-29 -104.5t29 -104t68 -34t68 34.5t29 104.5z" />
    <glyph glyph-name="guilsinglleft" unicode="&#x2039;" horiz-adv-x="405" 
d="M231 265l114 -232l-8 -10l-277 235v16l277 235l8 -10z" />
    <glyph glyph-name="guilsinglright" unicode="&#x203a;" horiz-adv-x="405" 
d="M345 274v-16l-277 -235l-8 10l114 232l-114 234l8 10z" />
    <glyph glyph-name="fraction" unicode="&#x2044;" horiz-adv-x="566" 
d="M514 708l32 -24l-492 -697l-34 25z" />
    <glyph glyph-name="Euro" unicode="&#x20ac;" horiz-adv-x="720" 
d="M630 230v-240l-105 69q-52 -72 -139 -72q-106 0 -169 74.5t-83 186.5h-114l20 42h88q-3 30 -3 60q0 32 3 63h-108l20 42h95q21 112 83.5 185t167.5 73q87 0 139 -72l105 69v-240h-14l-107 152q-22 5 -47 5q-158 0 -189 -172h195l-20 -42h-180q-3 -30 -3 -63q0 -22 2 -60
h171l-20 -42h-145q30 -175 189 -175l47 5l107 152h14z" />
    <glyph glyph-name="trademark" unicode="&#x2122;" horiz-adv-x="881" 
d="M831 360v-10h-174v11l47 43v191h-2l-92 -245h-20l-91 240h-2v-186l46 -43v-11h-151v11l54 52v224l-52 52v11h147l85 -225l64 225h141v-10l-47 -52v-225zM355 710v-135h-11l-58 81h-43v-244l52 -52v-10h-184v10l52 52v244h-43l-59 -81h-11v135l53 -10h200z" />
    <glyph glyph-name="minus" unicode="&#x2212;" horiz-adv-x="603" 
d="M543 368v-52h-483v52h483z" />
    <glyph glyph-name="lozenge" unicode="&#x25ca;" horiz-adv-x="1000" 
 />
    <glyph glyph-name="fi" unicode="&#xfb01;" horiz-adv-x="642" 
d="M627 13v-13h-287v13l76 91v286l-188 25v-341l70 -61v-13h-281v12l86 92v281l-93 87v13h93v120q0 75 51.5 110t128.5 35q66 0 124 -20v-130l-179 119v-289l313 86v-442z" />
    <glyph glyph-name="fl" unicode="&#xfb02;" horiz-adv-x="660" 
d="M645 13v-13h-287v13l76 91v565q-46 12 -85 12q-121 0 -121 -90v-106h105v-74h-105v-337l70 -61v-13h-281v12l86 92v281l-93 87v13h93v133q0 66 42.5 98.5t108.5 32.5q102 0 175 -57l130 75v-693z" />
    <glyph glyph-name="alt_g" horiz-adv-x="556" 
d="M486 509v-564q0 -88 -52 -136.5t-121 -48.5q-77 0 -115 59l-122 -50v205h11l112 -130q27 -5 46 -5q50 0 83 26.5t33 79.5v114q-37 -69 -127 -69q-67 0 -112.5 39.5t-63.5 94t-18 119.5q0 108 51.5 186.5t151.5 78.5q37 0 69 -19t51 -56zM361 79v338q-28 7 -50 7
q-67 0 -101.5 -41.5t-34.5 -134.5t34.5 -134.5t101.5 -41.5q22 0 50 7z" />
    </font>
</defs>
</svg>
