<?xml version="1.0" standalone="no"?>
<!DOCTYPE svg PUBLIC "-//W3C//DTD SVG 1.1//EN" "http://www.w3.org/Graphics/SVG/1.1/DTD/svg11.dtd" >
<svg xmlns="http://www.w3.org/2000/svg" xmlns:xlink="http://www.w3.org/1999/xlink" version="1.1">
<metadata>
Created by FontForge 20170731 at Wed Aug  5 14:46:23 2015
 By Aleksey,,,
Copyright (c) 2015 by PYRS Fontlab Ltd. / Made with FontLab. All rights reserved.
</metadata>
<defs>
<font id="Sabre-Black" horiz-adv-x="591" >
  <font-face 
    font-family="Sabre Black"
    font-weight="900"
    font-stretch="normal"
    units-per-em="1000"
    panose-1="0 0 0 0 0 0 0 0 0 0"
    ascent="800"
    descent="-200"
    x-height="485"
    cap-height="700"
    bbox="-50 -328 1214 975"
    underline-thickness="50"
    underline-position="-200"
    unicode-range="U+0020-FB04"
  />
<missing-glyph horiz-adv-x="200" 
 />
    <glyph glyph-name="f_f" unicode="ff" horiz-adv-x="828" 
d="M844 723v-158h-10l-166 154v-234h145v-74h-145v-337l137 -60v-14h-398v14l76 90v307h-195v-337l67 -60v-14h-338v14l86 90v273l-93 95v13h93v120q0 72 52 107t126 35q59 0 116 -22t97 -60q35 84 175 84q93 0 175 -26zM489 651q-42 14 -86 14q-50 0 -82.5 -21t-32.5 -68
v-91h195v120q0 27 6 46z" />
    <glyph glyph-name="f_f_i" unicode="ffi" horiz-adv-x="1148" 
d="M1138 14v-14h-357v14l86 90v277l-199 25v-332l77 -60v-14h-338v14l76 90v307h-195v-337l67 -60v-14h-338v14l86 90v273l-93 95v13h93v120q0 72 52 107t126 35q59 0 116 -22t97 -60q35 84 175 84q93 0 175 -26v-158h-10l-166 154v-299l384 97v-413zM489 651q-42 14 -86 14
q-50 0 -82.5 -21t-32.5 -68v-91h195v120q0 27 6 46z" />
    <glyph glyph-name="f_f_l" unicode="ffl" horiz-adv-x="1139" 
d="M1139 14v-14h-358v14l86 90v548q-39 13 -84 13q-50 0 -82.5 -21t-32.5 -68v-91h105v-74h-105v-337l77 -60v-14h-338v14l76 90v307h-195v-337l67 -60v-14h-338v14l86 90v273l-93 95v13h93v120q0 72 52 107t126 35q59 0 116.5 -22.5t97.5 -60.5q19 42 64.5 62.5t101.5 20.5
q61 0 118 -21.5t97 -59.5l176 101v-693zM490 651q-42 14 -87 14q-50 0 -82.5 -21t-32.5 -68v-91h195v120q0 21 7 46z" />
    <glyph glyph-name="f_j" unicode="fj" horiz-adv-x="737" 
d="M672 517v-626q0 -56 -49 -93.5t-113 -37.5q-68 0 -111 42v10q33 7 60.5 36.5t27.5 65.5v467l-199 25v-332l77 -60v-14h-348v14l86 90v273l-93 95v13h93v120q0 78 52 111t134 33q93 0 175 -26v-158h-10l-166 154v-299z" />
    <glyph glyph-name="f_t" unicode="ft" horiz-adv-x="859" 
d="M834 485v-74h-162v-254q0 -37 31.5 -53t75.5 -16q20 0 37 5l2 -13q-24 -46 -75 -72t-105 -26q-65 0 -108 39t-43 115v242l-199 93v-397l77 -60v-14h-348v14l86 90v273l-93 95v13h93v120q0 78 52 111t134 33q93 0 175 -26v-158h-10l-166 154v-234h212l160 193h12v-193h162
z" />
    <glyph glyph-name="f_f_j" unicode="ffj" horiz-adv-x="1117" 
d="M1052 517v-626q0 -56 -49 -93.5t-113 -37.5q-68 0 -111 42v10q33 7 60.5 36.5t27.5 65.5v467l-199 25v-332l77 -60v-14h-338v14l76 90v307h-195v-337l67 -60v-14h-338v14l86 90v273l-93 95v13h93v120q0 72 52 107t126 35q59 0 116 -22t97 -60q35 84 175 84q93 0 175 -26
v-158h-10l-166 154v-299zM489 651q-42 14 -86 14q-50 0 -82.5 -21t-32.5 -68v-91h195v120q0 27 6 46z" />
    <glyph glyph-name="f_f_t" unicode="fft" horiz-adv-x="1239" 
d="M1214 485v-74h-162v-254q0 -37 31.5 -53t75.5 -16q20 0 37 5l2 -13q-24 -46 -75 -72t-105 -26q-65 0 -108 39t-43 115v242l-199 93v-397l77 -60v-14h-348v14l86 90v307h-195v-337l67 -60v-14h-338v14l86 90v273l-93 95v13h93v120q0 72 52 107t126 35q58 0 115.5 -22.5
t97.5 -59.5q35 84 175 84q93 0 175 -26v-158h-10l-166 154v-234h212l160 193h12v-193h162zM403 665q-50 0 -82.5 -21t-32.5 -68v-91h195v120q0 25 6 46q-42 14 -86 14z" />
    <glyph glyph-name=".notdef" horiz-adv-x="200" 
 />
    <glyph glyph-name=".null" horiz-adv-x="0" 
 />
    <glyph glyph-name="nonmarkingreturn" horiz-adv-x="333" 
 />
    <glyph glyph-name="space" unicode=" " horiz-adv-x="200" 
 />
    <glyph glyph-name="exclam" unicode="!" horiz-adv-x="325" 
d="M40 700h245l-114 -481q46 -3 77.5 -36.5t31.5 -79.5q0 -49 -34 -83t-82 -34q-49 0 -83 34t-34 83q0 46 31 79t76 37z" />
    <glyph glyph-name="quotedbl" unicode="&#x22;" horiz-adv-x="639" 
d="M350 700h249l-115 -337h-19zM40 700h249l-115 -337h-19z" />
    <glyph glyph-name="numbersign" unicode="#" horiz-adv-x="624" 
d="M604 476v-45h-143l-48 -160h129v-45h-142l-69 -226h-51l69 226h-140l-68 -226h-51l69 226h-129v45h142l49 160h-128v45h141l70 224h51l-70 -224h139l70 224h51l-70 -224h129zM362 271l49 160h-140l-48 -160h139z" />
    <glyph glyph-name="dollar" unicode="$" horiz-adv-x="654" 
d="M599 200q0 -98 -71 -157t-166 -59q-11 0 -33 2v-105h-48v115q-64 19 -96 67l-125 -74v235h11l110 -131q40 -11 83 -11l17 1v208q-91 37 -121 58q-84 58 -84 170q0 87 60.5 141.5t148.5 54.5q28 0 56 -5v106h48v-122q41 -20 71 -61l120 77v-235h-11l-110 135q-28 8 -70 11
v-180q30 -13 42 -18t40 -19.5t41 -25.5t33 -30.5t29.5 -39.5t17 -48t7.5 -60zM341 463v156q-74 -11 -74 -68q0 -52 74 -88zM402 166q0 64 -73 104v-180q73 18 73 76z" />
    <glyph glyph-name="percent" unicode="%" horiz-adv-x="706" 
d="M532 737l42 -23l-389 -736l-43 23zM681 176q0 -88 -42 -136.5t-104 -48.5t-104 48.5t-42 135.5t42 135.5t104 48.5q63 0 104.5 -48t41.5 -135zM317 527q0 -88 -42 -136.5t-104 -48.5t-104 48.5t-42 135.5t42 135.5t104 48.5q63 0 104.5 -48t41.5 -135zM632 176
q0 70 -29 104t-68 34t-68 -34.5t-29 -104.5t29 -104t68 -34t68 34.5t29 104.5zM268 527q0 70 -29 104t-68 34t-68 -34.5t-29 -104.5t29 -104t68 -34t68 34.5t29 104.5z" />
    <glyph glyph-name="ampersand" unicode="&#x26;" horiz-adv-x="812" 
d="M782 430v-10l-114 -97l-63 -119l157 -189v-15h-223l-86 105q-17 -61 -68.5 -92.5t-117.5 -31.5q-103 0 -160 55t-57 131q0 72 49.5 127.5t137.5 64.5l-55 66q-46 55 -46 118q0 71 56 121.5t143 50.5q113 0 175 -82l120 77v-245h-11l-110 145q-34 9 -70 9q-98 0 -98 -68
q0 -31 21 -56l185 -222l45 85l-72 61v11h262zM442 116l-193 229q-17 -39 -17 -87q0 -68 35 -117t101 -49q42 0 74 24z" />
    <glyph glyph-name="quotesingle" unicode="'" horiz-adv-x="329" 
d="M40 700h249l-115 -337h-19z" />
    <glyph glyph-name="parenleft" unicode="(" horiz-adv-x="377" 
d="M362 -118l-40 -42q-132 75 -202 196.5t-70 258.5q0 136 70 257.5t202 196.5l40 -43q-58 -42 -90 -157t-32 -254q0 -140 32 -255.5t90 -157.5z" />
    <glyph glyph-name="parenright" unicode=")" horiz-adv-x="377" 
d="M327 294q0 -136 -70 -257.5t-202 -196.5l-40 43q58 42 90 157t32 254q0 140 -32 255.5t-90 157.5l40 42q132 -75 202 -196.5t70 -258.5z" />
    <glyph glyph-name="asterisk" unicode="*" horiz-adv-x="624" 
d="M492 630l51 -158l-224 10l187 -124l-134 -97l-60 216l-60 -216l-134 97l187 124l-224 -10l51 158l176 -140l-79 210h166l-79 -210z" />
    <glyph glyph-name="plus" unicode="+" horiz-adv-x="603" 
d="M543 368v-52h-215v-215h-52v215h-216v52h216v216h52v-216h215z" />
    <glyph glyph-name="comma" unicode="," horiz-adv-x="338" 
d="M288 84q0 -87 -67 -155t-181 -68l62 145q-51 35 -51 97q0 48 34 82t83 34q55 0 87.5 -39.5t32.5 -95.5z" />
    <glyph glyph-name="hyphen" unicode="-" horiz-adv-x="459" 
d="M409 313v-74h-359v74h359z" />
    <glyph glyph-name="period" unicode="." horiz-adv-x="313" 
d="M273 103q0 -49 -34 -83t-82 -34q-49 0 -83 34t-34 83q0 48 34 82t83 34q48 0 82 -34t34 -82z" />
    <glyph glyph-name="slash" unicode="/" horiz-adv-x="356" 
d="M312 735l44 -18l-311 -731l-45 19z" />
    <glyph glyph-name="zero" unicode="0" horiz-adv-x="674" 
d="M634 349q0 -173 -86.5 -270t-209.5 -97t-210.5 97.5t-87.5 269.5t87.5 269.5t210.5 97.5t209.5 -97t86.5 -270zM434 269v170q0 40 -2 67.5t-8 54t-16.5 42t-28.5 25t-43 9.5q-59 0 -78 -48t-19 -150v-170q0 -50 3.5 -84t13 -64.5t29.5 -45t51 -14.5q59 0 78.5 52
t19.5 156z" />
    <glyph glyph-name="one" unicode="1" horiz-adv-x="517" 
d="M477 15v-15h-417v15l116 89v451h-136v18l193 127h128v-596z" />
    <glyph glyph-name="two" unicode="2" horiz-adv-x="625" 
d="M565 515q0 -65 -32 -124.5t-85.5 -104t-109.5 -76.5t-118 -56v-2h276l56 72h11v-241l-106 17h-427v17q136 89 237.5 228t101.5 251q0 121 -106 121q-35 0 -72 -10l-110 -141h-11v245l131 -79q57 80 162 80q83 0 142.5 -54.5t59.5 -142.5z" />
    <glyph glyph-name="three" unicode="3" horiz-adv-x="646" 
d="M596 177q0 -76 -60 -133t-167 -57q-53 0 -98 22.5t-72 60.5l-129 -81v245h11l110 -141q63 -7 87 -7q120 0 120 106q0 50 -32 85.5t-99 35.5h-48v74h48q63 0 92.5 34t29.5 85q0 61 -28.5 85t-79.5 24q-26 0 -80 -8l-110 -141h-11v245l131 -79q57 80 158 80q100 0 158 -56
t58 -131q0 -66 -47 -115.5t-134 -58.5v-2q91 -3 141.5 -53t50.5 -119z" />
    <glyph glyph-name="four" unicode="4" horiz-adv-x="662" 
d="M627 257v-152h-121v-105h-185v105h-291v20l318 575h158v-443h121zM150 257h171v231z" />
    <glyph glyph-name="five" unicode="5" horiz-adv-x="616" 
d="M576 219q0 -104 -72.5 -167.5t-166.5 -63.5q-95 0 -154 74l-123 -73v245h11l110 -141q40 -7 68 -7q130 0 130 127q0 61 -35.5 105t-106.5 44q-61 0 -143 -26l28 364h420v-152h-342l-12 -164q53 59 152 59q94 0 165 -58.5t71 -165.5z" />
    <glyph glyph-name="six" unicode="6" horiz-adv-x="627" 
d="M582 230q0 -97 -65.5 -170t-181.5 -73q-76 0 -135 31.5t-92.5 84.5t-50.5 115.5t-17 131.5q0 50 9 99.5t29.5 97.5t50 85t74.5 60t99 23q47 0 86.5 -21.5t61.5 -63.5l115 80v-245h-11l-110 145q-33 6 -60 6q-84 0 -115 -58t-31 -168v-23q49 78 144 78q80 0 140 -58.5
t60 -156.5zM391 210q0 144 -122 144q-11 0 -31 -2v-50q0 -29 0.5 -49t2.5 -51t7.5 -52.5t14 -42.5t22.5 -32t33 -11q30 0 51.5 37.5t21.5 108.5z" />
    <glyph glyph-name="seven" unicode="7" horiz-adv-x="598" 
d="M563 700v-14l-197 -686h-240l364 548h-351l-63 -83h-11v245l106 -10h392z" />
    <glyph glyph-name="eight" unicode="8" horiz-adv-x="646" 
d="M606 194q0 -66 -44 -116t-109.5 -74t-139.5 -24q-110 0 -189 47.5t-79 132.5q0 61 52.5 101.5t141.5 40.5h9q-41 20 -68 37.5t-56.5 44t-44 62t-14.5 79.5q0 94 79.5 144.5t188.5 50.5q123 0 189.5 -49t66.5 -115q0 -65 -52.5 -98.5t-120.5 -33.5h-6l10 -5q31 -16 46 -24
t41.5 -25t40.5 -32t29.5 -36.5t22 -48.5t6.5 -59zM424 518q0 51 -25 87t-72 36q-32 0 -55 -21t-23 -55q0 -24 12 -44.5t36 -37t41 -25.5t47 -22l15 -7q24 38 24 89zM427 155q0 18 -8.5 34.5t-19 27.5t-34 25t-38 21.5t-45.5 22.5l-25 12q-42 -48 -42 -115q0 -51 29 -85.5
t82 -34.5q41 0 71 25t30 67z" />
    <glyph glyph-name="nine" unicode="9" horiz-adv-x="622" 
d="M582 352q0 -63 -14.5 -124.5t-44 -117t-81.5 -89.5t-119 -34q-48 0 -88.5 22t-62.5 63l-115 -80v245h11l110 -145q33 -6 60 -6q84 0 115 58t31 168v23q-49 -78 -140 -78q-94 0 -149 66.5t-55 156.5q0 96 65.5 165.5t187.5 69.5q76 0 134 -31.5t90.5 -84.5t48.5 -115
t16 -132zM384 350v65q0 223 -86 223q-31 0 -52 -33t-21 -103v-10q0 -144 122 -144q17 0 37 2z" />
    <glyph glyph-name="colon" unicode=":" horiz-adv-x="313" 
d="M273 393q0 -49 -34 -83t-82 -34q-49 0 -83 34t-34 83q0 48 34 82t83 34q48 0 82 -34t34 -82zM273 103q0 -49 -34 -83t-82 -34q-49 0 -83 34t-34 83q0 48 34 82t83 34q48 0 82 -34t34 -82z" />
    <glyph glyph-name="semicolon" unicode=";" horiz-adv-x="338" 
d="M288 393q0 -49 -34 -83t-82 -34q-49 0 -83 34t-34 83q0 48 34 82t83 34q48 0 82 -34t34 -82zM288 84q0 -87 -67 -155t-181 -68l62 145q-51 35 -51 97q0 48 34 82t83 34q55 0 87.5 -39.5t32.5 -95.5z" />
    <glyph glyph-name="less" unicode="&#x3c;" horiz-adv-x="524" 
d="M105 342l379 -236l-27 -41l-427 264v26l427 264l27 -42z" />
    <glyph glyph-name="equal" unicode="=" horiz-adv-x="603" 
d="M543 470v-52h-483v52h483zM543 265v-52h-483v52h483z" />
    <glyph glyph-name="greater" unicode="&#x3e;" horiz-adv-x="524" 
d="M494 355v-26l-427 -264l-27 41l379 236l-379 235l27 42z" />
    <glyph glyph-name="question" unicode="?" horiz-adv-x="599" 
d="M549 517q0 -55 -31 -107.5t-88 -89.5q-15 -10 -56 -32t-59 -36.5t-24 -33.5q42 -7 70.5 -39.5t28.5 -75.5q0 -49 -34 -83t-82 -34q-49 0 -83 34t-34 83q0 46 31.5 79.5t77.5 36.5l-68 161q31 12 51.5 21.5t49 27.5t43.5 41.5t15 50.5q0 53 -32.5 76.5t-83.5 23.5
q-35 0 -70 -11l-110 -145h-11v245l123 -75q55 80 166 80q96 0 153 -58.5t57 -139.5z" />
    <glyph glyph-name="at" unicode="@" horiz-adv-x="910" 
d="M850 368q0 -82 -24.5 -146.5t-64 -101.5t-84.5 -55.5t-92 -18.5q-51 0 -90.5 21t-53.5 57q-37 -40 -99 -40q-64 0 -98 46t-34 115q0 93 58 167.5t157 74.5q65 0 107 -45l190 46l-114 -311q-8 -20 -8 -36q0 -29 28 -29q70 0 121 70.5t51 185.5q0 118 -78 182.5t-200 64.5
q-175 0 -293.5 -111.5t-118.5 -272.5q0 -116 71 -194t205 -78q101 0 191 60l28 -41q-104 -69 -219 -69q-80 0 -143.5 26.5t-102.5 71.5t-59.5 102.5t-20.5 121.5q0 183 134 308.5t328 125.5q139 0 233.5 -77t94.5 -220zM426 144l93 280q-16 2 -22 2q-63 0 -98.5 -57.5
t-35.5 -127.5q0 -42 16 -69.5t47 -27.5z" />
    <glyph glyph-name="A" unicode="A" horiz-adv-x="769" 
d="M759 15v-15h-337v15l71 69l-39 99h-216l-26 -100l96 -68v-15h-298v15l93 93l254 602h54l262 -606zM257 257h169l-102 261z" />
    <glyph glyph-name="B" unicode="B" horiz-adv-x="750" 
d="M690 198q0 -80 -58 -139t-158 -59h-434v12l86 93v490l-86 93v12h434q95 0 149 -49.5t54 -115.5q0 -61 -43 -107.5t-122 -49.5v-2q86 -7 132 -57.5t46 -120.5zM508 493q0 55 -30 94t-89 39h-78v-245h151q46 31 46 112zM504 193q0 48 -24 81t-69 33h-100v-233h99
q44 0 69 35t25 84z" />
    <glyph glyph-name="C" unicode="C" horiz-adv-x="690" 
d="M620 235v-245l-112 92q-26 -47 -74.5 -70t-102.5 -23q-73 0 -130.5 30.5t-91.5 82.5t-51.5 115.5t-17.5 133.5t17.5 133t51.5 115t91.5 82.5t130.5 30.5q121 0 177 -93l112 91v-245h-11l-110 141q-27 5 -70 5q-101 0 -147.5 -69.5t-46.5 -190.5t46.5 -191t147.5 -70
q43 0 70 5l110 140h11z" />
    <glyph glyph-name="D" unicode="D" horiz-adv-x="757" 
d="M717 351q0 -67 -22 -129t-63.5 -112t-109 -80t-151.5 -30h-331v15l86 89v492l-86 89v15h331q85 0 152.5 -29.5t109 -79.5t63 -111.5t21.5 -128.5zM523 350q0 138 -37 207t-124 69h-51v-552h51q87 0 124 69t37 207z" />
    <glyph glyph-name="E" unicode="E" horiz-adv-x="698" 
d="M633 239v-239h-593v15l86 89v492l-86 89v15h573v-224h-11l-115 150h-176v-266l97 58l68 106h11v-344h-11l-69 115l-96 48v-269h195l116 165h11z" />
    <glyph glyph-name="F" unicode="F" horiz-adv-x="653" 
d="M613 700v-224h-11l-115 150h-176v-266l97 58l68 106h11v-344h-11l-69 115l-96 48v-239l86 -89v-15h-357v15l86 89v492l-86 89v15h573z" />
    <glyph glyph-name="G" unicode="G" horiz-adv-x="729" 
d="M709 345v-77h-75v-278l-159 79q-20 -40 -64 -60t-93 -20q-69 0 -123.5 32.5t-87.5 86t-50 116t-17 127.5q0 95 28.5 174t95.5 133t164 54q54 0 103 -23t77 -70l112 91v-245h-11l-110 141q-27 5 -75 5q-189 0 -189 -260q0 -56 9.5 -102.5t31.5 -87t63.5 -63.5t99.5 -23h10
v166l-92 89v15h352z" />
    <glyph glyph-name="H" unicode="H" horiz-adv-x="816" 
d="M776 15v-15h-319v15l58 74v224h-204v-224l58 -74v-15h-329v15l86 89v492l-86 89v15h329v-15l-58 -74v-224h204v224l-58 74v15h319v-15l-76 -89v-492z" />
    <glyph glyph-name="I" unicode="I" horiz-adv-x="437" 
d="M397 15v-15h-357v15l86 89v492l-86 89v15h356l1 -15l-86 -89v-492z" />
    <glyph glyph-name="J" unicode="J" horiz-adv-x="651" 
d="M631 700v-15l-85 -89v-442q0 -89 -57.5 -131.5t-143.5 -42.5q-109 0 -167 76l-120 -68v245h11l110 -155q23 -6 55 -6q54 0 90.5 19t36.5 61v444l-86 89v15h356z" />
    <glyph glyph-name="K" unicode="K" horiz-adv-x="798" 
d="M788 15v-15h-255l-160 290l-62 -65v-131l86 -79v-15h-357v15l86 89v492l-86 89v15h360l1 -15l-90 -79v-329l216 342l-73 66v15h329v-15l-100 -69l-180 -189l192 -346z" />
    <glyph glyph-name="L" unicode="L" horiz-adv-x="693" 
d="M633 239v-239h-593v15l86 89v492l-86 89v15h356l1 -15l-86 -89v-522h195l116 165h11z" />
    <glyph glyph-name="M" unicode="M" horiz-adv-x="969" 
d="M929 15v-15h-326v15l65 74v471l-192 -491h-52l-193 488v-473l96 -69v-15h-287v15l106 89v492l-106 89v15h311l149 -390l146 390h283v-15l-76 -89v-492z" />
    <glyph glyph-name="N" unicode="N" horiz-adv-x="808" 
d="M778 700v-15l-106 -89v-607h-54l-397 482v-387l111 -69v-15h-302v15l106 89v469l-96 116v11h222l325 -401v317l-111 69v15h302z" />
    <glyph glyph-name="O" unicode="O" horiz-adv-x="797" 
d="M757 349q0 -172 -103.5 -269.5t-253.5 -97.5q-97 0 -177.5 41t-131.5 126t-51 200q0 171 104.5 268.5t255.5 97.5q72 0 136 -24t113.5 -69t78.5 -115.5t29 -157.5zM562 350q0 60 -6.5 106t-23 88.5t-50.5 65.5t-84 23t-84 -23t-50.5 -65.5t-23 -88.5t-6.5 -106t6.5 -106
t23 -89.5t50.5 -66.5t84 -23t84 23t50.5 66.5t23 89.5t6.5 106z" />
    <glyph glyph-name="P" unicode="P" horiz-adv-x="718" 
d="M673 485q0 -87 -62.5 -151t-175.5 -64h-124v-176l96 -80v-14h-367v14l86 90v492l-86 90v14h395q113 0 175.5 -63.5t62.5 -151.5zM480 485q0 59 -26.5 100t-77.5 41h-65v-282h65q51 0 77.5 41.5t26.5 99.5z" />
    <glyph glyph-name="Q" unicode="Q" horiz-adv-x="797" 
d="M800 -110v-16l-298 -40l-91 148h-11q-97 0 -177.5 41t-131.5 126t-51 200q0 171 104.5 268.5t255.5 97.5q72 0 136 -24t113.5 -69t78.5 -115.5t29 -157.5q0 -112 -45.5 -193t-124.5 -126l61 -75zM562 350q0 60 -6.5 106t-23 89t-50.5 66t-84 23t-84 -23t-50.5 -66
t-23 -89t-6.5 -106t6.5 -106t23 -89.5t50.5 -66.5t84 -23t84 23t50.5 66.5t23 89.5t6.5 106z" />
    <glyph glyph-name="R" unicode="R" horiz-adv-x="763" 
d="M743 15v-15h-243l-148 281h-41v-187l66 -79v-15h-337v15l86 89v492l-86 89v15h439q95 0 149.5 -56t54.5 -132q0 -67 -43.5 -118.5t-126.5 -62.5l138 -250zM509 472q0 63 -31.5 108.5t-89.5 45.5h-77v-276h173q25 44 25 122z" />
    <glyph glyph-name="S" unicode="S" horiz-adv-x="660" 
d="M600 202q0 -102 -71 -160.5t-165 -58.5q-56 0 -104.5 23t-74.5 66l-125 -83v245h11l110 -141q36 -6 74 -6q65 0 110.5 18.5t45.5 62.5q0 34 -18.5 59t-47.5 39.5t-64 27.5t-70.5 29.5t-64.5 39t-47.5 62t-18.5 92.5q0 91 63.5 144.5t147.5 53.5q52 0 96.5 -22t72.5 -65
l120 82v-245h-11l-110 145q-36 4 -72 4q-124 0 -124 -65q0 -32 25 -56t62.5 -37.5t81 -34t81 -44t62.5 -69t25 -106.5z" />
    <glyph glyph-name="T" unicode="T" horiz-adv-x="715" 
d="M665 700v-224h-11l-115 150h-89v-522l86 -89v-15h-357v15l86 89v522h-89l-115 -150h-11v224h615z" />
    <glyph glyph-name="U" unicode="U" horiz-adv-x="843" 
d="M813 700v-15l-106 -89v-401q0 -100 -88 -156t-207 -56q-120 0 -208 56t-88 156v401l-86 89v15h356l1 -15l-86 -89v-401q0 -60 46.5 -93t110.5 -33q66 0 115 33.5t49 93.5v420l-96 69v15h287z" />
    <glyph glyph-name="V" unicode="V" horiz-adv-x="789" 
d="M779 700v-15l-93 -93l-271 -605h-54l-265 609l-86 89v15h350v-15l-76 -69l177 -425l92 426l-91 68v15h317z" />
    <glyph glyph-name="W" unicode="W" horiz-adv-x="1060" 
d="M1050 700v-15l-93 -93l-238 -605h-54l-150 408l-142 -408h-54l-223 609l-86 89v15h333v-15l-71 -69l137 -407l53 398l-68 78v15h271v-15l-65 -65l157 -430l65 427l-96 68v15h324z" />
    <glyph glyph-name="X" unicode="X" horiz-adv-x="737" 
d="M717 15v-15h-340v15l83 71l-152 207l-77 -210l83 -68v-15h-294v15l266 308l-266 362v15h340v-15l-83 -71l151 -206l78 209l-83 68v15h294v-15l-267 -307z" />
    <glyph glyph-name="Y" unicode="Y" horiz-adv-x="774" 
d="M764 700v-15l-93 -93l-200 -368v-120l86 -89v-15h-357v15l86 89v116l-190 376l-86 89v15h361v-15l-84 -69l169 -347l81 348l-86 68v15h313z" />
    <glyph glyph-name="Z" unicode="Z" horiz-adv-x="701" 
d="M649 700v-15l-354 -611h214l116 165h11v-239h-586v15l359 611h-198l-115 -150h-11v224h564z" />
    <glyph glyph-name="bracketleft" unicode="[" horiz-adv-x="368" 
d="M368 -85v-52h-288v857h288v-52h-103v-753h103z" />
    <glyph glyph-name="backslash" unicode="\" horiz-adv-x="356" 
d="M44 735l312 -730l-45 -19l-311 731z" />
    <glyph glyph-name="bracketright" unicode="]" horiz-adv-x="368" 
d="M288 720v-857h-288v52h103v753h-103v52h288z" />
    <glyph glyph-name="asciicircum" unicode="^" horiz-adv-x="596" 
d="M297 473l-247 -184l-10 8l250 412h16l250 -412l-10 -8z" />
    <glyph glyph-name="underscore" unicode="_" horiz-adv-x="370" 
d="M340 -67v-74h-310v74h310z" />
    <glyph glyph-name="grave" unicode="`" 
d="M246 775l195 -200l-5 -10l-276 44z" />
    <glyph glyph-name="a" unicode="a" 
d="M591 80v-13l-256 -85l-27 88q-26 -38 -66.5 -57.5t-81.5 -19.5q-55 0 -92.5 34t-37.5 94t44.5 106.5t120.5 46.5q57 0 105 -25v107q0 29 -14.5 44t-37.5 15q-24 0 -38 -6l-122 -118h-11v205l128 -65q25 37 65 56.5t79 19.5q56 0 96.5 -39t40.5 -104v-259zM300 83v152
q-35 -4 -61 -35t-26 -63q0 -59 54 -59q15 0 33 5z" />
    <glyph glyph-name="b" unicode="b" horiz-adv-x="588" 
d="M553 250q0 -67 -18.5 -123.5t-62.5 -96t-108 -39.5q-43 0 -74 24.5t-44 65.5l-180 -91v638l-116 25v12l301 102v-350q13 41 45.5 66.5t72.5 25.5q93 0 138.5 -76t45.5 -183zM358 248q0 162 -80 162q-14 0 -27 -5v-314q12 -5 27 -5q80 0 80 162z" />
    <glyph glyph-name="c" unicode="c" horiz-adv-x="523" 
d="M476 116l2 -11q-30 -57 -83.5 -87t-115.5 -30q-46 0 -89 17t-78 49.5t-56 86t-21 119.5q0 61 19.5 116t64.5 94t107 39q42 0 78 -20.5t56 -58.5l113 66v-205h-11l-110 122q-16 4 -32 4q-52 0 -74.5 -37.5t-22.5 -117.5q0 -87 46 -124t114 -37q42 0 93 15z" />
    <glyph glyph-name="d" unicode="d" horiz-adv-x="627" 
d="M627 80v-12l-246 -86l-40 99q-12 -41 -43.5 -65.5t-74.5 -24.5q-64 0 -108 39.5t-62.5 96t-18.5 123.5q0 107 45.5 183t138.5 76q41 0 73.5 -25.5t44.5 -66.5v211l-117 25v12l302 102v-662zM336 91v314q-13 5 -27 5q-80 0 -80 -162t80 -162q15 0 27 5z" />
    <glyph glyph-name="e" unicode="e" horiz-adv-x="530" 
d="M495 235h-271q8 -72 51 -103t104 -31q43 0 94 15l2 -11q-29 -57 -82.5 -87t-115.5 -30q-99 0 -170.5 67t-71.5 196q0 101 65.5 178.5t173.5 77.5q104 0 162.5 -70t58.5 -202zM223 246l97 74v11q0 103 -44 103q-53 0 -53 -168v-20z" />
    <glyph glyph-name="f" unicode="f" horiz-adv-x="448" 
d="M464 723v-158h-10l-166 154v-234h145v-74h-145v-337l137 -60v-14h-408v14l86 90v273l-93 95v13h93v120q0 78 52 111t134 33q93 0 175 -26z" />
    <glyph glyph-name="g" unicode="g" horiz-adv-x="631" 
d="M621 564v-196l-174 88q54 -48 54 -120q0 -73 -58 -125t-172 -52q-66 0 -117 19l46 -65l214 -11q77 -4 121 -44.5t44 -96.5q0 -79 -81 -139t-228 -60q-123 0 -199 38.5t-76 86.5q0 77 190 86q-53 6 -82.5 37.5t-29.5 71.5q0 32 19 59.5t55 39.5q-54 23 -81 64.5t-27 90.5
q0 73 58 124t172 51q115 0 177 -54zM322 335q0 113 -52 113t-52 -113t52 -113t52 113zM407 -95q0 24 -20 41t-58 19l-133 7l-8 1q-1 -17 -1 -25q0 -121 107 -121q52 0 82.5 24t30.5 54z" />
    <glyph glyph-name="h" unicode="h" horiz-adv-x="650" 
d="M640 14v-14h-261v351q0 62 -50 62q-24 0 -42 -15v-324l48 -60v-14h-319v14l86 90v524l-117 25v12l302 102v-350q20 44 57.5 67t81.5 23q57 0 97.5 -35.5t40.5 -97.5v-300z" />
    <glyph glyph-name="i" unicode="i" horiz-adv-x="388" 
d="M317 659q0 -49 -34 -83t-82 -34q-49 0 -83 34t-34 83q0 48 34 82t83 34q48 0 82 -34t34 -82zM378 14v-14h-357v14l86 90v277l-107 25v12l292 99v-413z" />
    <glyph glyph-name="j" unicode="j" horiz-adv-x="382" 
d="M327 659q0 -49 -34 -83t-82 -34q-49 0 -83 34t-34 83q0 48 34 82t83 34q48 0 82 -34t34 -82zM302 517v-626q0 -56 -49 -93.5t-113 -37.5q-68 0 -111 42v10q33 7 60.5 36.5t27.5 65.5v467l-107 25v12z" />
    <glyph glyph-name="k" unicode="k" horiz-adv-x="660" 
d="M650 14v-14h-240l-120 224l-3 -2v-148l37 -60v-14h-308v14l86 90v524l-117 25v12l302 102v-525l119 146l-68 84v14h288v-14l-193 -140l141 -258z" />
    <glyph glyph-name="l" unicode="l" horiz-adv-x="384" 
d="M374 14v-14h-358v14l86 90v524l-117 25v12l302 102v-693z" />
    <glyph glyph-name="m" unicode="m" horiz-adv-x="914" 
d="M904 12v-12h-261v371q0 14 -11.5 23.5t-28.5 9.5q-28 0 -43 -6q2 -14 2 -24v-300l41 -62v-12h-226v371q0 14 -11.5 23.5t-28.5 9.5q-27 0 -41 -6v-324l41 -62v-12h-312v12l86 92v275l-106 25v12l261 88l25 -93q20 44 64.5 69.5t87.5 25.5q41 0 73 -24t42 -70q20 44 64 69
t87 25q50 0 84.5 -34t34.5 -98v-300z" />
    <glyph glyph-name="n" unicode="n" horiz-adv-x="659" 
d="M649 14v-14h-261v351q0 62 -50 62q-24 0 -42 -15v-324l48 -60v-14h-319v14l86 90v275l-106 25v12l261 88l25 -93q21 47 60.5 71.5t84.5 24.5q56 0 96.5 -36t40.5 -97v-300z" />
    <glyph glyph-name="o" unicode="o" horiz-adv-x="594" 
d="M559 250q0 -106 -69 -181.5t-193 -75.5t-193 75.5t-69 181.5t69 181.5t193 75.5t193 -75.5t69 -181.5zM355 250q0 82 -11.5 133t-47.5 51t-47.5 -51t-11.5 -133t11.5 -133t47.5 -51t47.5 51t11.5 133z" />
    <glyph glyph-name="p" unicode="p" horiz-adv-x="619" 
d="M584 250q0 -67 -18.5 -123.5t-62.5 -96t-108 -39.5q-82 0 -114 78v-185l87 -92v-12h-357v12l86 92v500l-107 25v12l261 86l29 -90q13 41 46 66.5t74 25.5q93 0 138.5 -76t45.5 -183zM388 247q0 162 -80 162q-14 0 -27 -5v-314q12 -5 27 -5q80 0 80 162z" />
    <glyph glyph-name="q" unicode="q" horiz-adv-x="599" 
d="M337 91v314q-13 5 -27 5q-80 0 -80 -162t80 -162q15 0 27 5zM639 -151v-12l-302 -102v341q-16 -42 -49 -63.5t-74 -21.5q-49 0 -85.5 24t-56 64t-28.5 83t-9 88q0 107 45.5 183t138.5 76q41 0 73.5 -25.5t44.5 -66.5l185 92v-635z" />
    <glyph glyph-name="r" unicode="r" horiz-adv-x="487" 
d="M462 494l-6 -177l-160 81v-324l106 -60v-14h-377v14l86 90v275l-106 25v12l261 88l25 -93q25 40 71 61.5t100 21.5z" />
    <glyph glyph-name="s" unicode="s" horiz-adv-x="531" 
d="M486 139q0 -72 -54 -114t-129 -42q-53 0 -96 21t-65 60l-97 -68v208h11l94 -124q24 -8 64 -8q76 0 76 40q0 19 -17.5 34.5t-43.5 26t-56.5 26t-56.5 33t-43.5 48.5t-17.5 71q0 74 51.5 115.5t120.5 41.5q47 0 86 -19.5t56 -56.5l102 67v-207h-11l-99 125q-24 6 -55 6
q-61 0 -61 -40q0 -22 25 -40t60 -33.5t70.5 -34.5t60.5 -54t25 -82z" />
    <glyph glyph-name="t" unicode="t" horiz-adv-x="469" 
d="M444 485v-74h-162v-254q0 -69 104 -69q20 0 37 5l2 -13q-25 -46 -74 -72t-103 -26q-65 0 -108 39t-43 115v242l-92 94v13h100l165 193h12v-193h162z" />
    <glyph glyph-name="u" unicode="u" horiz-adv-x="670" 
d="M670 81v-12l-261 -89l-23 90q-21 -46 -61.5 -69.5t-85.5 -23.5q-56 0 -96.5 35.5t-40.5 97.5v271l-107 25v12l292 99v-384q0 -62 50 -62q24 0 42 15v295l-52 25v12l237 99v-410z" />
    <glyph glyph-name="v" unicode="v" horiz-adv-x="629" 
d="M629 485v-12l-82 -86l-224 -401h-45l-203 402l-85 85v12h326v-12l-46 -69l112 -248l24 248l-52 69v12h275z" />
    <glyph glyph-name="w" unicode="w" horiz-adv-x="931" 
d="M931 485v-12l-82 -86l-194 -401h-45l-136 251l-151 -251h-45l-203 402l-85 85v12h312v-12l-38 -69l124 -261l33 192l-82 150h281v-12l-47 -66l134 -262l7 259l-54 69v12h271z" />
    <glyph glyph-name="x" unicode="x" horiz-adv-x="638" 
d="M618 12v-12h-310v12l42 69l-107 128l-28 -128l43 -69v-12h-238v12l213 209l-213 252v12h312v-12l-44 -69l105 -125l29 125l-42 69v12h238v-12l-213 -208z" />
    <glyph glyph-name="y" unicode="y" horiz-adv-x="629" 
d="M629 485v-12l-82 -86l-257 -521q-55 -111 -160 -111q-13 0 -36 5l-79 173q65 -28 150 -28q93 0 124 43l-211 440l-88 85v12h327v-12l-46 -69l121 -259l15 259l-53 69v12h275z" />
    <glyph glyph-name="z" unicode="z" horiz-adv-x="543" 
d="M513 485v-12l-280 -451l165 67l85 131h11v-220h-469v12l276 451l-145 -63l-89 -145h-11v230h457z" />
    <glyph glyph-name="braceleft" unicode="{" horiz-adv-x="399" 
d="M399 -106v-47q-43 2 -79 7t-77.5 20.5t-69.5 39.5t-47 66.5t-19 98.5v101q0 44 -24 66t-63 24v41q39 2 63 24t24 66v101q0 56 19 98.5t47 66.5t69.5 39.5t77.5 20.5t79 7v-47q-49 0 -78 -29.5t-29 -91.5v-62q0 -45 -15.5 -81.5t-36 -57.5t-51.5 -38t-52.5 -24t-48.5 -13
q204 -44 204 -213v-62q0 -63 29 -92t78 -29z" />
    <glyph glyph-name="bar" unicode="|" horiz-adv-x="212" 
d="M132 838v-975h-52v975h52z" />
    <glyph glyph-name="braceright" unicode="}" horiz-adv-x="399" 
d="M379 311v-41q-39 -2 -63 -24t-24 -66v-101q0 -56 -19 -98.5t-47 -66.5t-69.5 -39.5t-77.5 -20.5t-79 -7v47q48 0 77.5 29t29.5 92v62q0 169 204 214q-27 6 -48 13t-52.5 23.5t-52 38t-36 57.5t-15.5 81v62q0 62 -29.5 91.5t-77.5 29.5v47q43 -2 79 -7t77.5 -20.5
t69.5 -39.5t47 -66.5t19 -98.5v-101q0 -44 24 -66t63 -24z" />
    <glyph glyph-name="asciitilde" unicode="~" horiz-adv-x="631" 
d="M571 375q0 -79 -57 -135.5t-139 -56.5q-40 0 -82 15l-121 45l-88 -85q-24 51 -24 98q0 79 59 134t141 55q41 0 77 -14l121 -45l88 85q25 -47 25 -96z" />
    <glyph glyph-name="exclamdown" unicode="&#xa1;" horiz-adv-x="325" 
d="M171 301l114 -481h-245l114 481q-45 4 -76 37t-31 79q0 49 34 83t83 34q48 0 82 -34t34 -83q0 -46 -31.5 -79.5t-77.5 -36.5z" />
    <glyph glyph-name="cent" unicode="&#xa2;" horiz-adv-x="514" 
d="M472 116l2 -11q-39 -74 -112 -103v-121h-48v108q-18 -3 -35 -3q-98 0 -171 72t-73 202q0 97 50.5 173t142.5 76q49 0 86 -25v129h48v-183l111 66v-200h-12l-99 102v-296q6 -1 17 -1q42 0 93 15zM314 111v304q-49 -2 -70 -38.5t-21 -114.5q0 -121 91 -151z" />
    <glyph glyph-name="sterling" unicode="&#xa3;" horiz-adv-x="645" 
d="M565 239v-256l-106 17h-409v15q111 33 111 161q0 56 -30 162h-81v76h59q-4 15 -7.5 40t-5.5 43l-1 18q0 102 58 152.5t135 50.5q48 0 91 -22.5t65 -61.5l117 76v-245h-11l-110 145q-33 10 -65 10q-93 0 -93 -102q0 -44 20 -104h123v-76h-102q8 -34 8 -67
q0 -68 -41.5 -115t-117.5 -82h266l116 165h11z" />
    <glyph glyph-name="yen" unicode="&#xa5;" horiz-adv-x="814" 
d="M774 700v-15l-93 -93l-190 -332h153v-52h-153v-104l86 -89v-15h-357v15l86 89v104h-153v52h153l-180 336l-86 89v15h356v-15l-71 -69l145 -304l77 305l-91 68v15h318z" />
    <glyph glyph-name="brokenbar" unicode="&#xa6;" horiz-adv-x="212" 
d="M132 838v-369l-52 -40v409h52zM132 273v-410h-52v370z" />
    <glyph glyph-name="section" unicode="&#xa7;" horiz-adv-x="516" 
d="M456 611l-42 -27q-56 90 -141 90q-31 0 -57.5 -21.5t-26.5 -74.5q0 -43 27.5 -80.5t66.5 -69t77.5 -66.5t66 -89.5t27.5 -122.5q0 -94 -62 -154t-143 -60q-53 0 -103 28t-86 85l42 27q58 -90 147 -90q32 0 60.5 21.5t28.5 74.5q0 34 -14.5 64t-38 52.5t-52 45t-57 48
t-52 54.5t-38 71.5t-14.5 92.5q0 94 60 154t141 60q111 0 183 -113zM405 150q0 44 -14.5 81.5t-38 64.5t-51.5 52t-56.5 48.5t-52 48.5t-38 59t-14.5 74l1 14q-19 -38 -19 -82q0 -60 27.5 -107t66 -79.5t77.5 -64t66.5 -76.5t27.5 -101q0 -11 -1 -16q19 36 19 84z" />
    <glyph glyph-name="dieresis" unicode="&#xa8;" horiz-adv-x="565" 
d="M454 682q0 -24 -16.5 -40.5t-40.5 -16.5q-25 0 -42 16t-17 41q0 24 17 40.5t42 16.5q23 0 40 -17t17 -40zM246 682q0 -24 -16.5 -40.5t-40.5 -16.5q-25 0 -42 16t-17 41q0 24 17 40.5t42 16.5q23 0 40 -17t17 -40z" />
    <glyph glyph-name="copyright" unicode="&#xa9;" horiz-adv-x="859" 
d="M804 360q0 -155 -110 -264.5t-265 -109.5t-264.5 109.5t-109.5 264.5t109.5 264.5t264.5 109.5t265 -109.5t110 -264.5zM764 360q0 139 -98 237t-237 98t-236.5 -98t-97.5 -237t97.5 -237t236.5 -98t237 98t98 237zM574 292v-153l-69 57q-33 -52 -106 -52
q-86 0 -129.5 64t-43.5 153t43.5 152.5t129.5 63.5q72 0 106 -52l69 57v-153h-14l-64 77q-17 4 -37 4q-104 0 -104 -150q0 -149 104 -149q20 0 37 4l64 77h14z" />
    <glyph glyph-name="guillemotleft" unicode="&#xab;" horiz-adv-x="720" 
d="M586 265l84 -247l-8 -10l-312 250v16l312 250l8 -10zM286 265l84 -247l-8 -10l-312 250v16l312 250l8 -10z" />
    <glyph glyph-name="registered" unicode="&#xae;" horiz-adv-x="859" 
d="M804 360q0 -155 -110 -264.5t-265 -109.5t-264.5 109.5t-109.5 264.5t109.5 264.5t264.5 109.5t265 -109.5t110 -264.5zM764 360q0 139 -98 237t-237 98t-236.5 -98t-97.5 -237t97.5 -237t236.5 -98t237 98t98 237zM654 170v-15h-157l-80 165h-16v-103l39 -48v-14h-207
v15l50 53v284l-50 53v15h264q57 0 90.5 -34.5t33.5 -80.5q0 -39 -25.5 -70t-73.5 -40l77 -139zM509 436q0 36 -17 61t-49 25h-42v-152h94q14 30 14 66z" />
    <glyph glyph-name="macron" unicode="&#xaf;" horiz-adv-x="514" 
d="M374 697v-35h-234v35h234z" />
    <glyph glyph-name="degree" unicode="&#xb0;" horiz-adv-x="348" 
d="M308 567q0 -56 -39 -95.5t-94 -39.5q-56 0 -95.5 39.5t-39.5 95.5q0 55 39.5 94t95.5 39q55 0 94 -39t39 -94zM276 567q0 41 -30 71t-71 30q-43 0 -72.5 -30t-29.5 -71q0 -43 29.5 -72.5t72.5 -29.5q41 0 71 29.5t30 72.5z" />
    <glyph glyph-name="twosuperior" unicode="&#xb2;" horiz-adv-x="394" 
d="M344 486v-142l-44 6h-250v16q65 31 113.5 93.5t48.5 138.5q0 30 -14 46.5t-39 16.5q-13 0 -20 -2l-42 -80h-11v130l57 -32q32 33 79 33q45 0 78 -30t33 -80q0 -61 -56.5 -104t-121.5 -58v-3h141l37 51h11z" />
    <glyph glyph-name="threesuperior" unicode="&#xb3;" horiz-adv-x="376" 
d="M326 436q0 -45 -38 -71.5t-88 -26.5q-62 0 -93 36l-57 -32v130h11l52 -83q14 -2 25 -2q29 0 48 14.5t19 44.5q0 60 -79 60h-11v39h11q45 0 59.5 18t14.5 46q0 26 -15 40.5t-38 14.5q-17 0 -24 -2l-52 -82h-11v130l57 -32q32 32 89 32q46 0 80.5 -24.5t34.5 -68.5
q0 -35 -27 -60t-82 -29v-2q55 0 84.5 -25t29.5 -65z" />
    <glyph glyph-name="acute" unicode="&#xb4;" 
d="M355 775l86 -166l-276 -44l-5 10z" />
    <glyph glyph-name="paragraph" unicode="&#xb6;" horiz-adv-x="602" 
d="M572 -75v-15h-166v735h-90v-735h-166v15l106 89v287h-7q-83 0 -141 58.5t-58 140.5q0 83 58 141.5t141 58.5h323v-15l-106 -89v-582z" />
    <glyph glyph-name="periodcentered" unicode="&#xb7;" horiz-adv-x="313" 
d="M273 303q0 -49 -34 -83t-82 -34q-49 0 -83 34t-34 83q0 48 34 82t83 34q48 0 82 -34t34 -82z" />
    <glyph glyph-name="cedilla" unicode="&#xb8;" horiz-adv-x="514" 
d="M384 -154q0 -67 -57 -120.5t-160 -53.5l47 103l-47 88q6 46 37.5 71t70.5 25q44 0 76.5 -30t32.5 -83z" />
    <glyph glyph-name="onesuperior" unicode="&#xb9;" horiz-adv-x="333" 
d="M293 363v-13h-238v12l60 39v207h-65v11l116 81h69v-299z" />
    <glyph glyph-name="guillemotright" unicode="&#xbb;" horiz-adv-x="720" 
d="M670 274v-16l-312 -250l-8 10l84 247l-84 249l8 10zM370 274v-16l-312 -250l-8 10l84 247l-84 249l8 10z" />
    <glyph glyph-name="onequarter" unicode="&#xbc;" horiz-adv-x="771" 
d="M731 118v-60h-56v-58h-119v58h-151v32l164 265h106v-237h56zM614 706l25 -18l-493 -696l-26 19zM293 363v-13h-238v12l60 39v207h-65v11l116 81h69v-299zM448 118h108v139z" />
    <glyph glyph-name="onehalf" unicode="&#xbd;" horiz-adv-x="772" 
d="M728 136v-142l-44 6h-250v16q65 31 113.5 93.5t48.5 138.5q0 30 -14 46.5t-39 16.5q-13 0 -20 -2l-42 -80h-11v130l57 -32q32 33 79 33q45 0 78 -30t33 -80q0 -61 -56.5 -104t-121.5 -58v-3h141l37 51h11zM614 706l25 -18l-493 -696l-26 19zM293 363v-13h-238v12l60 39
v207h-65v11l116 81h69v-299z" />
    <glyph glyph-name="threequarters" unicode="&#xbe;" horiz-adv-x="790" 
d="M769 118v-60h-56v-58h-119v58h-151v32l164 265h106v-237h56zM652 706l25 -18l-493 -696l-26 19zM326 436q0 -45 -38 -71.5t-88 -26.5q-62 0 -93 36l-57 -32v130h11l52 -83q14 -2 25 -2q29 0 48 14.5t19 44.5q0 60 -79 60h-11v39h11q45 0 59.5 18t14.5 46q0 26 -15 40.5
t-38 14.5q-17 0 -24 -2l-52 -82h-11v130l57 -32q32 32 89 32q46 0 80.5 -24.5t34.5 -68.5q0 -35 -27 -60t-82 -29v-2q55 0 84.5 -25t29.5 -65zM486 118h108v139z" />
    <glyph glyph-name="questiondown" unicode="&#xbf;" horiz-adv-x="599" 
d="M549 56v-245l-123 75q-55 -80 -166 -80q-96 0 -153 58.5t-57 139.5q0 55 31 107.5t88 89.5q15 10 56 32t59 36.5t24 33.5q-42 7 -70.5 39.5t-28.5 75.5q0 49 34 83t82 34q49 0 83 -34t34 -83q0 -46 -31.5 -79.5t-77.5 -36.5l68 -161q-31 -12 -51.5 -21.5t-49 -27.5
t-43.5 -41.5t-15 -50.5q0 -53 32.5 -76.5t83.5 -23.5q35 0 70 11l110 145h11z" />
    <glyph glyph-name="Agrave" unicode="&#xc0;" horiz-adv-x="769" 
d="M759 15v-15h-337v15l71 69l-39 99h-216l-26 -100l96 -68v-15h-298v15l93 93l254 602h54l262 -606zM257 257h169l-102 261zM356 965l195 -200l-5 -10l-276 44z" />
    <glyph glyph-name="Aacute" unicode="&#xc1;" horiz-adv-x="769" 
d="M759 15v-15h-337v15l71 69l-39 99h-216l-26 -100l96 -68v-15h-298v15l93 93l254 602h54l262 -606zM257 257h169l-102 261zM445 965l86 -166l-276 -44l-5 10z" />
    <glyph glyph-name="Acircumflex" unicode="&#xc2;" horiz-adv-x="769" 
d="M759 15v-15h-337v15l71 69l-39 99h-216l-26 -100l96 -68v-15h-298v15l93 93l254 602h54l262 -606zM257 257h169l-102 261zM389 950l155 -197l-6 -10l-156 52l-156 -52l-6 10l155 197h14z" />
    <glyph glyph-name="Atilde" unicode="&#xc3;" horiz-adv-x="769" 
d="M759 15v-15h-337v15l71 69l-39 99h-216l-26 -100l96 -68v-15h-298v15l93 93l254 602h54l262 -606zM257 257h169l-102 261zM556 862q0 -51 -29.5 -83t-79.5 -32q-29 0 -63 12l-81 30l-67 -47q-11 30 -11 62q0 51 31 82t80 31q29 0 62 -12l81 -30l67 47q10 -30 10 -60z" />
    <glyph glyph-name="Adieresis" unicode="&#xc4;" horiz-adv-x="769" 
d="M759 15v-15h-337v15l71 69l-39 99h-216l-26 -100l96 -68v-15h-298v15l93 93l254 602h54l262 -606zM257 257h169l-102 261zM544 822q0 -24 -16.5 -40.5t-40.5 -16.5q-25 0 -42 16t-17 41q0 24 17 40.5t42 16.5q23 0 40 -17t17 -40zM336 822q0 -24 -16.5 -40.5t-40.5 -16.5
q-25 0 -42 16t-17 41q0 24 17 40.5t42 16.5q23 0 40 -17t17 -40z" />
    <glyph glyph-name="Aring" unicode="&#xc5;" horiz-adv-x="769" 
d="M759 15v-15h-337v15l71 69l-39 99h-216l-26 -100l96 -68v-15h-298v15l93 93l254 602h54l262 -606zM257 257h169l-102 261zM464 842q0 -37 -26 -63.5t-63 -26.5t-62.5 26t-25.5 63q0 36 25.5 62t62.5 26t63 -26t26 -61zM434 842q0 23 -17.5 40t-41.5 17t-41 -17t-17 -41
q0 -25 17 -42t41 -17t41.5 17.5t17.5 42.5z" />
    <glyph glyph-name="AE" unicode="&#xc6;" horiz-adv-x="982" 
d="M917 239v-239h-509v15l71 69l-49 179h-159l-39 -180l96 -68v-15h-318v15l93 93l243 592h545v-224h-11l-115 150h-250l73 -265l107 57l68 106h11v-344h-11l-69 115l-101 47l73 -268h124l116 165h11zM287 337h123l-68 254h-2z" />
    <glyph glyph-name="Ccedilla" unicode="&#xc7;" horiz-adv-x="690" 
d="M620 235v-245l-112 92q-26 -47 -74.5 -70t-102.5 -23q-73 0 -130.5 30.5t-91.5 82.5t-51.5 115.5t-17.5 133.5t17.5 133t51.5 115t91.5 82.5t130.5 30.5q121 0 177 -93l112 91v-245h-11l-110 141q-27 5 -70 5q-101 0 -147.5 -69.5t-46.5 -190.5t46.5 -191t147.5 -70
q43 0 70 5l110 140h11zM444 -154q0 -67 -57 -120.5t-160 -53.5l47 103l-47 88q6 46 37.5 71t70.5 25q44 0 76.5 -30t32.5 -83z" />
    <glyph glyph-name="Egrave" unicode="&#xc8;" horiz-adv-x="698" 
d="M633 239v-239h-593v15l86 89v492l-86 89v15h573v-224h-11l-115 150h-176v-266l97 58l68 106h11v-344h-11l-69 115l-96 48v-269h195l116 165h11zM306 965l195 -200l-5 -10l-276 44z" />
    <glyph glyph-name="Eacute" unicode="&#xc9;" horiz-adv-x="698" 
d="M633 239v-239h-593v15l86 89v492l-86 89v15h573v-224h-11l-115 150h-176v-266l97 58l68 106h11v-344h-11l-69 115l-96 48v-269h195l116 165h11zM415 975l86 -166l-276 -44l-5 10z" />
    <glyph glyph-name="Ecircumflex" unicode="&#xca;" horiz-adv-x="698" 
d="M633 239v-239h-593v15l86 89v492l-86 89v15h573v-224h-11l-115 150h-176v-266l97 58l68 106h11v-344h-11l-69 115l-96 48v-269h195l116 165h11zM379 950l155 -197l-6 -10l-156 52l-156 -52l-6 10l155 197h14z" />
    <glyph glyph-name="Edieresis" unicode="&#xcb;" horiz-adv-x="698" 
d="M633 239v-239h-593v15l86 89v492l-86 89v15h573v-224h-11l-115 150h-176v-266l97 58l68 106h11v-344h-11l-69 115l-96 48v-269h195l116 165h11zM514 822q0 -24 -16.5 -40.5t-40.5 -16.5q-25 0 -42 16t-17 41q0 24 17 40.5t42 16.5q23 0 40 -17t17 -40zM306 822
q0 -24 -16.5 -40.5t-40.5 -16.5q-25 0 -42 16t-17 41q0 24 17 40.5t42 16.5q23 0 40 -17t17 -40z" />
    <glyph glyph-name="Igrave" unicode="&#xcc;" horiz-adv-x="437" 
d="M397 15v-15h-357v15l86 89v492l-86 89v15h356l1 -15l-86 -89v-492zM176 965l195 -200l-5 -10l-276 44z" />
    <glyph glyph-name="Iacute" unicode="&#xcd;" horiz-adv-x="437" 
d="M397 15v-15h-357v15l86 89v492l-86 89v15h356l1 -15l-86 -89v-492zM285 965l86 -166l-276 -44l-5 10z" />
    <glyph glyph-name="Icircumflex" unicode="&#xce;" horiz-adv-x="437" 
d="M397 15v-15h-357v15l86 89v492l-86 89v15h356l1 -15l-86 -89v-492zM224 950l155 -197l-6 -10l-156 52l-156 -52l-6 10l155 197h14z" />
    <glyph glyph-name="Idieresis" unicode="&#xcf;" horiz-adv-x="437" 
d="M397 15v-15h-357v15l86 89v492l-86 89v15h356l1 -15l-86 -89v-492zM380 822q0 -24 -16.5 -40.5t-40.5 -16.5q-25 0 -42 16t-17 41q0 24 17 40.5t42 16.5q23 0 40 -17t17 -40zM172 822q0 -24 -16.5 -40.5t-40.5 -16.5q-25 0 -42 16t-17 41q0 24 17 40.5t42 16.5
q23 0 40 -17t17 -40z" />
    <glyph glyph-name="Eth" unicode="&#xd0;" horiz-adv-x="757" 
d="M717 351q0 -67 -22 -129t-63.5 -112t-109 -80t-151.5 -30h-331v15l86 89v159l-65 -44l-19 30l84 57v290l-86 89v15h331q85 0 152.5 -29.5t109 -79.5t63 -111.5t21.5 -128.5zM523 350q0 138 -37 207t-124 69h-51v-196l65 44l19 -30l-84 -57v-313h51q87 0 124 69t37 207z
" />
    <glyph glyph-name="Ntilde" unicode="&#xd1;" horiz-adv-x="808" 
d="M778 700v-15l-106 -89v-607h-54l-397 482v-387l111 -69v-15h-302v15l106 89v469l-96 116v11h222l325 -401v317l-111 69v15h302zM596 862q0 -51 -29.5 -83t-79.5 -32q-29 0 -63 12l-81 30l-67 -47q-11 30 -11 62q0 51 31 82t80 31q29 0 62 -12l81 -30l67 47q10 -30 10 -60
z" />
    <glyph glyph-name="Ograve" unicode="&#xd2;" horiz-adv-x="797" 
d="M757 349q0 -172 -103.5 -269.5t-253.5 -97.5q-97 0 -177.5 41t-131.5 126t-51 200q0 171 104.5 268.5t255.5 97.5q72 0 136 -24t113.5 -69t78.5 -115.5t29 -157.5zM562 350q0 60 -6.5 106t-23 88.5t-50.5 65.5t-84 23t-84 -23t-50.5 -65.5t-23 -88.5t-6.5 -106t6.5 -106
t23 -89.5t50.5 -66.5t84 -23t84 23t50.5 66.5t23 89.5t6.5 106zM346 965l195 -200l-5 -10l-276 44z" />
    <glyph glyph-name="Oacute" unicode="&#xd3;" horiz-adv-x="797" 
d="M757 349q0 -172 -103.5 -269.5t-253.5 -97.5q-97 0 -177.5 41t-131.5 126t-51 200q0 171 104.5 268.5t255.5 97.5q72 0 136 -24t113.5 -69t78.5 -115.5t29 -157.5zM562 350q0 60 -6.5 106t-23 88.5t-50.5 65.5t-84 23t-84 -23t-50.5 -65.5t-23 -88.5t-6.5 -106t6.5 -106
t23 -89.5t50.5 -66.5t84 -23t84 23t50.5 66.5t23 89.5t6.5 106zM455 965l86 -166l-276 -44l-5 10z" />
    <glyph glyph-name="Ocircumflex" unicode="&#xd4;" horiz-adv-x="797" 
d="M757 349q0 -172 -103.5 -269.5t-253.5 -97.5q-97 0 -177.5 41t-131.5 126t-51 200q0 171 104.5 268.5t255.5 97.5q72 0 136 -24t113.5 -69t78.5 -115.5t29 -157.5zM562 350q0 60 -6.5 106t-23 88.5t-50.5 65.5t-84 23t-84 -23t-50.5 -65.5t-23 -88.5t-6.5 -106t6.5 -106
t23 -89.5t50.5 -66.5t84 -23t84 23t50.5 66.5t23 89.5t6.5 106zM409 950l155 -197l-6 -10l-156 52l-156 -52l-6 10l155 197h14z" />
    <glyph glyph-name="Otilde" unicode="&#xd5;" horiz-adv-x="797" 
d="M757 349q0 -172 -103.5 -269.5t-253.5 -97.5q-97 0 -177.5 41t-131.5 126t-51 200q0 171 104.5 268.5t255.5 97.5q72 0 136 -24t113.5 -69t78.5 -115.5t29 -157.5zM562 350q0 60 -6.5 106t-23 88.5t-50.5 65.5t-84 23t-84 -23t-50.5 -65.5t-23 -88.5t-6.5 -106t6.5 -106
t23 -89.5t50.5 -66.5t84 -23t84 23t50.5 66.5t23 89.5t6.5 106zM581 862q0 -51 -29.5 -83t-79.5 -32q-28 0 -63 12l-81 30l-67 -47q-11 30 -11 62q0 51 31 82t80 31q29 0 62 -12l81 -30l67 47q10 -30 10 -60z" />
    <glyph glyph-name="Odieresis" unicode="&#xd6;" horiz-adv-x="797" 
d="M757 349q0 -172 -103.5 -269.5t-253.5 -97.5q-97 0 -177.5 41t-131.5 126t-51 200q0 171 104.5 268.5t255.5 97.5q72 0 136 -24t113.5 -69t78.5 -115.5t29 -157.5zM562 350q0 60 -6.5 106t-23 88.5t-50.5 65.5t-84 23t-84 -23t-50.5 -65.5t-23 -88.5t-6.5 -106t6.5 -106
t23 -89.5t50.5 -66.5t84 -23t84 23t50.5 66.5t23 89.5t6.5 106zM564 822q0 -24 -16.5 -40.5t-40.5 -16.5q-25 0 -42 16t-17 41q0 24 17 40.5t42 16.5q23 0 40 -17t17 -40zM356 822q0 -24 -16.5 -40.5t-40.5 -16.5q-25 0 -42 16t-17 41q0 24 17 40.5t42 16.5q23 0 40 -17
t17 -40z" />
    <glyph glyph-name="multiply" unicode="&#xd7;" horiz-adv-x="603" 
d="M339 343l172 -173l-37 -36l-172 172l-173 -173l-36 37l172 173l-172 172l36 37l173 -173l172 172l37 -36z" />
    <glyph glyph-name="Oslash" unicode="&#xd8;" horiz-adv-x="797" 
d="M757 349q0 -172 -103.5 -269.5t-253.5 -97.5q-98 0 -177 42l-52 -87l-32 21l51 85q-70 47 -110 125t-40 181q0 171 104.5 268.5t255.5 97.5q91 0 169 -38l48 81l31 -20l-47 -79q73 -45 114.5 -124t41.5 -186zM260 161l252 420q-41 52 -114 52q-50 0 -84 -23t-50.5 -65.5
t-23 -88.5t-6.5 -106q0 -125 26 -189zM562 350q0 128 -29 195l-252 -423q41 -57 117 -57q50 0 84 23t50.5 66.5t23 89.5t6.5 106z" />
    <glyph glyph-name="Ugrave" unicode="&#xd9;" horiz-adv-x="843" 
d="M813 700v-15l-106 -89v-401q0 -100 -88 -156t-207 -56q-120 0 -208 56t-88 156v401l-86 89v15h356l1 -15l-86 -89v-401q0 -60 46.5 -93t110.5 -33q66 0 115 33.5t49 93.5v420l-96 69v15h287zM406 965l195 -200l-5 -10l-276 44z" />
    <glyph glyph-name="Uacute" unicode="&#xda;" horiz-adv-x="843" 
d="M813 700v-15l-106 -89v-401q0 -100 -88 -156t-207 -56q-120 0 -208 56t-88 156v401l-86 89v15h356l1 -15l-86 -89v-401q0 -60 46.5 -93t110.5 -33q66 0 115 33.5t49 93.5v420l-96 69v15h287zM515 965l86 -166l-276 -44l-5 10z" />
    <glyph glyph-name="Ucircumflex" unicode="&#xdb;" horiz-adv-x="843" 
d="M813 700v-15l-106 -89v-401q0 -100 -88 -156t-207 -56q-120 0 -208 56t-88 156v401l-86 89v15h356l1 -15l-86 -89v-401q0 -60 46.5 -93t110.5 -33q66 0 115 33.5t49 93.5v420l-96 69v15h287zM467 950l155 -197l-6 -10l-156 52l-156 -52l-6 10l155 197h14z" />
    <glyph glyph-name="Udieresis" unicode="&#xdc;" horiz-adv-x="843" 
d="M813 700v-15l-106 -89v-401q0 -100 -88 -156t-207 -56q-120 0 -208 56t-88 156v401l-86 89v15h356l1 -15l-86 -89v-401q0 -60 46.5 -93t110.5 -33q66 0 115 33.5t49 93.5v420l-96 69v15h287zM624 822q0 -24 -16.5 -40.5t-40.5 -16.5q-25 0 -42 16t-17 41q0 24 17 40.5
t42 16.5q23 0 40 -17t17 -40zM416 822q0 -24 -16.5 -40.5t-40.5 -16.5q-25 0 -42 16t-17 41q0 24 17 40.5t42 16.5q23 0 40 -17t17 -40z" />
    <glyph glyph-name="Yacute" unicode="&#xdd;" horiz-adv-x="774" 
d="M764 700v-15l-93 -93l-200 -368v-120l86 -89v-15h-357v15l86 89v116l-190 376l-86 89v15h361v-15l-84 -69l169 -347l81 348l-86 68v15h313zM475 965l86 -166l-276 -44l-5 10z" />
    <glyph glyph-name="Thorn" unicode="&#xde;" horiz-adv-x="722" 
d="M677 346q0 -98 -58 -170.5t-161 -72.5q-96 0 -147 83v-82l86 -89v-15h-357v15l86 89v492l-86 89v15h356l1 -15l-86 -89v-90q51 83 147 83q103 0 161 -72t58 -171zM487 346q0 73 -35 108t-97 35q-14 0 -44 -4v-278q30 -4 44 -4q62 0 97 35t35 108z" />
    <glyph glyph-name="germandbls" unicode="&#xdf;" horiz-adv-x="756" 
d="M736 150q0 -66 -47 -114t-120 -48q-41 0 -76.5 19.5t-55.5 56.5l-97 -68v203h11l94 -119q10 -3 23 -3q26 0 44 14.5t18 45.5q0 22 -18 42.5t-44 43t-52.5 51t-44.5 79t-18 114.5q0 33 4 64l20 165q-54 0 -80 -32t-26 -84v-580h-271v14l86 90v441q0 101 47.5 147.5
t126.5 46.5q87 0 187.5 -47.5t159.5 -108.5l-232 -153l229 -106q132 -60 132 -174z" />
    <glyph glyph-name="agrave" unicode="&#xe0;" 
d="M591 80v-13l-256 -85l-27 88q-26 -38 -66.5 -57.5t-81.5 -19.5q-55 0 -92.5 34t-37.5 94t44.5 106.5t120.5 46.5q57 0 105 -25v107q0 29 -14.5 44t-37.5 15q-24 0 -38 -6l-122 -118h-11v205l128 -65q25 37 65 56.5t79 19.5q56 0 96.5 -39t40.5 -104v-259zM300 83v152
q-35 -4 -61 -35t-26 -63q0 -59 54 -59q15 0 33 5zM246 775l195 -200l-5 -10l-276 44z" />
    <glyph glyph-name="aacute" unicode="&#xe1;" 
d="M591 80v-13l-256 -85l-27 88q-26 -38 -66.5 -57.5t-81.5 -19.5q-55 0 -92.5 34t-37.5 94t44.5 106.5t120.5 46.5q57 0 105 -25v107q0 29 -14.5 44t-37.5 15q-24 0 -38 -6l-122 -118h-11v205l128 -65q25 37 65 56.5t79 19.5q56 0 96.5 -39t40.5 -104v-259zM300 83v152
q-35 -4 -61 -35t-26 -63q0 -59 54 -59q15 0 33 5zM355 775l86 -166l-276 -44l-5 10z" />
    <glyph glyph-name="acircumflex" unicode="&#xe2;" 
d="M591 80v-13l-256 -85l-27 88q-26 -38 -66.5 -57.5t-81.5 -19.5q-55 0 -92.5 34t-37.5 94t44.5 106.5t120.5 46.5q57 0 105 -25v107q0 29 -14.5 44t-37.5 15q-24 0 -38 -6l-122 -118h-11v205l128 -65q25 37 65 56.5t79 19.5q56 0 96.5 -39t40.5 -104v-259zM300 83v152
q-35 -4 -61 -35t-26 -63q0 -59 54 -59q15 0 33 5zM299 770l155 -197l-6 -10l-156 52l-156 -52l-6 10l155 197h14z" />
    <glyph glyph-name="atilde" unicode="&#xe3;" 
d="M591 80v-13l-256 -85l-27 88q-26 -38 -66.5 -57.5t-81.5 -19.5q-55 0 -92.5 34t-37.5 94t44.5 106.5t120.5 46.5q57 0 105 -25v107q0 29 -14.5 44t-37.5 15q-24 0 -38 -6l-122 -118h-11v205l128 -65q25 37 65 56.5t79 19.5q56 0 96.5 -39t40.5 -104v-259zM300 83v152
q-35 -4 -61 -35t-26 -63q0 -59 54 -59q15 0 33 5zM474 692q0 -51 -29.5 -83t-79.5 -32q-29 0 -63 12l-81 30l-67 -47q-11 30 -11 62q0 51 31 82t80 31q29 0 62 -12l81 -30l67 47q10 -30 10 -60z" />
    <glyph glyph-name="adieresis" unicode="&#xe4;" 
d="M591 80v-13l-256 -85l-27 88q-26 -38 -66.5 -57.5t-81.5 -19.5q-55 0 -92.5 34t-37.5 94t44.5 106.5t120.5 46.5q57 0 105 -25v107q0 29 -14.5 44t-37.5 15q-24 0 -38 -6l-122 -118h-11v205l128 -65q25 37 65 56.5t79 19.5q56 0 96.5 -39t40.5 -104v-259zM300 83v152
q-35 -4 -61 -35t-26 -63q0 -59 54 -59q15 0 33 5zM454 682q0 -24 -16.5 -40.5t-40.5 -16.5q-25 0 -42 16t-17 41q0 24 17 40.5t42 16.5q23 0 40 -17t17 -40zM246 682q0 -24 -16.5 -40.5t-40.5 -16.5q-25 0 -42 16t-17 41q0 24 17 40.5t42 16.5q23 0 40 -17t17 -40z" />
    <glyph glyph-name="aring" unicode="&#xe5;" 
d="M591 80v-13l-256 -85l-27 88q-26 -38 -66.5 -57.5t-81.5 -19.5q-55 0 -92.5 34t-37.5 94t44.5 106.5t120.5 46.5q57 0 105 -25v107q0 29 -14.5 44t-37.5 15q-24 0 -38 -6l-122 -118h-11v205l128 -65q25 37 65 56.5t79 19.5q56 0 96.5 -39t40.5 -104v-259zM300 83v152
q-35 -4 -61 -35t-26 -63q0 -59 54 -59q15 0 33 5zM404 672q0 -37 -26 -63.5t-63 -26.5t-62.5 26t-25.5 63q0 36 25.5 62t62.5 26t63 -26t26 -61zM374 672q0 23 -17.5 40t-41.5 17t-41 -17t-17 -41q0 -25 17 -42t41 -17t41.5 17.5t17.5 42.5z" />
    <glyph glyph-name="ae" unicode="&#xe6;" horiz-adv-x="795" 
d="M760 235h-271q8 -72 51 -103t104 -31q43 0 94 15l2 -11q-29 -57 -82.5 -87t-115.5 -30q-58 0 -110.5 25t-86.5 74q-26 -45 -71 -68.5t-95 -23.5q-61 0 -105 34.5t-44 94.5q0 59 45 104.5t120 45.5q57 0 105 -25v107q0 29 -14.5 44t-37.5 15q-24 0 -38 -6l-122 -118h-11
v205l128 -65q25 37 65 56.5t79 19.5q46 0 81 -26q52 26 109 26q104 0 162.5 -70t58.5 -202zM488 246l97 74v11q0 103 -44 103q-53 0 -53 -168v-20zM339 97q-35 57 -39 138q-35 -4 -61 -34t-26 -62q0 -30 17.5 -44.5t43.5 -14.5q33 0 65 17z" />
    <glyph glyph-name="ccedilla" unicode="&#xe7;" horiz-adv-x="523" 
d="M384 -154q0 -67 -57 -120.5t-160 -53.5l47 103l-47 88q6 46 37.5 71t70.5 25q44 0 76.5 -30t32.5 -83zM476 116l2 -11q-30 -57 -83.5 -87t-115.5 -30q-46 0 -89 17t-78 49.5t-56 86t-21 119.5q0 61 19.5 116t64.5 94t107 39q42 0 78 -20.5t56 -58.5l113 66v-205h-11
l-110 122q-16 4 -32 4q-52 0 -74.5 -37.5t-22.5 -117.5q0 -87 46 -124t114 -37q42 0 93 15z" />
    <glyph glyph-name="egrave" unicode="&#xe8;" horiz-adv-x="530" 
d="M495 235h-271q8 -72 51 -103t104 -31q43 0 94 15l2 -11q-29 -57 -82.5 -87t-115.5 -30q-99 0 -170.5 67t-71.5 196q0 101 65.5 178.5t173.5 77.5q104 0 162.5 -70t58.5 -202zM223 246l97 74v11q0 103 -44 103q-53 0 -53 -168v-20zM219 775l195 -200l-5 -10l-276 44z" />
    <glyph glyph-name="eacute" unicode="&#xe9;" horiz-adv-x="530" 
d="M495 235h-271q8 -72 51 -103t104 -31q43 0 94 15l2 -11q-29 -57 -82.5 -87t-115.5 -30q-99 0 -170.5 67t-71.5 196q0 101 65.5 178.5t173.5 77.5q104 0 162.5 -70t58.5 -202zM223 246l97 74v11q0 103 -44 103q-53 0 -53 -168v-20zM345 775l86 -166l-276 -44l-5 10z" />
    <glyph glyph-name="ecircumflex" unicode="&#xea;" horiz-adv-x="530" 
d="M495 235h-271q8 -72 51 -103t104 -31q43 0 94 15l2 -11q-29 -57 -82.5 -87t-115.5 -30q-99 0 -170.5 67t-71.5 196q0 101 65.5 178.5t173.5 77.5q104 0 162.5 -70t58.5 -202zM223 246l97 74v11q0 103 -44 103q-53 0 -53 -168v-20zM279 770l155 -197l-6 -10l-156 52
l-156 -52l-6 10l155 197h14z" />
    <glyph glyph-name="edieresis" unicode="&#xeb;" horiz-adv-x="530" 
d="M495 235h-271q8 -72 51 -103t104 -31q43 0 94 15l2 -11q-29 -57 -82.5 -87t-115.5 -30q-99 0 -170.5 67t-71.5 196q0 101 65.5 178.5t173.5 77.5q104 0 162.5 -70t58.5 -202zM223 246l97 74v11q0 103 -44 103q-53 0 -53 -168v-20zM434 682q0 -24 -16.5 -40.5t-40.5 -16.5
q-25 0 -42 16t-17 41q0 24 17 40.5t42 16.5q23 0 40 -17t17 -40zM226 682q0 -24 -16.5 -40.5t-40.5 -16.5q-25 0 -42 16t-17 41q0 24 17 40.5t42 16.5q23 0 40 -17t17 -40z" />
    <glyph glyph-name="igrave" unicode="&#xec;" horiz-adv-x="388" 
d="M378 14v-14h-357v14l86 90v277l-107 25v12l292 99v-413zM136 775l195 -200l-5 -10l-276 44z" />
    <glyph glyph-name="iacute" unicode="&#xed;" horiz-adv-x="388" 
d="M378 14v-14h-357v14l86 90v277l-107 25v12l292 99v-413zM245 775l86 -166l-276 -44l-5 10z" />
    <glyph glyph-name="icircumflex" unicode="&#xee;" horiz-adv-x="388" 
d="M378 14v-14h-357v14l86 90v277l-107 25v12l292 99v-413zM199 770l155 -197l-6 -10l-156 52l-156 -52l-6 10l155 197h14z" />
    <glyph glyph-name="idieresis" unicode="&#xef;" horiz-adv-x="388" 
d="M378 14v-14h-357v14l86 90v277l-107 25v12l292 99v-413zM354 682q0 -24 -16.5 -40.5t-40.5 -16.5q-25 0 -42 16t-17 41q0 24 17 40.5t42 16.5q23 0 40 -17t17 -40zM146 682q0 -24 -16.5 -40.5t-40.5 -16.5q-25 0 -42 16t-17 41q0 24 17 40.5t42 16.5q23 0 40 -17t17 -40z
" />
    <glyph glyph-name="eth" unicode="&#xf0;" horiz-adv-x="573" 
d="M510 720l18 -30l-65 -43q55 -71 55 -182v-215q0 -125 -72 -194t-170 -69t-169.5 66t-71.5 186q0 91 49 155t135 64q41 0 72 -21.5t42 -63.5v90q0 50 -16 85l-66 -44l-19 30l65 44q-39 46 -120 46q-42 0 -93 -15l-2 11q30 58 82 88.5t113 30.5q95 0 163 -66zM333 230v136
q-3 0 -7.5 0.5t-6.5 0.5q-28 0 -46 -10t-26.5 -31t-11.5 -43.5t-3 -56.5q0 -154 50 -154q51 0 51 158z" />
    <glyph glyph-name="ntilde" unicode="&#xf1;" horiz-adv-x="659" 
d="M649 14v-14h-261v351q0 62 -50 62q-24 0 -42 -15v-324l48 -60v-14h-319v14l86 90v275l-106 25v12l261 88l25 -93q21 47 60.5 71.5t84.5 24.5q56 0 96.5 -36t40.5 -97v-300zM504 692q0 -51 -29.5 -83t-79.5 -32q-29 0 -63 12l-81 30l-67 -47q-11 30 -11 62q0 51 31 82
t80 31q29 0 62 -12l81 -30l67 47q10 -30 10 -60z" />
    <glyph glyph-name="ograve" unicode="&#xf2;" horiz-adv-x="594" 
d="M559 250q0 -106 -69 -181.5t-193 -75.5t-193 75.5t-69 181.5t69 181.5t193 75.5t193 -75.5t69 -181.5zM355 250q0 82 -11.5 133t-47.5 51t-47.5 -51t-11.5 -133t11.5 -133t47.5 -51t47.5 51t11.5 133zM246 775l195 -200l-5 -10l-276 44z" />
    <glyph glyph-name="oacute" unicode="&#xf3;" horiz-adv-x="594" 
d="M559 250q0 -106 -69 -181.5t-193 -75.5t-193 75.5t-69 181.5t69 181.5t193 75.5t193 -75.5t69 -181.5zM355 250q0 82 -11.5 133t-47.5 51t-47.5 -51t-11.5 -133t11.5 -133t47.5 -51t47.5 51t11.5 133zM355 775l86 -166l-276 -44l-5 10z" />
    <glyph glyph-name="ocircumflex" unicode="&#xf4;" horiz-adv-x="594" 
d="M559 250q0 -106 -69 -181.5t-193 -75.5t-193 75.5t-69 181.5t69 181.5t193 75.5t193 -75.5t69 -181.5zM355 250q0 82 -11.5 133t-47.5 51t-47.5 -51t-11.5 -133t11.5 -133t47.5 -51t47.5 51t11.5 133zM299 770l155 -197l-6 -10l-156 52l-156 -52l-6 10l155 197h14z" />
    <glyph glyph-name="otilde" unicode="&#xf5;" horiz-adv-x="594" 
d="M559 250q0 -106 -69 -181.5t-193 -75.5t-193 75.5t-69 181.5t69 181.5t193 75.5t193 -75.5t69 -181.5zM355 250q0 82 -11.5 133t-47.5 51t-47.5 -51t-11.5 -133t11.5 -133t47.5 -51t47.5 51t11.5 133zM474 692q0 -51 -29.5 -83t-79.5 -32q-29 0 -63 12l-81 30l-67 -47
q-11 30 -11 62q0 51 31 82t80 31q29 0 62 -12l81 -30l67 47q10 -30 10 -60z" />
    <glyph glyph-name="odieresis" unicode="&#xf6;" horiz-adv-x="594" 
d="M559 250q0 -106 -69 -181.5t-193 -75.5t-193 75.5t-69 181.5t69 181.5t193 75.5t193 -75.5t69 -181.5zM355 250q0 82 -11.5 133t-47.5 51t-47.5 -51t-11.5 -133t11.5 -133t47.5 -51t47.5 51t11.5 133zM458 682q0 -24 -16.5 -40.5t-40.5 -16.5q-25 0 -42 16t-17 41
q0 24 17 40.5t42 16.5q23 0 40 -17t17 -40zM250 682q0 -24 -16.5 -40.5t-40.5 -16.5q-25 0 -42 16t-17 41q0 24 17 40.5t42 16.5q23 0 40 -17t17 -40z" />
    <glyph glyph-name="divide" unicode="&#xf7;" horiz-adv-x="603" 
d="M358 534q0 -24 -16.5 -40.5t-40.5 -16.5q-25 0 -42 16t-17 41q0 24 17 40.5t42 16.5q23 0 40 -17t17 -40zM543 368v-52h-483v52h483zM359 151q0 -24 -16.5 -40.5t-40.5 -16.5q-25 0 -42 16t-17 41q0 24 17 40.5t42 16.5q23 0 40 -17t17 -40z" />
    <glyph glyph-name="oslash" unicode="&#xf8;" horiz-adv-x="594" 
d="M559 250q0 -106 -69.5 -184t-192.5 -78q-67 0 -120 25l-45 -76l-32 21l44 74q-53 36 -81 94.5t-28 123.5q0 106 69.5 184t192.5 78q65 0 119 -24l40 67l31 -20l-39 -66q54 -36 82.5 -94.5t28.5 -124.5zM238 190l109 181q-14 68 -51 68q-59 0 -59 -189q0 -40 1 -60z
M355 250q0 40 -1 60l-108 -182q12 -67 50 -67q59 0 59 189z" />
    <glyph glyph-name="ugrave" unicode="&#xf9;" horiz-adv-x="670" 
d="M670 81v-12l-261 -89l-23 90q-21 -46 -61.5 -69.5t-85.5 -23.5q-56 0 -96.5 35.5t-40.5 97.5v271l-107 25v12l292 99v-384q0 -62 50 -62q24 0 42 15v295l-52 25v12l237 99v-410zM286 775l195 -200l-5 -10l-276 44z" />
    <glyph glyph-name="uacute" unicode="&#xfa;" horiz-adv-x="670" 
d="M670 81v-12l-261 -89l-23 90q-21 -46 -61.5 -69.5t-85.5 -23.5q-56 0 -96.5 35.5t-40.5 97.5v271l-107 25v12l292 99v-384q0 -62 50 -62q24 0 42 15v295l-52 25v12l237 99v-410zM395 775l86 -166l-276 -44l-5 10z" />
    <glyph glyph-name="ucircumflex" unicode="&#xfb;" horiz-adv-x="670" 
d="M670 81v-12l-261 -89l-23 90q-21 -46 -61.5 -69.5t-85.5 -23.5q-56 0 -96.5 35.5t-40.5 97.5v271l-107 25v12l292 99v-384q0 -62 50 -62q24 0 42 15v295l-52 25v12l237 99v-410zM339 770l155 -197l-6 -10l-156 52l-156 -52l-6 10l155 197h14z" />
    <glyph glyph-name="udieresis" unicode="&#xfc;" horiz-adv-x="670" 
d="M670 81v-12l-261 -89l-23 90q-21 -46 -61.5 -69.5t-85.5 -23.5q-56 0 -96.5 35.5t-40.5 97.5v271l-107 25v12l292 99v-384q0 -62 50 -62q24 0 42 15v295l-52 25v12l237 99v-410zM494 682q0 -24 -16.5 -40.5t-40.5 -16.5q-25 0 -42 16t-17 41q0 24 17 40.5t42 16.5
q23 0 40 -17t17 -40zM286 682q0 -24 -16.5 -40.5t-40.5 -16.5q-25 0 -42 16t-17 41q0 24 17 40.5t42 16.5q23 0 40 -17t17 -40z" />
    <glyph glyph-name="yacute" unicode="&#xfd;" horiz-adv-x="629" 
d="M629 485v-12l-82 -86l-257 -521q-55 -111 -160 -111q-13 0 -36 5l-79 173q65 -28 150 -28q93 0 124 43l-211 440l-88 85v12h327v-12l-46 -69l121 -259l15 259l-53 69v12h275zM395 775l86 -166l-276 -44l-5 10z" />
    <glyph glyph-name="thorn" unicode="&#xfe;" horiz-adv-x="612" 
d="M577 243q0 -48 -11 -92.5t-33 -83.5t-61.5 -62.5t-91.5 -23.5q-35 0 -62.5 24.5t-36.5 60.5v-182l87 -92v-12h-357v12l85 92v744l-117 25v12l302 102v-355q32 84 116 84q63 0 105.5 -41t58.5 -95.5t16 -116.5zM382 233q0 36 -2 58.5t-9 52.5t-25 45t-46 15q-4 0 -19 -4
v-327q64 1 82.5 33.5t18.5 126.5z" />
    <glyph glyph-name="ydieresis" unicode="&#xff;" horiz-adv-x="629" 
d="M629 485v-12l-82 -86l-257 -521q-55 -111 -160 -111q-13 0 -36 5l-79 173q65 -28 150 -28q93 0 124 43l-211 440l-88 85v12h327v-12l-46 -69l121 -259l15 259l-53 69v12h275zM494 682q0 -24 -16.5 -40.5t-40.5 -16.5q-25 0 -42 16t-17 41q0 24 17 40.5t42 16.5
q23 0 40 -17t17 -40zM286 682q0 -24 -16.5 -40.5t-40.5 -16.5q-25 0 -42 16t-17 41q0 24 17 40.5t42 16.5q23 0 40 -17t17 -40z" />
    <glyph glyph-name="dotlessi" unicode="&#x131;" horiz-adv-x="388" 
d="M378 14v-14h-357v14l86 90v277l-107 25v12l292 99v-413z" />
    <glyph glyph-name="Lslash" unicode="&#x141;" horiz-adv-x="693" 
d="M633 239v-239h-593v15l86 89v159l-65 -44l-19 30l84 57v290l-86 89v15h356l1 -15l-86 -89v-166l65 44l19 -30l-84 -57v-313h195l116 165h11z" />
    <glyph glyph-name="lslash" unicode="&#x142;" horiz-adv-x="369" 
d="M369 14v-14h-358v14l86 90v159l-65 -44l-19 30l84 57v322l-117 25v12l302 102v-337l65 44l19 -30l-84 -57v-313z" />
    <glyph glyph-name="OE" unicode="&#x152;" horiz-adv-x="1123" 
d="M1058 239v-239h-539q-56 -18 -119 -18q-97 0 -177.5 41t-131.5 126t-51 200q0 171 104.5 268.5t255.5 97.5q57 0 110 -15h533v-224h-11l-115 150h-272q108 -98 112 -265l86 57l68 106h11v-344h-11l-69 115l-85 47q-3 -168 -109 -268h283l116 165h11zM562 350
q0 60 -6.5 106t-23 88.5t-50.5 65.5t-84 23t-84 -23t-50.5 -65.5t-23 -88.5t-6.5 -106t6.5 -106t23 -89.5t50.5 -66.5t84 -23t84 23t50.5 66.5t23 89.5t6.5 106z" />
    <glyph glyph-name="oe" unicode="&#x153;" horiz-adv-x="850" 
d="M815 235h-271q8 -72 51 -103t104 -31q43 0 94 15l2 -11q-29 -57 -82.5 -87t-115.5 -30q-105 0 -174 70q-59 -68 -152 -68q-97 0 -166.5 71t-69.5 189t69.5 189t166.5 71t156 -73q68 70 167 70q104 0 162.5 -70t58.5 -202zM543 246l97 74v11q0 103 -44 103q-53 0 -53 -168
v-20zM419 428h-23q-80 0 -119.5 -52t-39.5 -126t39.5 -126t116.5 -52h18q-56 69 -56 179q0 102 64 177z" />
    <glyph glyph-name="Scaron" unicode="&#x160;" horiz-adv-x="660" 
d="M600 202q0 -102 -71 -160.5t-165 -58.5q-56 0 -104.5 23t-74.5 66l-125 -83v245h11l110 -141q36 -6 74 -6q65 0 110.5 18.5t45.5 62.5q0 34 -18.5 59t-47.5 39.5t-64 27.5t-70.5 29.5t-64.5 39t-47.5 62t-18.5 92.5q0 91 63.5 144.5t147.5 53.5q52 0 96.5 -22t72.5 -65
l120 82v-245h-11l-110 145q-36 4 -72 4q-124 0 -124 -65q0 -32 25 -56t62.5 -37.5t81 -34t81 -44t62.5 -69t25 -106.5zM488 945l6 -10l-155 -197h-14l-155 197l6 10l156 -52z" />
    <glyph glyph-name="scaron" unicode="&#x161;" horiz-adv-x="531" 
d="M486 139q0 -72 -54 -114t-129 -42q-53 0 -96 21t-65 60l-97 -68v208h11l94 -124q24 -8 64 -8q76 0 76 40q0 19 -17.5 34.5t-43.5 26t-56.5 26t-56.5 33t-43.5 48.5t-17.5 71q0 74 51.5 115.5t120.5 41.5q47 0 86 -19.5t56 -56.5l102 67v-207h-11l-99 125q-24 6 -55 6
q-61 0 -61 -40q0 -22 25 -40t60 -33.5t70.5 -34.5t60.5 -54t25 -82zM418 775l6 -10l-155 -197h-14l-155 197l6 10l156 -52z" />
    <glyph glyph-name="Ydieresis" unicode="&#x178;" horiz-adv-x="774" 
d="M764 700v-15l-93 -93l-200 -368v-120l86 -89v-15h-357v15l86 89v116l-190 376l-86 89v15h361v-15l-84 -69l169 -347l81 348l-86 68v15h313zM564 822q0 -24 -16.5 -40.5t-40.5 -16.5q-25 0 -42 16t-17 41q0 24 17 40.5t42 16.5q23 0 40 -17t17 -40zM356 822
q0 -24 -16.5 -40.5t-40.5 -16.5q-25 0 -42 16t-17 41q0 24 17 40.5t42 16.5q23 0 40 -17t17 -40z" />
    <glyph glyph-name="Zcaron" unicode="&#x17d;" horiz-adv-x="706" 
d="M649 700v-15l-354 -611h214l116 165h11v-239h-586v15l359 611h-198l-115 -150h-11v224h564zM508 945l6 -10l-155 -197h-14l-155 197l6 10l156 -52z" />
    <glyph glyph-name="zcaron" unicode="&#x17e;" horiz-adv-x="561" 
d="M513 485v-12l-280 -451l165 67l85 131h11v-220h-469v12l276 451l-145 -63l-89 -145h-11v230h457zM438 775l6 -10l-155 -197h-14l-155 197l6 10l156 -52z" />
    <glyph glyph-name="circumflex" unicode="&#x2c6;" 
d="M299 770l155 -197l-6 -10l-156 52l-156 -52l-6 10l155 197h14z" />
    <glyph glyph-name="caron" unicode="&#x2c7;" 
d="M448 775l6 -10l-155 -197h-14l-155 197l6 10l156 -52z" />
    <glyph glyph-name="breve" unicode="&#x2d8;" horiz-adv-x="565" 
d="M425 727q0 -65 -43 -103.5t-101 -38.5q-57 0 -98 35.5t-41 99.5l3 39h13q0 -21 37 -32.5t89 -11.5q51 0 88.5 11.5t37.5 32.5h13q2 -13 2 -32z" />
    <glyph glyph-name="dotaccent" unicode="&#x2d9;" horiz-adv-x="227" 
d="M170 682q0 -24 -16.5 -40.5t-40.5 -16.5q-25 0 -42 16t-17 41q0 24 17 40.5t42 16.5q23 0 40 -17t17 -40z" />
    <glyph glyph-name="ring" unicode="&#x2da;" horiz-adv-x="565" 
d="M404 672q0 -37 -26 -63.5t-63 -26.5t-62.5 26t-25.5 63q0 36 25.5 62t62.5 26t63 -26t26 -61zM374 672q0 23 -17.5 40t-41.5 17t-41 -17t-17 -41q0 -25 17 -42t41 -17t41.5 17.5t17.5 42.5z" />
    <glyph glyph-name="ogonek" unicode="&#x2db;" horiz-adv-x="514" 
d="M337 -154l47 -79q-6 -45 -36.5 -70t-69.5 -25q-51 0 -81.5 37t-30.5 88q0 65 50.5 113.5t148.5 48.5z" />
    <glyph glyph-name="tilde" unicode="&#x2dc;" horiz-adv-x="565" 
d="M474 692q0 -51 -29.5 -83t-79.5 -32q-29 0 -63 12l-81 30l-67 -47q-11 30 -11 62q0 51 31 82t80 31q29 0 62 -12l81 -30l67 47q10 -30 10 -60z" />
    <glyph glyph-name="hungarumlaut" unicode="&#x2dd;" horiz-adv-x="565" 
d="M373 785l135 -111l-179 -96l-9 7zM183 785l135 -111l-179 -96l-9 7z" />
    <glyph glyph-name="endash" unicode="&#x2013;" horiz-adv-x="600" 
d="M550 313v-74h-500v74h500z" />
    <glyph glyph-name="emdash" unicode="&#x2014;" horiz-adv-x="1100" 
d="M1050 313v-74h-1000v74h1000z" />
    <glyph glyph-name="quoteleft" unicode="&#x2018;" horiz-adv-x="278" 
d="M248 719l-62 -145q51 -35 51 -97q0 -48 -34 -82t-83 -34q-55 0 -87.5 39.5t-32.5 95.5q0 87 67 155t181 68z" />
    <glyph glyph-name="quoteright" unicode="&#x2019;" horiz-adv-x="308" 
d="M278 584q0 -87 -67 -155t-181 -68l62 145q-51 35 -51 97q0 48 34 82t83 34q55 0 87.5 -39.5t32.5 -95.5z" />
    <glyph glyph-name="quotesinglbase" unicode="&#x201a;" horiz-adv-x="323" 
d="M293 84q0 -87 -67 -155t-181 -68l62 145q-51 35 -51 97q0 48 34 82t83 34q55 0 87.5 -39.5t32.5 -95.5z" />
    <glyph glyph-name="quotedblleft" unicode="&#x201c;" horiz-adv-x="578" 
d="M548 719l-62 -145q51 -35 51 -97q0 -48 -34 -82t-83 -34q-55 0 -87.5 39.5t-32.5 95.5q0 87 67 155t181 68zM248 719l-62 -145q51 -35 51 -97q0 -48 -34 -82t-83 -34q-55 0 -87.5 39.5t-32.5 95.5q0 87 67 155t181 68z" />
    <glyph glyph-name="quotedblright" unicode="&#x201d;" horiz-adv-x="608" 
d="M578 584q0 -87 -67 -155t-181 -68l62 145q-51 35 -51 97q0 48 34 82t83 34q55 0 87.5 -39.5t32.5 -95.5zM278 584q0 -87 -67 -155t-181 -68l62 145q-51 35 -51 97q0 48 34 82t83 34q55 0 87.5 -39.5t32.5 -95.5z" />
    <glyph glyph-name="quotedblbase" unicode="&#x201e;" horiz-adv-x="622" 
d="M592 84q0 -87 -67 -155t-181 -68l62 145q-51 35 -51 97q0 48 34 82t83 34q55 0 87.5 -39.5t32.5 -95.5zM293 84q0 -87 -67 -155t-181 -68l62 145q-51 35 -51 97q0 48 34 82t83 34q55 0 87.5 -39.5t32.5 -95.5z" />
    <glyph glyph-name="dagger" unicode="&#x2020;" horiz-adv-x="510" 
d="M485 580v-254l-218 116l113 -442h-250l113 442l-218 -116v254l218 -115l-113 235h250l-113 -235z" />
    <glyph glyph-name="daggerdbl" unicode="&#x2021;" horiz-adv-x="496" 
d="M478 329v-254l-209 110l104 -185h-250l104 185l-209 -110v254l209 -111l-104 132l104 122l-209 -111v254l209 -110l-104 195h250l-104 -195l209 110v-254l-209 111l104 -122l-104 -132z" />
    <glyph glyph-name="bullet" unicode="&#x2022;" horiz-adv-x="444" 
d="M414 303q0 -80 -56 -136.5t-135 -56.5q-80 0 -136.5 56.5t-56.5 136.5t56.5 136t136.5 56q79 0 135 -56t56 -136z" />
    <glyph glyph-name="ellipsis" unicode="&#x2026;" horiz-adv-x="1013" 
d="M973 103q0 -49 -34 -83t-82 -34q-49 0 -83 34t-34 83q0 48 34 82t83 34q48 0 82 -34t34 -82zM623 103q0 -49 -34 -83t-82 -34q-49 0 -83 34t-34 83q0 48 34 82t83 34q48 0 82 -34t34 -82zM273 103q0 -49 -34 -83t-82 -34q-49 0 -83 34t-34 83q0 48 34 82t83 34
q48 0 82 -34t34 -82z" />
    <glyph glyph-name="perthousand" unicode="&#x2030;" horiz-adv-x="1046" 
d="M1021 176q0 -88 -42 -136.5t-104 -48.5t-104 48.5t-42 135.5t42 135.5t104 48.5q63 0 104.5 -48t41.5 -135zM532 737l42 -23l-389 -736l-43 23zM681 176q0 -88 -42 -136.5t-104 -48.5t-104 48.5t-42 135.5t42 135.5t104 48.5q63 0 104.5 -48t41.5 -135zM317 527
q0 -88 -42 -136.5t-104 -48.5t-104 48.5t-42 135.5t42 135.5t104 48.5q63 0 104.5 -48t41.5 -135zM972 176q0 70 -29 104t-68 34t-68 -34.5t-29 -104.5t29 -104t68 -34t68 34.5t29 104.5zM632 176q0 70 -29 104t-68 34t-68 -34.5t-29 -104.5t29 -104t68 -34t68 34.5
t29 104.5zM268 527q0 70 -29 104t-68 34t-68 -34.5t-29 -104.5t29 -104t68 -34t68 34.5t29 104.5z" />
    <glyph glyph-name="guilsinglleft" unicode="&#x2039;" horiz-adv-x="420" 
d="M286 265l84 -247l-8 -10l-312 250v16l312 250l8 -10z" />
    <glyph glyph-name="guilsinglright" unicode="&#x203a;" horiz-adv-x="420" 
d="M370 274v-16l-312 -250l-8 10l84 247l-84 249l8 10z" />
    <glyph glyph-name="fraction" unicode="&#x2044;" horiz-adv-x="559" 
d="M514 706l25 -18l-493 -696l-26 19z" />
    <glyph glyph-name="Euro" unicode="&#x20ac;" horiz-adv-x="743" 
d="M673 235v-245l-112 91q-22 -46 -65 -69.5t-95 -23.5q-113 0 -180.5 73t-88.5 187h-112l20 42h86q-3 30 -3 59q0 36 4 64h-107l20 42h93q22 113 89 185t179 72q52 0 95 -23.5t65 -69.5l112 91v-245h-11l-110 141q-24 5 -52 5q-141 0 -169 -156h187l-20 -42h-173
q-2 -40 -2 -63q0 -22 2 -60h163l-20 -42h-138q28 -159 170 -159q28 0 52 5l110 141h11z" />
    <glyph glyph-name="trademark" unicode="&#x2122;" horiz-adv-x="918" 
d="M868 360v-10h-183v10l32 45v186h-2l-92 -241h-19l-93 236h-2v-182l47 -43v-11h-154v11l51 52v224l-51 52v11h171l70 -179l58 179h167v-10l-42 -52v-226zM370 710v-135h-11l-66 86h-28v-249l47 -52v-10h-204v10l47 52v249h-29l-65 -86h-11v135l62 -10h195z" />
    <glyph glyph-name="minus" unicode="&#x2212;" horiz-adv-x="603" 
d="M543 368v-52h-483v52h483z" />
    <glyph glyph-name="fi" unicode="&#xfb01;" horiz-adv-x="768" 
d="M758 14v-14h-357v14l86 90v277l-199 25v-332l77 -60v-14h-348v14l86 90v273l-93 95v13h93v120q0 73 60 107t150 34q109 0 180 -37v-162h-11l-148 176q-46 -21 -46 -103v-200l384 97v-413z" />
    <glyph glyph-name="fl" unicode="&#xfb02;" horiz-adv-x="759" 
d="M759 14v-14h-358v14l86 90v548q-45 13 -84 13q-50 0 -82.5 -21t-32.5 -68v-91h105v-74h-105v-337l77 -60v-14h-348v14l86 90v273l-93 95v13h93v120q0 72 52 107t126 35q61 0 118 -21.5t97 -59.5l176 101v-693z" />
    <glyph glyph-name="alt_g" horiz-adv-x="592" 
d="M522 509v-561q0 -88 -60.5 -142.5t-136.5 -54.5q-99 0 -138 78l-125 -60v205h11l122 -128q25 -5 45 -5q43 0 70 21.5t27 68.5v145q-16 -42 -49 -63.5t-74 -21.5q-49 0 -85.5 24t-56 64t-28.5 83t-9 88q0 107 45.5 183t138.5 76q41 0 73.5 -25.5t44.5 -66.5zM337 91v314
q-13 5 -27 5q-80 0 -80 -162t80 -162q15 0 27 5z" />
    </font>
</defs>
</svg>
