<?xml version="1.0" standalone="no"?>
<!DOCTYPE svg PUBLIC "-//W3C//DTD SVG 1.1//EN" "http://www.w3.org/Graphics/SVG/1.1/DTD/svg11.dtd" >
<svg xmlns="http://www.w3.org/2000/svg" xmlns:xlink="http://www.w3.org/1999/xlink" version="1.1">
<metadata>
Created by FontForge 20170731 at Wed Aug  5 14:45:45 2015
 By Aleksey,,,
Copyright (c) 2015 by PYRS Fontlab Ltd. / Made with FontLab. All rights reserved.
</metadata>
<defs>
<font id="Sabre-Light" horiz-adv-x="757" >
  <font-face 
    font-family="Sabre Light"
    font-weight="300"
    font-stretch="normal"
    units-per-em="1000"
    panose-1="0 0 0 0 0 0 0 0 0 0"
    ascent="800"
    descent="-200"
    x-height="485"
    cap-height="700"
    bbox="-15 -274 1081 949"
    underline-thickness="50"
    underline-position="-200"
    unicode-range="U+0020-FB04"
  />
<missing-glyph horiz-adv-x="500" 
d="M438 0h-375v800h375v-800zM125 738v-675h250v675h-250z" />
    <glyph glyph-name="f_f" unicode="ff" horiz-adv-x="768" 
d="M748 726v-94l-178 90v-237h172v-48h-172v-375l150 -50v-12h-318v12l70 64v361h-232v-375l71 -50v-12h-266v12l97 64v328l-82 69v12h82v155q0 58 43.5 85.5t109.5 27.5q54 0 106.5 -14.5t85.5 -38.5q33 53 127 53q69 0 134 -27zM479 682q-40 20 -123 20q-50 0 -83 -16
t-33 -50v-151h232v155q0 25 7 42z" />
    <glyph glyph-name="f_f_i" unicode="ffi" horiz-adv-x="1028" 
d="M1011 12v-12h-293v12l94 64v343l-242 24v-381l77 -50v-12h-269v12l94 64v361h-232v-375l71 -50v-12h-266v12l97 64v328l-82 69v12h82v155q0 58 43.5 85.5t109.5 27.5q54 0 106.5 -14.5t85.5 -38.5q33 53 127 53q70 0 134 -27v-94l-178 90v-265l339 50v-450zM479 682
q-40 20 -123 20q-50 0 -83 -16t-33 -50v-151h232v155q0 25 7 42z" />
    <glyph glyph-name="f_f_l" unicode="ffl" horiz-adv-x="1029" 
d="M1012 12v-12h-293v12l94 64v599q-59 17 -119 17q-124 0 -124 -98v-109h112v-48h-112v-375l77 -50v-12h-269v12l94 64v361h-232v-375l71 -50v-12h-266v12l97 64v328l-82 69v12h82v155q0 58 43.5 85.5t109.5 27.5q54 0 106.5 -14.5t85.5 -38.5q17 27 56 41t82 14
q52 0 104 -18t80 -43l101 73v-710zM479 682q-40 20 -123 20q-50 0 -83 -16t-33 -50v-151h232v155q0 25 7 42z" />
    <glyph glyph-name="f_j" unicode="fj" horiz-adv-x="669" 
d="M579 507v-641q0 -57 -36 -88.5t-86 -31.5q-67 0 -92 30v8h12q43 0 74 18.5t31 54.5v562l-242 24v-381l80 -50v-12h-275v12l97 64v328l-82 69v12h83v120q0 76 44.5 110.5t114.5 34.5q59 0 116 -24v-94l-178 90v-265z" />
    <glyph glyph-name="f_t" unicode="ft" horiz-adv-x="776" 
d="M751 485v-48h-172v-315q0 -68 87 -68q30 0 60 5l2 -12q-23 -29 -60.5 -45.5t-73.5 -16.5q-48 0 -80.5 28.5t-32.5 84.5v306l-241 69v-411l77 -50v-12h-272v12l97 64v328l-82 69v12h83v120q0 76 44.5 110.5t114.5 34.5q59 0 116 -24v-94l-178 90v-237h233l94 161h12v-161
h172z" />
    <glyph glyph-name="f_f_j" unicode="ffj" horiz-adv-x="999" 
d="M909 507v-641q0 -57 -36 -88.5t-86 -31.5q-67 0 -92 30v8h12q43 0 74 18.5t31 54.5v562l-242 24v-381l80 -50v-12h-272v12l94 64v361h-232v-375l71 -50v-12h-266v12l97 64v328l-82 69v12h82v155q0 58 43.5 85.5t109.5 27.5q54 0 106.5 -14.5t85.5 -38.5q33 53 127 53
q70 0 134 -27v-94l-178 90v-265zM479 682q-40 20 -123 20q-50 0 -83 -16t-33 -50v-151h232v155q0 25 7 42z" />
    <glyph glyph-name="f_f_t" unicode="fft" horiz-adv-x="1106" 
d="M1081 485v-48h-172v-315q0 -68 87 -68q30 0 60 5l2 -12q-23 -29 -60.5 -45.5t-73.5 -16.5q-48 0 -80.5 28.5t-32.5 84.5v306l-241 69v-411l77 -50v-12h-272v12l97 64v361h-232v-375l71 -50v-12h-266v12l97 64v328l-82 69v12h82v155q0 58 43.5 85.5t109.5 27.5
q118 0 202 -59q41 56 135 56q59 0 116 -24v-94l-178 90v-237h233l94 161h12v-161h172zM356 702q-50 0 -83 -16t-33 -50v-151h233v120q0 43 15 73q-48 24 -132 24z" />
    <glyph glyph-name=".notdef" horiz-adv-x="500" 
d="M438 0h-375v800h375v-800zM125 738v-675h250v675h-250z" />
    <glyph glyph-name=".null" horiz-adv-x="0" 
 />
    <glyph glyph-name="nonmarkingreturn" horiz-adv-x="333" 
 />
    <glyph glyph-name="space" unicode=" " horiz-adv-x="200" 
 />
    <glyph glyph-name="exclam" unicode="!" horiz-adv-x="310" 
d="M85 700h138l-53 -505h-32zM230 62q0 -31 -22 -53t-53 -22t-53 22t-22 53t22 53t53 22t53 -22t22 -53z" />
    <glyph glyph-name="quotedbl" unicode="&#x22;" horiz-adv-x="379" 
d="M220 700h129l-56 -307h-17zM30 700h129l-56 -307h-17z" />
    <glyph glyph-name="numbersign" unicode="#" horiz-adv-x="617" 
d="M597 474v-39h-142l-50 -168h130v-39h-141l-69 -228h-43l68 228h-147l-68 -228h-43l68 228h-130v39h141l51 168h-129v39h140l70 226h44l-70 -226h146l70 226h44l-70 -226h130zM361 267l51 168h-147l-50 -168h146z" />
    <glyph glyph-name="dollar" unicode="$" horiz-adv-x="604" 
d="M539 188q0 -95 -59.5 -148.5t-147.5 -57.5v-101h-38v102q-77 8 -127 53l-102 -42v227h12l84 -159q51 -15 102 -15q11 0 31 2v271l-15 5q-33 11 -48.5 17t-43.5 18.5t-42 26t-30.5 33.5t-23.5 47t-7 61q0 85 59.5 136.5t147.5 51.5h3v100h38v-103q51 -10 90 -48l99 44
v-225h-11l-84 160q-49 11 -89 11h-5v-249q33 -11 50.5 -18t46 -21t44.5 -28.5t33.5 -36t25 -50.5t7.5 -64zM294 420v233q-54 -5 -84.5 -31.5t-30.5 -85.5q0 -45 29.5 -70.5t85.5 -45.5zM439 179q0 50 -27.5 78.5t-79.5 49.5v-255q107 21 107 127z" />
    <glyph glyph-name="percent" unicode="%" horiz-adv-x="707" 
d="M536 736l35 -19l-391 -738l-34 19zM682 172q0 -87 -41 -134.5t-102 -47.5t-102.5 47.5t-41.5 134.5t41.5 134t102.5 47t102 -47t41 -134zM312 529q0 -87 -41 -134.5t-102 -47.5t-102.5 47.5t-41.5 134.5t41.5 134t102.5 47t102 -47t41 -134zM642 172q0 72 -30.5 108.5
t-72.5 36.5t-73 -36.5t-31 -108.5q0 -73 31 -109.5t73 -36.5t72.5 36.5t30.5 109.5zM272 529q0 72 -30.5 108.5t-72.5 36.5t-73 -36.5t-31 -108.5q0 -73 31 -109.5t73 -36.5t72.5 36.5t30.5 109.5z" />
    <glyph glyph-name="ampersand" unicode="&#x26;" horiz-adv-x="749" 
d="M719 382v-14l-109 -64l-56 -144q-4 -10 -7 -15l113 -133v-12h-115l-78 92q-29 -54 -84 -82.5t-118 -28.5q-104 0 -159.5 57.5t-55.5 138.5q0 73 45.5 132t125.5 73l-53 61q-42 49 -42 111q0 66 45.5 113.5t119.5 47.5q64 0 117 -48l103 39v-222h-11l-85 162
q-44 14 -79 14q-55 0 -84 -25.5t-29 -66.5q0 -42 34 -82l256 -302l58 146l-84 37v15h232zM456 105l-224 265q-80 -52 -80 -157q0 -73 53.5 -115t124.5 -42q79 0 126 49z" />
    <glyph glyph-name="quotesingle" unicode="'" horiz-adv-x="189" 
d="M30 700h129l-56 -307h-17z" />
    <glyph glyph-name="parenleft" unicode="(" horiz-adv-x="315" 
d="M295 -129l-20 -22q-109 68 -167 188.5t-58 256.5t58 256.5t167 188.5l20 -22q-67 -49 -103 -165t-36 -256q0 -141 36.5 -259t102.5 -166z" />
    <glyph glyph-name="parenright" unicode=")" horiz-adv-x="315" 
d="M265 294q0 -136 -58 -256.5t-167 -188.5l-20 22q66 48 102.5 166t36.5 259q0 140 -36 256t-103 165l20 22q109 -68 167 -188.5t58 -256.5z" />
    <glyph glyph-name="asterisk" unicode="*" horiz-adv-x="624" 
d="M507 608l43 -131l-219 -11l171 -137l-112 -81l-78 204l-78 -204l-112 81l171 137l-219 11l43 131l183 -119l-57 211h138l-57 -211z" />
    <glyph glyph-name="plus" unicode="+" horiz-adv-x="603" 
d="M543 362v-42h-220v-220h-42v220h-221v42h221v221h42v-221h220z" />
    <glyph glyph-name="comma" unicode="," horiz-adv-x="237" 
d="M197 37q0 -63 -45.5 -119t-107.5 -63l52 134q-24 7 -40 27t-16 46q0 31 22 53t53 22q38 0 60 -30.5t22 -69.5z" />
    <glyph glyph-name="hyphen" unicode="-" horiz-adv-x="459" 
d="M409 308v-64h-359v64h359z" />
    <glyph glyph-name="period" unicode="." horiz-adv-x="230" 
d="M190 62q0 -31 -22 -53t-53 -22t-53 22t-22 53t22 53t53 22t53 -22t22 -53z" />
    <glyph glyph-name="slash" unicode="/" horiz-adv-x="349" 
d="M312 723l37 -14l-311 -731l-38 15z" />
    <glyph glyph-name="zero" unicode="0" horiz-adv-x="674" 
d="M624 349q0 -176 -82.5 -269.5t-203.5 -93.5t-204.5 93.5t-83.5 269.5t83.5 269t204.5 93t203.5 -93t82.5 -269zM518 349q0 47 -3.5 85.5t-14.5 82t-30 73t-53 49t-80 19.5t-80 -19.5t-53 -49t-30.5 -73t-15 -82t-3.5 -85.5t3.5 -86t15 -82.5t30.5 -73.5t53 -49.5
t80 -19.5q38 0 68.5 13t49.5 37.5t32 53t19.5 66t9 70t2.5 71.5z" />
    <glyph glyph-name="one" unicode="1" horiz-adv-x="427" 
d="M387 12v-12h-356v12l130 62v515h-141v11l187 100h53v-649z" />
    <glyph glyph-name="two" unicode="2" horiz-adv-x="607" 
d="M537 216v-225l-65 9h-432v21q59 30 121.5 77.5t124 111.5t100.5 145t39 160q0 74 -44.5 109t-113.5 35q-41 0 -76 -9l-87 -166h-11v225l102 -40q65 47 139 47q81 0 137.5 -52.5t56.5 -145.5q0 -73 -32.5 -145t-83.5 -126.5t-108 -94.5t-112 -63v-2h272l62 129h11z" />
    <glyph glyph-name="three" unicode="3" horiz-adv-x="607" 
d="M547 182q0 -94 -63 -146t-152 -52q-39 0 -82.5 13.5t-72.5 34.5l-102 -40v225h11l87 -166q39 -9 107 -9q83 0 124 39t41 101q0 147 -178 147h-33v42h32q53 0 88.5 12t51.5 35t22 45.5t6 52.5q0 144 -157 144q-37 0 -85 -10l-87 -166h-11v225l102 -40q67 49 140 49
q83 0 141.5 -50.5t58.5 -140.5q0 -62 -40.5 -113.5t-132.5 -60.5v-2q50 -3 87 -20t57.5 -42.5t30 -52t9.5 -54.5z" />
    <glyph glyph-name="four" unicode="4" horiz-adv-x="662" 
d="M602 226v-82h-132v-144h-96v144h-334v42l350 524h80v-484h132zM374 226v355l-262 -355h262z" />
    <glyph glyph-name="five" unicode="5" horiz-adv-x="602" 
d="M547 208q0 -88 -61 -156t-169 -68q-39 0 -82.5 13.5t-72.5 34.5l-102 -40v225h11l87 -166q39 -9 107 -9q79 0 129.5 40t50.5 124q0 89 -57.5 133.5t-142.5 44.5q-81 0 -145 -35l26 351h383v-87h-330l-17 -219q68 48 154 48q96 0 163.5 -63t67.5 -171z" />
    <glyph glyph-name="six" unicode="6" horiz-adv-x="622" 
d="M562 220q0 -93 -61.5 -163t-173.5 -70q-61 0 -108 20t-76.5 53.5t-48.5 81.5t-26.5 98.5t-7.5 109.5q0 68 13 129t41 115t80.5 86t123.5 32q72 0 121 -43l101 40v-225h-11l-88 166q-31 10 -70 10q-48 0 -84 -15t-57.5 -39t-35 -60.5t-19 -73t-7.5 -83.5q60 60 158 60
q95 0 165.5 -62t70.5 -167zM460 198q0 96 -51.5 143.5t-132.5 47.5q-55 0 -109 -19v-20q0 -174 41.5 -247t119.5 -73q67 0 99.5 50t32.5 118z" />
    <glyph glyph-name="seven" unicode="7" horiz-adv-x="565" 
d="M520 700v-11l-260 -689h-126l329 613h-320l-62 -129h-11v225l65 -9h385z" />
    <glyph glyph-name="eight" unicode="8" horiz-adv-x="626" 
d="M576 191q0 -96 -76 -152.5t-187 -56.5q-117 0 -190 55t-73 140q0 59 43 111t112 75q-124 61 -124 176q0 73 59 126t171 53q100 0 171.5 -49t71.5 -131q0 -51 -34 -94t-97 -65q72 -31 112.5 -74t40.5 -114zM458 517q0 68 -37 113.5t-112 45.5q-57 0 -95 -31.5t-38 -91.5
q0 -28 12 -50t40 -39.5t49 -27t66.5 -26t64.5 -24.5q50 65 50 131zM479 180q0 30 -14.5 53t-44 40t-58 28t-72 26.5t-69.5 27.5q-77 -67 -77 -153q0 -73 43 -123.5t126 -50.5q70 0 118 38.5t48 113.5z" />
    <glyph glyph-name="nine" unicode="9" horiz-adv-x="621" 
d="M561 349q0 -68 -13 -129t-41 -115t-80.5 -86t-123.5 -32q-72 0 -121 43l-101 -40v225h11l88 -166q31 -10 69 -10q47 0 83 15t57.5 39.5t35.5 61t20 73t8 82.5q-60 -60 -158 -60q-111 0 -173 69t-62 163q0 93 62 161.5t172 68.5q61 0 108 -20t76.5 -53.5t48.5 -81.5
t26.5 -98.5t7.5 -109.5zM454 329v20q0 174 -41.5 247t-119.5 73q-67 0 -99.5 -50t-32.5 -118q0 -96 51.5 -143.5t132.5 -47.5q55 0 109 19z" />
    <glyph glyph-name="colon" unicode=":" horiz-adv-x="230" 
d="M190 432q0 -31 -22 -53t-53 -22t-53 22t-22 53t22 53t53 22t53 -22t22 -53zM190 62q0 -31 -22 -53t-53 -22t-53 22t-22 53t22 53t53 22t53 -22t22 -53z" />
    <glyph glyph-name="semicolon" unicode=";" horiz-adv-x="237" 
d="M190 432q0 -31 -22 -53t-53 -22t-53 22t-22 53t22 53t53 22t53 -22t22 -53zM197 37q0 -63 -45.5 -119t-107.5 -63l52 134q-24 7 -40 27t-16 46q0 31 22 53t53 22q38 0 60 -30.5t22 -69.5z" />
    <glyph glyph-name="less" unicode="&#x3c;" horiz-adv-x="522" 
d="M92 342l390 -242l-22 -33l-430 265v20l430 265l22 -34z" />
    <glyph glyph-name="equal" unicode="=" horiz-adv-x="603" 
d="M543 465v-42h-483v42h483zM543 260v-42h-483v42h483z" />
    <glyph glyph-name="greater" unicode="&#x3e;" horiz-adv-x="522" 
d="M492 352v-20l-430 -265l-22 33l390 242l-390 241l22 34z" />
    <glyph glyph-name="question" unicode="?" horiz-adv-x="562" 
d="M502 529q0 -55 -22.5 -100.5t-55 -74.5t-65 -53.5t-55 -50.5t-22.5 -54h-18l-34 115l93 78q78 66 78 147q0 55 -40.5 90.5t-117.5 35.5q-37 0 -85 -10l-87 -168h-11v225l102 -38q64 47 140 47q84 0 142 -49.5t58 -139.5zM337 62q0 -31 -22 -53t-53 -22t-53 22t-22 53
t22 53t53 22t53 -22t22 -53z" />
    <glyph glyph-name="at" unicode="@" horiz-adv-x="910" 
d="M850 369q0 -136 -77 -228.5t-187 -92.5q-41 0 -74 21.5t-40 53.5q-41 -42 -100 -42q-63 0 -101 46t-38 110q0 103 67 181t168 78q69 0 112 -44l115 40l-115 -315q-9 -27 -9 -44q0 -45 53 -45q73 0 132 81.5t59 199.5q0 125 -82.5 193t-209.5 68q-182 -1 -305 -116.5
t-123 -283.5q0 -122 75 -204t215 -82q105 0 196 60l19 -29q-98 -66 -215 -66q-156 0 -240.5 93t-84.5 228q0 183 134 309t329 126q89 0 161.5 -31.5t119 -100t46.5 -164.5zM472 134l103 306q-26 6 -70 6q-73 0 -124.5 -55.5t-51.5 -142.5q0 -60 31 -88t85 -28q9 0 27 2z" />
    <glyph glyph-name="A" unicode="A" horiz-adv-x="759" 
d="M739 12v-12h-289v12l106 41l-49 132h-279l-41 -130l103 -43v-12h-270v12l94 66l254 630h44l242 -634zM244 233h245l-132 354z" />
    <glyph glyph-name="B" unicode="B" horiz-adv-x="686" 
d="M626 197q0 -78 -54 -137.5t-142 -59.5h-390v12l93 63v550l-93 63v12h377q90 0 141.5 -53t51.5 -124q0 -51 -26 -93.5t-79 -63.5q59 -20 90 -66.5t31 -102.5zM508 482q0 73 -34.5 121.5t-109.5 48.5h-133v-272h186q41 0 72 -9q19 52 19 111zM524 195q0 57 -33.5 97
t-96.5 40h-163v-284h164q59 0 94 44.5t35 102.5z" />
    <glyph glyph-name="C" unicode="C" horiz-adv-x="669" 
d="M599 217v-225l-102 40q-23 -22 -61 -35t-76 -13q-150 0 -230 104.5t-80 262.5q0 157 80 261.5t230 104.5q83 0 137 -48l102 40v-225h-11l-86 166q-43 8 -89 8q-126 0 -191.5 -77t-65.5 -230t65.5 -230.5t191.5 -77.5q46 0 89 8l86 166h11z" />
    <glyph glyph-name="D" unicode="D" horiz-adv-x="725" 
d="M675 352q0 -93 -34.5 -171t-111 -129.5t-184.5 -51.5h-305v12l93 63v550l-93 63v12h305q66 0 121 -19t93.5 -52t64.5 -78t38.5 -95t12.5 -104zM567 350q0 143 -59.5 222.5t-182.5 79.5h-93v-604h93q123 0 182.5 79.5t59.5 222.5z" />
    <glyph glyph-name="E" unicode="E" horiz-adv-x="665" 
d="M595 220v-220h-555v12l93 63v550l-93 63v12h533v-215h-12l-85 167h-245v-295l128 36l57 108h12v-299h-12l-61 116l-124 25v-295h267l84 172h13z" />
    <glyph glyph-name="F" unicode="F" horiz-adv-x="633" 
d="M593 700v-215h-12l-85 167h-265v-295l138 36l57 108h12v-299h-12l-61 116l-134 25v-282l109 -49v-12h-300v12l93 63v550l-93 63v12h553z" />
    <glyph glyph-name="G" unicode="G" horiz-adv-x="714" 
d="M689 324v-46h-90v-287l-97 41q-65 -48 -140 -48q-150 0 -231 104.5t-81 262.5q0 157 80 261.5t230 104.5q86 0 137 -48l102 40v-225h-11l-86 166q-46 9 -89 9q-126 0 -191.5 -77.5t-65.5 -230.5t65.5 -230.5t191.5 -77.5q54 0 89 7v213l-110 46v15h297z" />
    <glyph glyph-name="H" unicode="H" horiz-adv-x="767" 
d="M727 12v-12h-278v12l86 49v265h-303v-265l86 -49v-12h-278v12l93 63v551l-93 62v12h278v-12l-86 -50v-264h303v264l-86 50v12h278v-12l-93 -62v-551z" />
    <glyph glyph-name="I" unicode="I" horiz-adv-x="364" 
d="M324 12v-12h-284v12l93 63v551l-93 62v12h284v-12l-93 -62v-551z" />
    <glyph glyph-name="J" unicode="J" horiz-adv-x="611" 
d="M571 700v-12l-94 -62v-511q0 -64 -54 -96t-129 -32q-35 0 -75.5 14.5t-59.5 32.5l-109 -41v223h12l88 -160q69 -11 88 -11q140 0 140 97v493l-116 53v12h309z" />
    <glyph glyph-name="K" unicode="K" horiz-adv-x="751" 
d="M721 12v-12h-178l-221 337l-90 -94v-186l90 -45v-12h-282v12l93 63v551l-93 62v12h282v-12l-90 -50v-345l279 352l-83 43v12h283v-12l-95 -43l-222 -232l238 -359z" />
    <glyph glyph-name="L" unicode="L" horiz-adv-x="649" 
d="M599 220v-220h-558v12l92 63v551l-93 62v12h285v-12l-93 -62v-578h270l84 172h13z" />
    <glyph glyph-name="M" unicode="M" horiz-adv-x="932" 
d="M892 12v-12h-293v12l101 44v520l-219 -481h-30l-226 479v-513l106 -49v-12h-281v12l112 63v550l-112 63v12h214l228 -469l211 469h189v-12l-93 -62v-551z" />
    <glyph glyph-name="N" unicode="N" horiz-adv-x="783" 
d="M753 700v-12l-112 -63v-636h-39l-397 505v-423l111 -59v-12h-286v12l112 63v500l-92 117v8h113l415 -525v454l-111 59v12h286z" />
    <glyph glyph-name="O" unicode="O" 
d="M707 349q0 -89 -26.5 -160t-72.5 -115t-104 -67t-124 -23t-124.5 23t-105 67t-73.5 115t-27 160t27 160t73.5 114.5t105 66.5t124.5 23t124 -23t104 -66.5t72.5 -114.5t26.5 -160zM599 349q0 46 -3 80.5t-15.5 80.5t-35 76t-65.5 51.5t-102 21.5t-102 -21.5t-65.5 -51.5
t-35 -76t-15.5 -80.5t-3 -80.5t3 -80.5t15.5 -81t35 -76.5t65.5 -51.5t102 -21.5t102 21.5t65.5 51.5t35 76.5t15.5 81t3 80.5z" />
    <glyph glyph-name="P" unicode="P" horiz-adv-x="660" 
d="M620 489q0 -85 -59 -148t-165 -63h-165v-203l108 -63v-12h-299v12l93 64v550l-93 62v12h356q106 0 165 -62.5t59 -148.5zM506 489q0 67 -36 115t-100 48h-139v-326h139q64 0 100 48.5t36 114.5z" />
    <glyph glyph-name="Q" unicode="Q" 
d="M705 -139v-11l-178 -30l-118 165q-10 -1 -29 -1q-66 0 -124.5 23t-105 67t-73.5 115t-27 160t27 160t73.5 114.5t105 66.5t124.5 23t124 -23t104 -66.5t72.5 -114.5t26.5 -160q0 -129 -54 -216t-143 -124l96 -113zM599 349q0 46 -3 80.5t-15.5 80.5t-35 76t-65.5 51.5
t-102 21.5t-102 -21.5t-65.5 -51.5t-35 -76t-15.5 -80.5t-3 -80.5t3 -80.5t15.5 -81t35 -76.5t65.5 -51.5t102 -21.5t102 21.5t65.5 51.5t35 76.5t15.5 81t3 80.5z" />
    <glyph glyph-name="R" unicode="R" horiz-adv-x="723" 
d="M693 12v-12h-174l-171 298h-118v-241l83 -45v-12h-273v12l92 64v549l-92 63v12h374q96 0 149.5 -56t53.5 -133q0 -71 -44 -126t-124 -64l155 -267zM510 499q0 64 -32 108.5t-95 44.5h-153v-306h215q32 21 48.5 62.5t16.5 90.5z" />
    <glyph glyph-name="S" unicode="S" horiz-adv-x="604" 
d="M544 188q0 -98 -65.5 -152t-159.5 -54q-93 0 -152 54l-107 -42v227h11l90 -159q51 -15 101 -15q185 0 185 135q0 40 -20.5 68t-53 43t-71.5 26.5t-78 26t-71.5 34.5t-53 57.5t-20.5 90.5q0 86 57 137t144 51q72 0 142 -51l104 44v-225h-11l-89 160q-49 11 -98 11
q-73 0 -115 -25.5t-42 -96.5q0 -35 20.5 -59.5t53.5 -38.5t72.5 -26.5t79.5 -28.5t73 -38t53.5 -61t20.5 -93z" />
    <glyph glyph-name="T" unicode="T" horiz-adv-x="688" 
d="M633 700v-217h-11l-79 169h-150v-583l102 -57v-12h-301v12l102 64v576h-151l-79 -169h-11v217h578z" />
    <glyph glyph-name="U" unicode="U" horiz-adv-x="795" 
d="M765 700v-12l-112 -63v-447q0 -50 -22 -88t-60 -60t-83 -32.5t-96 -10.5q-69 0 -125.5 18t-95 62.5t-38.5 110.5v448l-93 62v12h295v-12l-103 -50v-453q0 -67 49.5 -100.5t122.5 -33.5q76 0 131 34.5t55 95.5v458l-108 49v12h283z" />
    <glyph glyph-name="V" unicode="V" horiz-adv-x="771" 
d="M751 700v-12l-94 -66l-262 -633h-44l-243 637l-88 62v12h298v-12l-106 -44l195 -527l157 525l-103 46v12h290z" />
    <glyph glyph-name="W" unicode="W" horiz-adv-x="996" 
d="M976 700v-12l-94 -66l-199 -633h-43l-151 498l-154 -498h-43l-184 637l-88 62v12h288v-12l-103 -44l145 -511l105 499l-83 56v12h253v-12l-82 -57l149 -484l96 495l-98 46v12h286z" />
    <glyph glyph-name="X" unicode="X" horiz-adv-x="715" 
d="M695 12v-12h-291v12l104 46l-180 252l-124 -252l96 -46v-12h-280v12l87 62l203 261l-210 293l-80 60v12h291v-12l-104 -46l181 -253l122 253l-96 46v12h281v-12l-88 -62l-201 -262l209 -292z" />
    <glyph glyph-name="Y" unicode="Y" horiz-adv-x="720" 
d="M710 700v-12l-86 -62l-214 -395v-156l93 -63v-12h-285v12l93 63v151l-215 401l-86 61v12h293v-12l-106 -42l193 -377l143 378l-111 41v12h288z" />
    <glyph glyph-name="Z" unicode="Z" horiz-adv-x="682" 
d="M614 700v-12l-421 -640h315l79 158h11v-206h-548v12l421 640h-276l-79 -157h-12v205h510z" />
    <glyph glyph-name="bracketleft" unicode="[" horiz-adv-x="301" 
d="M281 -95v-42h-201v857h201v-42h-103v-773h103z" />
    <glyph glyph-name="backslash" unicode="\" horiz-adv-x="349" 
d="M37 723l312 -730l-38 -15l-311 731z" />
    <glyph glyph-name="bracketright" unicode="]" horiz-adv-x="301" 
d="M221 720v-857h-201v42h103v773h-103v42h201z" />
    <glyph glyph-name="asciicircum" unicode="^" horiz-adv-x="556" 
d="M277 559l-227 -206l-10 8l230 348h16l230 -348l-10 -8z" />
    <glyph glyph-name="underscore" unicode="_" horiz-adv-x="370" 
d="M340 -67v-64h-310v64h310z" />
    <glyph glyph-name="grave" unicode="`" horiz-adv-x="567" 
d="M215 749l196 -164l-5 -10l-247 70z" />
    <glyph glyph-name="a" unicode="a" horiz-adv-x="557" 
d="M552 56v-15l-191 -61l-11 77q-56 -67 -148 -67q-63 0 -107.5 38t-44.5 106q0 73 53.5 113.5t128.5 40.5q67 0 117 -33v115q0 84 -100 84q-11 0 -28 -1.5t-22 -1.5l-88 -143h-11v195l91 -39q57 46 121 46q58 0 96.5 -32.5t38.5 -99.5v-308zM349 70v170q-5 0 -17 0.5
t-19 0.5q-161 0 -161 -100q0 -87 95 -87q51 0 102 16z" />
    <glyph glyph-name="b" unicode="b" horiz-adv-x="562" 
d="M517 252q0 -110 -53 -186.5t-156 -76.5q-36 0 -71 16t-58 44l-96 -59v677l-98 14v10l197 69v-308q18 24 53 40.5t77 16.5q99 0 152 -76t53 -181zM410 249q0 197 -155 197q-33 0 -73 -8v-378q40 -8 73 -8q155 0 155 197z" />
    <glyph glyph-name="c" unicode="c" horiz-adv-x="489" 
d="M441 82l3 -9q-76 -85 -178 -85q-107 0 -164 75.5t-57 187.5q0 50 9 93.5t28.5 83t57.5 62.5t91 23q70 0 108 -48l93 38v-195h-11l-88 143q-30 2 -39 2q-81 0 -112 -46t-31 -144q0 -108 42.5 -154t121.5 -46q53 0 126 19z" />
    <glyph glyph-name="d" unicode="d" horiz-adv-x="587" 
d="M582 56v-15l-191 -61l-10 71q-22 -29 -57 -45.5t-70 -16.5q-103 0 -156 76.5t-53 186.5q0 105 53 181t152 76q42 0 77 -16.5t53 -40.5v223l-105 16v12l203 64v-698zM380 60v378q-40 8 -73 8q-155 0 -155 -197t155 -197q33 0 73 8z" />
    <glyph glyph-name="e" unicode="e" horiz-adv-x="510" 
d="M465 256h-314q0 -42 6.5 -72.5t23 -59.5t51 -44.5t86.5 -15.5q54 0 123 18l3 -9q-76 -85 -178 -85q-73 0 -124 38t-74 96t-23 129q0 68 21.5 125t71.5 95t122 38q196 0 205 -253zM152 278l204 45q-4 73 -27.5 108.5t-73.5 35.5q-57 0 -80 -46.5t-23 -142.5z" />
    <glyph glyph-name="f" unicode="f" horiz-adv-x="438" 
d="M418 726v-94l-178 90v-237h172v-48h-172v-375l150 -50v-12h-345v12l97 64v328l-85 69v12h86v120q0 76 44.5 110.5t114.5 34.5q59 0 116 -24z" />
    <glyph glyph-name="g" unicode="g" horiz-adv-x="574" 
d="M549 554v-135l-156 52zM540 -67q0 -68 -71.5 -121t-201.5 -53q-103 0 -177.5 40.5t-74.5 112.5q0 35 27 63.5t79 42.5q-32 27 -32 70q0 55 63 88q-111 46 -111 156q0 83 63.5 129.5t149.5 46.5q87 0 150.5 -46.5t63.5 -129.5t-63.5 -129.5t-150.5 -46.5q-50 0 -97 18
l22 -95l214 -17q69 -6 108 -42.5t39 -86.5zM364 331q0 133 -109 133q-110 0 -110 -133t110 -133q109 0 109 133zM447 -101q0 34 -21 55.5t-59 24.5l-179 14q-38 3 -63 22q-10 -42 -10 -78q0 -73 47.5 -106.5t118.5 -33.5q80 0 123 30.5t43 71.5z" />
    <glyph glyph-name="h" unicode="h" horiz-adv-x="619" 
d="M604 12v-12h-261v12l79 57v289q0 85 -100 85q-55 0 -109 -23v-364l59 -44v-12h-253v12l96 62v601l-105 16v12l203 64v-330q54 70 156 70q63 0 107 -35t44 -98v-319z" />
    <glyph glyph-name="i" unicode="i" horiz-adv-x="334" 
d="M240 703q0 -30 -21 -51t-50 -21q-30 0 -51 21t-21 51q0 29 21 50t51 21q29 0 50 -21t21 -50zM319 12v-12h-296v12l97 64v339l-105 16v12l202 64v-450z" />
    <glyph glyph-name="j" unicode="j" horiz-adv-x="314" 
d="M244 703q0 -30 -21 -51t-50 -21q-30 0 -51 21t-21 51q0 29 21 50t51 21q29 0 50 -21t21 -50zM221 507v-641q0 -59 -37.5 -90t-86.5 -31q-58 0 -84 31v8h16q41 0 68 20.5t27 57.5v553l-105 16v12z" />
    <glyph glyph-name="k" unicode="k" horiz-adv-x="603" 
d="M588 12v-12h-159l-150 230l-67 -57v-116l79 -45v-12h-273v11l97 65v599l-105 16v12l202 64v-559l192 229l-88 36v12h253v-12l-218 -184l161 -237z" />
    <glyph glyph-name="l" unicode="l" horiz-adv-x="329" 
d="M314 12v-12h-296v12l97 64v599l-105 16v12l202 64v-710z" />
    <glyph glyph-name="m" unicode="m" horiz-adv-x="886" 
d="M871 12v-12h-251v12l69 57v289q0 85 -91 85q-50 0 -103 -22q7 -30 7 -47v-319l61 -43v-12h-228v12l69 57v289q0 85 -89 85q-43 0 -97 -26v-361l59 -44v-12h-253v12l95 62v341l-104 16v13l190 60l11 -73q25 35 66 56t82 21q93 0 126 -74q25 35 67.5 54.5t86.5 19.5
q60 0 101.5 -34.5t41.5 -99.5v-319z" />
    <glyph glyph-name="n" unicode="n" horiz-adv-x="624" 
d="M609 12v-12h-261v12l79 57v289q0 85 -100 85q-48 0 -109 -26v-361l59 -44v-12h-253v12l95 62v341l-104 16v13l190 60l11 -72q28 36 71 55.5t87 19.5q63 0 107 -35t44 -98v-319z" />
    <glyph glyph-name="o" unicode="o" horiz-adv-x="564" 
d="M519 247q0 -125 -68.5 -193.5t-168.5 -68.5t-168.5 68.5t-68.5 193.5t68.5 193.5t168.5 68.5t168.5 -68.5t68.5 -193.5zM410 247q0 218 -129 218t-129 -218t129 -218t129 218z" />
    <glyph glyph-name="p" unicode="p" horiz-adv-x="587" 
d="M542 252q0 -110 -53 -186.5t-156 -76.5q-35 0 -69 16t-57 45v-214l102 -44v-12h-295v12l96 64v559l-105 16v12l191 61l9 -56q45 61 132 61q99 0 152 -76t53 -181zM435 249q0 197 -155 197q-33 0 -73 -8v-378q40 -8 73 -8q155 0 155 197z" />
    <glyph glyph-name="q" unicode="q" horiz-adv-x="563" 
d="M583 -164v-15l-203 -64v295q-21 -29 -56 -46t-70 -17q-103 0 -156 76.5t-53 186.5q0 105 53 181t152 76q42 0 77 -16.5t53 -40.5l98 51v-653zM380 60v378q-40 8 -73 8q-155 0 -155 -197t155 -197q33 0 73 8z" />
    <glyph glyph-name="r" unicode="r" horiz-adv-x="420" 
d="M370 500h15l-4 -96l-164 13v-365l104 -40v-12h-298v11l97 65v339l-105 16v12l192 61l10 -77q49 73 153 73z" />
    <glyph glyph-name="s" unicode="s" horiz-adv-x="491" 
d="M441 134q0 -72 -48 -112t-118 -40q-82 0 -132 53l-93 -43v195h11l87 -137q37 -8 87 -8q112 0 112 76q0 38 -29.5 61t-71 35t-83.5 26.5t-71.5 48t-29.5 87.5q0 63 46 100t106 37q76 0 113 -53l92 43v-191h-11l-86 135q-47 7 -70 7q-96 0 -96 -70q0 -31 29.5 -51t71 -32.5
t83.5 -28.5t71.5 -50.5t29.5 -87.5z" />
    <glyph glyph-name="t" unicode="t" horiz-adv-x="395" 
d="M370 485v-48h-172v-315q0 -68 87 -68q30 0 60 5l2 -12q-23 -29 -60.5 -45.5t-73.5 -16.5q-48 0 -80.5 28.5t-32.5 84.5v304l-85 71v12h77l94 161h12v-161h172z" />
    <glyph glyph-name="u" unicode="u" horiz-adv-x="624" 
d="M619 55v-13l-190 -61l-11 72q-29 -35 -72 -55t-86 -20q-63 0 -107 35.5t-44 97.5v304l-104 16v12l202 64v-380q0 -84 96 -84q56 0 114 25v347l-102 16v12l199 64v-436z" />
    <glyph glyph-name="v" unicode="v" horiz-adv-x="589" 
d="M589 485v-12l-82 -56l-213 -431h-19l-189 432l-86 55v12h260v-12l-79 -40l144 -326l89 327l-80 39v12h255z" />
    <glyph glyph-name="w" unicode="w" horiz-adv-x="839" 
d="M839 485v-12l-82 -56l-193 -433h-19l-134 299l-126 -298h-20l-179 433l-86 55v12h266v-12l-87 -40l133 -319l60 256l-51 115h203v-11l-78 -52l142 -320l78 332l-76 39v12h249z" />
    <glyph glyph-name="x" unicode="x" horiz-adv-x="583" 
d="M568 13v-13h-260v12l81 39l-127 157l-76 -157l74 -39v-12h-245v12l72 46l160 169l-154 190l-76 56v12h254v-12l-75 -39l132 -163l69 163l-76 39v12h245v-12l-69 -44l-154 -176l149 -185z" />
    <glyph glyph-name="y" unicode="y" horiz-adv-x="597" 
d="M597 485v-12l-82 -56l-241 -575q-16 -40 -49 -62.5t-73 -22.5q-20 0 -44 8l-43 93q30 -6 65 -6q113 0 149 84l2 4l-191 476l-90 57v12h267v-12l-79 -40l146 -366l83 367l-76 39v12h256z" />
    <glyph glyph-name="z" unicode="z" horiz-adv-x="487" 
d="M452 485v-11l-301 -450l201 36l74 125h11v-185h-407v12l301 450l-192 -36l-73 -126h-11v185h397z" />
    <glyph glyph-name="braceleft" unicode="{" horiz-adv-x="329" 
d="M309 -116v-38q-95 4 -146 50t-51 133v159q0 79 -92 85v35q92 6 92 85v159q0 86 51 132t146 50v-37q-43 -2 -70.5 -25t-27.5 -66v-152q0 -130 -118 -163q118 -35 118 -164v-152q0 -43 27.5 -66t70.5 -25z" />
    <glyph glyph-name="bar" unicode="|" horiz-adv-x="202" 
d="M122 838v-975h-42v975h42z" />
    <glyph glyph-name="braceright" unicode="}" horiz-adv-x="329" 
d="M309 308v-35q-92 -6 -92 -85v-159q0 -87 -51 -133t-146 -50v38q43 2 70.5 25t27.5 66v152q0 129 118 164q-118 33 -118 163v152q0 43 -27.5 66t-70.5 25v37q95 -4 146 -50t51 -132v-159q0 -79 92 -85z" />
    <glyph glyph-name="asciitilde" unicode="~" horiz-adv-x="581" 
d="M511 374q0 -59 -33.5 -98.5t-88.5 -39.5q-28 0 -61 12l-167 63l-84 -97q-7 24 -7 51q0 60 35 98.5t89 38.5q28 0 60 -12l166 -63l85 97q6 -26 6 -50z" />
    <glyph glyph-name="exclamdown" unicode="&#xa1;" horiz-adv-x="310" 
d="M230 448q0 -31 -22 -53t-53 -22t-53 22t-22 53t22 53t53 22t53 -22t22 -53zM170 315l53 -505h-138l53 505h32z" />
    <glyph glyph-name="cent" unicode="&#xa2;" horiz-adv-x="502" 
d="M449 82l3 -10q-63 -71 -160 -82v-109h-38v108q-99 6 -151.5 81t-52.5 181q0 111 50 185.5t149 74.5h5v95h38v-100q45 -10 80 -45l77 39v-182h-12l-71 129q-38 6 -74 6v-392q9 -1 28 -1q60 0 129 22zM254 69v381q-54 -9 -76 -52.5t-22 -134.5q0 -35 3.5 -62t13 -55
t30 -47.5t51.5 -29.5z" />
    <glyph glyph-name="sterling" unicode="&#xa3;" horiz-adv-x="589" 
d="M519 220v-235l-80 15h-389v12q108 34 108 175q0 63 -21 162h-84v48h75q-18 86 -18 149q0 83 51.5 126t128.5 43q65 0 124 -44l102 38v-225h-12l-85 168q-41 10 -80 10q-125 0 -125 -118q0 -46 19 -141l1 -6h140v-48h-130q14 -73 14 -123q0 -54 -32.5 -104.5t-92.5 -73.5
h289l84 172h13z" />
    <glyph glyph-name="yen" unicode="&#xa5;" horiz-adv-x="770" 
d="M720 700v-12l-86 -62l-199 -360h197v-42h-197v-149l93 -63v-12h-285v12l93 63v149h-196v42h196l-200 361l-86 61v12h287v-12l-96 -42l177 -344l128 345l-111 41v12h285z" />
    <glyph glyph-name="brokenbar" unicode="&#xa6;" horiz-adv-x="202" 
d="M122 838v-377l-42 -32v409h42zM122 265v-402h-42v370z" />
    <glyph glyph-name="section" unicode="&#xa7;" horiz-adv-x="532" 
d="M462 148q0 -93 -62 -152.5t-143 -59.5q-115 0 -187 108l34 22q61 -89 153 -89q34 0 65 23t31 79q0 41 -20 76t-50.5 59t-66 54.5t-66 60t-50.5 77.5t-20 106q0 93 60 152.5t141 59.5q110 0 181 -108l-34 -22q-59 89 -147 89q-33 0 -62 -23t-29 -79q0 -45 28 -83.5t68 -70
t80 -67t68 -90t28 -122.5zM422 148q0 45 -15 83t-39 66t-53 53t-58 49t-53 49t-39 59t-15 74q0 25 8 50q-37 -53 -37 -119q0 -45 15 -82.5t39 -64.5t53 -51.5t58 -48t53 -49.5t39 -61t15 -76q0 -21 -8 -50q37 53 37 119z" />
    <glyph glyph-name="dieresis" unicode="&#xa8;" horiz-adv-x="565" 
d="M444 682q0 -24 -16.5 -40.5t-40.5 -16.5q-25 0 -42 16t-17 41q0 24 17 40.5t42 16.5q23 0 40 -17t17 -40zM236 682q0 -24 -16.5 -40.5t-40.5 -16.5q-25 0 -42 16t-17 41q0 24 17 40.5t42 16.5q23 0 40 -17t17 -40z" />
    <glyph glyph-name="copyright" unicode="&#xa9;" horiz-adv-x="859" 
d="M804 360q0 -155 -110 -264.5t-265 -109.5t-264.5 109.5t-109.5 264.5t109.5 264.5t264.5 109.5t265 -109.5t110 -264.5zM774 360q0 142 -101 243.5t-244 101.5q-142 0 -243 -101t-101 -244t101 -244t243 -101q143 0 244 101.5t101 243.5zM570 283v-139l-59 25
q-31 -28 -83 -28q-90 0 -138.5 62.5t-48.5 157.5q0 94 48.5 156.5t138.5 62.5q50 0 83 -28l59 25v-139h-12l-46 99q-24 4 -54 4q-150 0 -150 -180q0 -181 150 -181q36 0 54 4l46 99h12z" />
    <glyph glyph-name="guillemotleft" unicode="&#xab;" horiz-adv-x="666" 
d="M455 265l151 -232l-10 -10l-276 235v16l276 235l10 -10zM195 265l151 -232l-10 -10l-276 235v16l276 235l10 -10z" />
    <glyph glyph-name="registered" unicode="&#xae;" horiz-adv-x="859" 
d="M804 360q0 -155 -110 -264.5t-265 -109.5t-264.5 109.5t-109.5 264.5t109.5 264.5t264.5 109.5t265 -109.5t110 -264.5zM774 360q0 142 -101 243.5t-244 101.5q-142 0 -243 -101t-101 -244t101 -244t243 -101q143 0 244 101.5t101 243.5zM640 165v-10h-111l-95 177h-66
v-140l50 -27v-10h-166v10l54 38v324l-54 38v10h226q58 0 90.5 -33.5t32.5 -79.5q0 -41 -27 -75t-76 -41l89 -155zM533 454q0 37 -18.5 63t-54.5 26h-92v-178h126q39 26 39 89z" />
    <glyph glyph-name="macron" unicode="&#xaf;" horiz-adv-x="514" 
d="M374 697v-35h-234v35h234z" />
    <glyph glyph-name="degree" unicode="&#xb0;" horiz-adv-x="348" 
d="M308 567q0 -56 -39 -95.5t-94 -39.5q-56 0 -95.5 39.5t-39.5 95.5q0 55 39.5 94t95.5 39q55 0 94 -39t39 -94zM276 567q0 41 -30 71t-71 30q-43 0 -72.5 -30t-29.5 -71q0 -43 29.5 -72.5t72.5 -29.5q41 0 71 29.5t30 72.5z" />
    <glyph glyph-name="twosuperior" unicode="&#xb2;" horiz-adv-x="399" 
d="M339 471v-127l-44 6h-235v17q73 35 133 96.5t60 134.5q0 34 -20.5 50t-53.5 16q-17 0 -39 -5l-42 -80h-11v130l57 -32q33 32 77 32q42 0 72.5 -30t30.5 -79q0 -62 -51 -112t-113 -75v-3h136l34 61h9z" />
    <glyph glyph-name="threesuperior" unicode="&#xb3;" horiz-adv-x="356" 
d="M306 443q0 -41 -31 -73t-83 -32q-54 0 -85 36l-57 -32v130h9l54 -80q26 -4 44 -4q78 0 78 58q0 60 -79 60h-26v39h26q46 0 60 15.5t14 43.5q0 60 -67 60q-18 0 -40 -5l-53 -79h-10v130l57 -32q32 32 77 32q43 0 75 -28t32 -73q0 -25 -16.5 -48.5t-51.5 -32.5v-2
q35 -6 54 -29.5t19 -53.5z" />
    <glyph glyph-name="acute" unicode="&#xb4;" horiz-adv-x="567" 
d="M355 749l56 -104l-247 -70l-5 10z" />
    <glyph glyph-name="paragraph" unicode="&#xb6;" horiz-adv-x="602" 
d="M562 -78v-12h-156v742h-100v-742h-156v12l106 59v320h-7q-83 0 -141 58.5t-58 140.5q0 83 58 141.5t141 58.5h313v-12l-106 -59v-648z" />
    <glyph glyph-name="periodcentered" unicode="&#xb7;" horiz-adv-x="310" 
d="M230 262q0 -31 -22 -53t-53 -22t-53 22t-22 53t22 53t53 22t53 -22t22 -53z" />
    <glyph glyph-name="cedilla" unicode="&#xb8;" horiz-adv-x="502" 
d="M334 -135q0 -49 -35.5 -90t-101.5 -49l47 99l-51 61q0 31 20 49t47 18q35 0 54.5 -25.5t19.5 -62.5z" />
    <glyph glyph-name="onesuperior" unicode="&#xb9;" horiz-adv-x="333" 
d="M283 363v-13h-228v12l80 39v227h-85v11l116 61h39v-299z" />
    <glyph glyph-name="guillemotright" unicode="&#xbb;" horiz-adv-x="666" 
d="M606 274v-16l-276 -235l-10 10l151 232l-151 234l10 10zM346 274v-16l-276 -235l-10 10l151 232l-151 234l10 10z" />
    <glyph glyph-name="onequarter" unicode="&#xbc;" horiz-adv-x="772" 
d="M722 128v-60h-66v-68h-69v68h-176v32l189 255h56v-227h66zM614 706l25 -18l-493 -696l-26 19zM283 363v-13h-228v12l80 39v227h-85v11l116 61h39v-299zM459 128h128v149z" />
    <glyph glyph-name="onehalf" unicode="&#xbd;" horiz-adv-x="772" 
d="M722 121v-127l-44 6h-235v17q73 35 133 96.5t60 134.5q0 34 -20.5 50t-53.5 16q-17 0 -39 -5l-42 -80h-11v130l57 -32q33 32 77 32q42 0 72.5 -30t30.5 -79q0 -62 -51 -112t-113 -75v-3h136l34 61h9zM614 706l25 -18l-493 -696l-26 19zM283 363v-13h-228v12l80 39v227
h-85v11l116 61h39v-299z" />
    <glyph glyph-name="threequarters" unicode="&#xbe;" horiz-adv-x="790" 
d="M740 128v-60h-66v-68h-69v68h-176v32l189 255h56v-227h66zM632 706l25 -18l-493 -696l-26 19zM306 443q0 -41 -31 -73t-83 -32q-54 0 -85 36l-57 -32v130h9l54 -80q26 -4 44 -4q78 0 78 58q0 60 -79 60h-26v39h26q45 0 59.5 16t14.5 43q0 60 -67 60q-18 0 -40 -5l-53 -79
h-10v130l57 -32q32 32 77 32q43 0 75 -28t32 -73q0 -25 -16.5 -48.5t-51.5 -32.5v-2q35 -6 54 -29.5t19 -53.5zM477 128h128v149z" />
    <glyph glyph-name="questiondown" unicode="&#xbf;" horiz-adv-x="562" 
d="M375 453q0 -31 -22 -53t-53 -22t-53 22t-22 53t22 53t53 22t53 -22t22 -53zM502 31v-225l-102 38q-64 -47 -140 -47q-84 0 -142 49.5t-58 139.5q0 55 22.5 100.5t55 74.5t65 53.5t55 50.5t22.5 54h18l34 -115l-93 -78q-78 -66 -78 -147q0 -55 40.5 -90.5t117.5 -35.5
q37 0 85 10l87 168h11z" />
    <glyph glyph-name="Agrave" unicode="&#xc0;" horiz-adv-x="759" 
d="M739 12v-12h-289v12l106 41l-49 132h-279l-41 -130l103 -43v-12h-270v12l94 66l254 630h44l242 -634zM244 233h245l-132 354zM315 939l196 -164l-5 -10l-247 70z" />
    <glyph glyph-name="Aacute" unicode="&#xc1;" horiz-adv-x="759" 
d="M739 12v-12h-289v12l106 41l-49 132h-279l-41 -130l103 -43v-12h-270v12l94 66l254 630h44l242 -634zM244 233h245l-132 354zM445 949l56 -104l-247 -70l-5 10z" />
    <glyph glyph-name="Acircumflex" unicode="&#xc2;" horiz-adv-x="759" 
d="M739 12v-12h-289v12l106 41l-49 132h-279l-41 -130l103 -43v-12h-270v12l94 66l254 630h44l242 -634zM244 233h245l-132 354zM387 925l142 -165l-6 -7l-141 72l-141 -72l-6 7l143 165h9z" />
    <glyph glyph-name="Atilde" unicode="&#xc3;" horiz-adv-x="759" 
d="M739 12v-12h-289v12l106 41l-49 132h-279l-41 -130l103 -43v-12h-270v12l94 66l254 630h44l242 -634zM244 233h245l-132 354zM539 877q0 -39 -25 -60.5t-64 -21.5q-24 0 -54 11l-90 32l-65 -45q-8 26 -8 44q0 39 25 60.5t64 21.5q24 0 54 -11l90 -32l65 45q8 -26 8 -44z
" />
    <glyph glyph-name="Adieresis" unicode="&#xc4;" horiz-adv-x="759" 
d="M739 12v-12h-289v12l106 41l-49 132h-279l-41 -130l103 -43v-12h-270v12l94 66l254 630h44l242 -634zM244 233h245l-132 354zM549 822q0 -24 -16.5 -40.5t-40.5 -16.5q-25 0 -42 16t-17 41q0 24 17 40.5t42 16.5q23 0 40 -17t17 -40zM341 822q0 -24 -16.5 -40.5
t-40.5 -16.5q-25 0 -42 16t-17 41q0 24 17 40.5t42 16.5q23 0 40 -17t17 -40z" />
    <glyph glyph-name="Aring" unicode="&#xc5;" horiz-adv-x="759" 
d="M739 12v-12h-289v12l106 41l-49 132h-279l-41 -130l103 -43v-12h-270v12l94 66l254 630h44l242 -634zM244 233h245l-132 354zM484 842q0 -37 -26 -63.5t-63 -26.5t-62.5 26t-25.5 63q0 36 25.5 62t62.5 26t63 -26t26 -61zM454 842q0 23 -17.5 40t-41.5 17t-41 -17
t-17 -41q0 -25 17 -42t41 -17t41.5 17.5t17.5 42.5z" />
    <glyph glyph-name="AE" unicode="&#xc6;" horiz-adv-x="951" 
d="M881 220v-220h-428v12l96 41l-83 252h-203l-71 -254l104 -39v-12h-276v12l94 66l233 622h512v-215h-12l-85 167h-307l101 -295l97 36l57 108h12v-299h-12l-61 116l-88 24l101 -294h122l84 172h13zM277 353h173l-94 284z" />
    <glyph glyph-name="Ccedilla" unicode="&#xc7;" horiz-adv-x="669" 
d="M599 217v-225l-102 40q-23 -22 -61 -35t-76 -13q-150 0 -230 104.5t-80 262.5q0 157 80 261.5t230 104.5q83 0 137 -48l102 40v-225h-11l-86 166q-43 8 -89 8q-126 0 -191.5 -77t-65.5 -230t65.5 -230.5t191.5 -77.5q46 0 89 8l86 166h11zM414 -135q0 -49 -35.5 -90
t-101.5 -49l47 99l-51 61q0 31 20 49t47 18q35 0 54.5 -25.5t19.5 -62.5z" />
    <glyph glyph-name="Egrave" unicode="&#xc8;" horiz-adv-x="665" 
d="M595 220v-220h-555v12l93 63v550l-93 63v12h533v-215h-12l-85 167h-245v-295l128 36l57 108h12v-299h-12l-61 116l-124 25v-295h267l84 172h13zM295 939l196 -164l-5 -10l-247 70z" />
    <glyph glyph-name="Eacute" unicode="&#xc9;" horiz-adv-x="665" 
d="M595 220v-220h-555v12l93 63v550l-93 63v12h533v-215h-12l-85 167h-245v-295l128 36l57 108h12v-299h-12l-61 116l-124 25v-295h267l84 172h13zM435 949l56 -104l-247 -70l-5 10z" />
    <glyph glyph-name="Ecircumflex" unicode="&#xca;" horiz-adv-x="665" 
d="M595 220v-220h-555v12l93 63v550l-93 63v12h533v-215h-12l-85 167h-245v-295l128 36l57 108h12v-299h-12l-61 116l-124 25v-295h267l84 172h13zM367 925l142 -165l-6 -7l-141 72l-141 -72l-6 7l143 165h9z" />
    <glyph glyph-name="Edieresis" unicode="&#xcb;" horiz-adv-x="665" 
d="M595 220v-220h-555v12l93 63v550l-93 63v12h533v-215h-12l-85 167h-245v-295l128 36l57 108h12v-299h-12l-61 116l-124 25v-295h267l84 172h13zM514 822q0 -24 -16.5 -40.5t-40.5 -16.5q-25 0 -42 16t-17 41q0 24 17 40.5t42 16.5q23 0 40 -17t17 -40zM306 822
q0 -24 -16.5 -40.5t-40.5 -16.5q-25 0 -42 16t-17 41q0 24 17 40.5t42 16.5q23 0 40 -17t17 -40z" />
    <glyph glyph-name="Igrave" unicode="&#xcc;" horiz-adv-x="364" 
d="M324 12v-12h-284v12l93 63v551l-93 62v12h284v-12l-93 -62v-551zM115 939l196 -164l-5 -10l-247 70z" />
    <glyph glyph-name="Iacute" unicode="&#xcd;" horiz-adv-x="364" 
d="M324 12v-12h-284v12l93 63v551l-93 62v12h284v-12l-93 -62v-551zM252 949l56 -104l-247 -70l-5 10z" />
    <glyph glyph-name="Icircumflex" unicode="&#xce;" horiz-adv-x="364" 
d="M324 12v-12h-284v12l93 63v551l-93 62v12h284v-12l-93 -62v-551zM187 925l142 -165l-6 -7l-141 72l-141 -72l-6 7l143 165h9z" />
    <glyph glyph-name="Idieresis" unicode="&#xcf;" horiz-adv-x="364" 
d="M324 12v-12h-284v12l93 63v551l-93 62v12h284v-12l-93 -62v-551zM344 822q0 -24 -16.5 -40.5t-40.5 -16.5q-25 0 -42 16t-17 41q0 24 17 40.5t42 16.5q23 0 40 -17t17 -40zM136 822q0 -24 -16.5 -40.5t-40.5 -16.5q-25 0 -42 16t-17 41q0 24 17 40.5t42 16.5q23 0 40 -17
t17 -40z" />
    <glyph glyph-name="Eth" unicode="&#xd0;" horiz-adv-x="725" 
d="M685 352q0 -93 -34.5 -171t-111 -129.5t-184.5 -51.5h-305v12l93 63v242l-79 -53l-16 25l95 64v272l-93 63v12h305q66 0 121 -19t93.5 -52t64.5 -78t38.5 -95t12.5 -104zM577 350q0 143 -59.5 222.5t-182.5 79.5h-93v-233l84 56l15 -25l-99 -66v-336h93q123 0 182.5 79.5
t59.5 222.5z" />
    <glyph glyph-name="Ntilde" unicode="&#xd1;" horiz-adv-x="783" 
d="M753 700v-12l-112 -63v-636h-39l-397 505v-423l111 -59v-12h-286v12l112 63v500l-92 117v8h113l415 -525v454l-111 59v12h286zM539 877q0 -39 -25 -60.5t-64 -21.5q-24 0 -54 11l-90 32l-65 -45q-8 26 -8 44q0 39 25 60.5t64 21.5q24 0 54 -11l90 -32l65 45q8 -26 8 -44z
" />
    <glyph glyph-name="Ograve" unicode="&#xd2;" 
d="M707 349q0 -89 -26.5 -160t-72.5 -115t-104 -67t-124 -23t-124.5 23t-105 67t-73.5 115t-27 160t27 160t73.5 114.5t105 66.5t124.5 23t124 -23t104 -66.5t72.5 -114.5t26.5 -160zM599 349q0 46 -3 80.5t-15.5 80.5t-35 76t-65.5 51.5t-102 21.5t-102 -21.5t-65.5 -51.5
t-35 -76t-15.5 -80.5t-3 -80.5t3 -80.5t15.5 -81t35 -76.5t65.5 -51.5t102 -21.5t102 21.5t65.5 51.5t35 76.5t15.5 81t3 80.5zM295 939l196 -164l-5 -10l-247 70z" />
    <glyph glyph-name="Oacute" unicode="&#xd3;" 
d="M707 349q0 -89 -26.5 -160t-72.5 -115t-104 -67t-124 -23t-124.5 23t-105 67t-73.5 115t-27 160t27 160t73.5 114.5t105 66.5t124.5 23t124 -23t104 -66.5t72.5 -114.5t26.5 -160zM599 349q0 46 -3 80.5t-15.5 80.5t-35 76t-65.5 51.5t-102 21.5t-102 -21.5t-65.5 -51.5
t-35 -76t-15.5 -80.5t-3 -80.5t3 -80.5t15.5 -81t35 -76.5t65.5 -51.5t102 -21.5t102 21.5t65.5 51.5t35 76.5t15.5 81t3 80.5zM435 949l56 -104l-247 -70l-5 10z" />
    <glyph glyph-name="Ocircumflex" unicode="&#xd4;" 
d="M707 349q0 -89 -26.5 -160t-72.5 -115t-104 -67t-124 -23t-124.5 23t-105 67t-73.5 115t-27 160t27 160t73.5 114.5t105 66.5t124.5 23t124 -23t104 -66.5t72.5 -114.5t26.5 -160zM599 349q0 46 -3 80.5t-15.5 80.5t-35 76t-65.5 51.5t-102 21.5t-102 -21.5t-65.5 -51.5
t-35 -76t-15.5 -80.5t-3 -80.5t3 -80.5t15.5 -81t35 -76.5t65.5 -51.5t102 -21.5t102 21.5t65.5 51.5t35 76.5t15.5 81t3 80.5zM383 924l142 -165l-6 -7l-141 72l-141 -72l-6 7l143 165h9z" />
    <glyph glyph-name="Otilde" unicode="&#xd5;" 
d="M707 349q0 -89 -26.5 -160t-72.5 -115t-104 -67t-124 -23t-124.5 23t-105 67t-73.5 115t-27 160t27 160t73.5 114.5t105 66.5t124.5 23t124 -23t104 -66.5t72.5 -114.5t26.5 -160zM599 349q0 46 -3 80.5t-15.5 80.5t-35 76t-65.5 51.5t-102 21.5t-102 -21.5t-65.5 -51.5
t-35 -76t-15.5 -80.5t-3 -80.5t3 -80.5t15.5 -81t35 -76.5t65.5 -51.5t102 -21.5t102 21.5t65.5 51.5t35 76.5t15.5 81t3 80.5zM529 877q0 -39 -25 -60.5t-64 -21.5q-24 0 -54 11l-90 32l-65 -45q-8 26 -8 44q0 39 25 60.5t64 21.5q24 0 54 -11l90 -32l65 45q8 -26 8 -44z
" />
    <glyph glyph-name="Odieresis" unicode="&#xd6;" 
d="M707 349q0 -89 -26.5 -160t-72.5 -115t-104 -67t-124 -23t-124.5 23t-105 67t-73.5 115t-27 160t27 160t73.5 114.5t105 66.5t124.5 23t124 -23t104 -66.5t72.5 -114.5t26.5 -160zM599 349q0 46 -3 80.5t-15.5 80.5t-35 76t-65.5 51.5t-102 21.5t-102 -21.5t-65.5 -51.5
t-35 -76t-15.5 -80.5t-3 -80.5t3 -80.5t15.5 -81t35 -76.5t65.5 -51.5t102 -21.5t102 21.5t65.5 51.5t35 76.5t15.5 81t3 80.5zM541 822q0 -24 -16.5 -40.5t-40.5 -16.5q-25 0 -42 16t-17 41q0 24 17 40.5t42 16.5q23 0 40 -17t17 -40zM333 822q0 -24 -16.5 -40.5
t-40.5 -16.5q-25 0 -42 16t-17 41q0 24 17 40.5t42 16.5q23 0 40 -17t17 -40z" />
    <glyph glyph-name="multiply" unicode="&#xd7;" horiz-adv-x="603" 
d="M332 342l175 -176l-29 -30l-176 176l-176 -176l-30 29l177 177l-177 176l30 29l176 -176l176 176l29 -30z" />
    <glyph glyph-name="Oslash" unicode="&#xd8;" 
d="M707 349q0 -89 -26.5 -160t-72.5 -115t-104 -67t-124 -23q-101 0 -178 49l-57 -94l-27 19l57 94q-125 100 -125 297q0 89 27 160t73.5 114.5t105 66.5t124.5 23q93 0 169 -44l53 87l26 -18l-52 -87q131 -97 131 -302zM599 349q0 172 -59 243l-306 -506q55 -48 144 -48
q59 0 102 21.5t65.5 51.5t35 76.5t15.5 81t3 80.5zM211 112l306 503q-52 44 -139 44q-59 0 -102 -21.5t-65.5 -51.5t-35 -76t-15.5 -80.5t-3 -80.5q0 -164 54 -237z" />
    <glyph glyph-name="Ugrave" unicode="&#xd9;" horiz-adv-x="795" 
d="M765 700v-12l-112 -63v-447q0 -50 -22 -88t-60 -60t-83 -32.5t-96 -10.5q-69 0 -125.5 18t-95 62.5t-38.5 110.5v448l-93 62v12h295v-12l-103 -50v-453q0 -67 49.5 -100.5t122.5 -33.5q76 0 131 34.5t55 95.5v458l-108 49v12h283zM345 939l196 -164l-5 -10l-247 70z" />
    <glyph glyph-name="Uacute" unicode="&#xda;" horiz-adv-x="795" 
d="M765 700v-12l-112 -63v-447q0 -50 -22 -88t-60 -60t-83 -32.5t-96 -10.5q-69 0 -125.5 18t-95 62.5t-38.5 110.5v448l-93 62v12h295v-12l-103 -50v-453q0 -67 49.5 -100.5t122.5 -33.5q76 0 131 34.5t55 95.5v458l-108 49v12h283zM485 949l56 -104l-247 -70l-5 10z" />
    <glyph glyph-name="Ucircumflex" unicode="&#xdb;" horiz-adv-x="795" 
d="M765 700v-12l-112 -63v-447q0 -50 -22 -88t-60 -60t-83 -32.5t-96 -10.5q-69 0 -125.5 18t-95 62.5t-38.5 110.5v448l-93 62v12h295v-12l-103 -50v-453q0 -67 49.5 -100.5t122.5 -33.5q76 0 131 34.5t55 95.5v458l-108 49v12h283zM427 925l142 -165l-6 -7l-141 72
l-141 -72l-6 7l143 165h9z" />
    <glyph glyph-name="Udieresis" unicode="&#xdc;" horiz-adv-x="795" 
d="M765 700v-12l-112 -63v-447q0 -50 -22 -88t-60 -60t-83 -32.5t-96 -10.5q-69 0 -125.5 18t-95 62.5t-38.5 110.5v448l-93 62v12h295v-12l-103 -50v-453q0 -67 49.5 -100.5t122.5 -33.5q76 0 131 34.5t55 95.5v458l-108 49v12h283zM576 822q0 -24 -16.5 -40.5t-40.5 -16.5
q-25 0 -42 16t-17 41q0 24 17 40.5t42 16.5q23 0 40 -17t17 -40zM368 822q0 -24 -16.5 -40.5t-40.5 -16.5q-25 0 -42 16t-17 41q0 24 17 40.5t42 16.5q23 0 40 -17t17 -40z" />
    <glyph glyph-name="Yacute" unicode="&#xdd;" horiz-adv-x="720" 
d="M710 700v-12l-86 -62l-214 -395v-156l93 -63v-12h-285v12l93 63v151l-215 401l-86 61v12h293v-12l-106 -42l193 -377l143 378l-111 41v12h288zM445 949l56 -104l-247 -70l-5 10z" />
    <glyph glyph-name="Thorn" unicode="&#xde;" horiz-adv-x="670" 
d="M625 350q0 -92 -61.5 -159.5t-170.5 -67.5q-103 0 -152 57v-105l93 -63v-12h-284v12l93 63v551l-93 62v12h284v-12l-93 -62v-105q49 57 152 57q109 0 170.5 -68t61.5 -160zM517 350q0 70 -43.5 117t-130.5 47q-62 0 -102 -12v-303q41 -12 102 -12q87 0 130.5 46.5
t43.5 116.5z" />
    <glyph glyph-name="germandbls" unicode="&#xdf;" horiz-adv-x="680" 
d="M647 141q0 -71 -43 -113.5t-100 -42.5q-75 0 -113 45l-85 -38v195h11l80 -141q22 -5 56 -5q40 0 66 20.5t26 64.5q0 32 -25 59.5t-61 49.5t-72.5 45t-61.5 55.5t-25 71.5q0 23 13 59l83 220q-31 11 -74 11q-100 0 -100 -70v-627h-192v12l94 64v553q0 117 111 117
q68 0 152 -40t122 -84l-186 -178l228 -152q96 -64 96 -151z" />
    <glyph glyph-name="agrave" unicode="&#xe0;" horiz-adv-x="557" 
d="M552 56v-15l-191 -61l-11 77q-56 -67 -148 -67q-63 0 -107.5 38t-44.5 106q0 73 53.5 113.5t128.5 40.5q67 0 117 -33v115q0 84 -100 84q-11 0 -28 -1.5t-22 -1.5l-88 -143h-11v195l91 -39q57 46 121 46q58 0 96.5 -32.5t38.5 -99.5v-308zM349 70v170q-5 0 -17 0.5
t-19 0.5q-161 0 -161 -100q0 -87 95 -87q51 0 102 16zM215 749l196 -164l-5 -10l-247 70z" />
    <glyph glyph-name="aacute" unicode="&#xe1;" horiz-adv-x="557" 
d="M552 56v-15l-191 -61l-11 77q-56 -67 -148 -67q-63 0 -107.5 38t-44.5 106q0 73 53.5 113.5t128.5 40.5q67 0 117 -33v115q0 84 -100 84q-11 0 -28 -1.5t-22 -1.5l-88 -143h-11v195l91 -39q57 46 121 46q58 0 96.5 -32.5t38.5 -99.5v-308zM349 70v170q-5 0 -17 0.5
t-19 0.5q-161 0 -161 -100q0 -87 95 -87q51 0 102 16zM355 749l56 -104l-247 -70l-5 10z" />
    <glyph glyph-name="acircumflex" unicode="&#xe2;" horiz-adv-x="557" 
d="M552 56v-15l-191 -61l-11 77q-56 -67 -148 -67q-63 0 -107.5 38t-44.5 106q0 73 53.5 113.5t128.5 40.5q67 0 117 -33v115q0 84 -100 84q-11 0 -28 -1.5t-22 -1.5l-88 -143h-11v195l91 -39q57 46 121 46q58 0 96.5 -32.5t38.5 -99.5v-308zM349 70v170q-5 0 -17 0.5
t-19 0.5q-161 0 -161 -100q0 -87 95 -87q51 0 102 16zM287 745l142 -165l-6 -7l-141 72l-141 -72l-6 7l143 165h9z" />
    <glyph glyph-name="atilde" unicode="&#xe3;" horiz-adv-x="557" 
d="M552 56v-15l-191 -61l-11 77q-56 -67 -148 -67q-63 0 -107.5 38t-44.5 106q0 73 53.5 113.5t128.5 40.5q67 0 117 -33v115q0 84 -100 84q-11 0 -28 -1.5t-22 -1.5l-88 -143h-11v195l91 -39q57 46 121 46q58 0 96.5 -32.5t38.5 -99.5v-308zM349 70v170q-5 0 -17 0.5
t-19 0.5q-161 0 -161 -100q0 -87 95 -87q51 0 102 16zM437 707q0 -39 -25 -60.5t-64 -21.5q-24 0 -54 11l-90 32l-65 -45q-8 26 -8 44q0 39 25 60.5t64 21.5q24 0 54 -11l90 -32l65 45q8 -26 8 -44z" />
    <glyph glyph-name="adieresis" unicode="&#xe4;" horiz-adv-x="557" 
d="M552 56v-15l-191 -61l-11 77q-56 -67 -148 -67q-63 0 -107.5 38t-44.5 106q0 73 53.5 113.5t128.5 40.5q67 0 117 -33v115q0 84 -100 84q-11 0 -28 -1.5t-22 -1.5l-88 -143h-11v195l91 -39q57 46 121 46q58 0 96.5 -32.5t38.5 -99.5v-308zM349 70v170q-5 0 -17 0.5
t-19 0.5q-161 0 -161 -100q0 -87 95 -87q51 0 102 16zM444 682q0 -24 -16.5 -40.5t-40.5 -16.5q-25 0 -42 16t-17 41q0 24 17 40.5t42 16.5q23 0 40 -17t17 -40zM236 682q0 -24 -16.5 -40.5t-40.5 -16.5q-25 0 -42 16t-17 41q0 24 17 40.5t42 16.5q23 0 40 -17t17 -40z" />
    <glyph glyph-name="aring" unicode="&#xe5;" horiz-adv-x="557" 
d="M552 56v-15l-191 -61l-11 77q-56 -67 -148 -67q-63 0 -107.5 38t-44.5 106q0 73 53.5 113.5t128.5 40.5q67 0 117 -33v115q0 84 -100 84q-11 0 -28 -1.5t-22 -1.5l-88 -143h-11v195l91 -39q57 46 121 46q58 0 96.5 -32.5t38.5 -99.5v-308zM349 70v170q-5 0 -17 0.5
t-19 0.5q-161 0 -161 -100q0 -87 95 -87q51 0 102 16zM374 672q0 -37 -26 -63.5t-63 -26.5t-62.5 26t-25.5 63q0 36 25.5 62t62.5 26t63 -26t26 -61zM344 672q0 23 -17.5 40t-41.5 17t-41 -17t-17 -41q0 -25 17 -42t41 -17t41.5 17.5t17.5 42.5z" />
    <glyph glyph-name="ae" unicode="&#xe6;" horiz-adv-x="812" 
d="M767 256h-314q0 -42 6.5 -72.5t23 -59.5t51 -44.5t86.5 -15.5q54 0 123 18l3 -9q-76 -85 -178 -85q-122 0 -181 101q-22 -47 -72 -74t-107 -27q-74 0 -116 44t-42 104q0 63 47.5 109.5t134.5 46.5q67 0 115 -33v111q0 84 -103 84q-8 0 -17.5 -0.5t-20 -1.5t-17.5 -1
l-78 -129h-13v173l83 -31q69 46 129 46q79 0 114 -52q56 51 138 51q196 0 205 -253zM454 278l204 45q-4 73 -27.5 108.5t-73.5 35.5q-57 0 -80 -46.5t-23 -142.5zM379 103q-30 62 -32 139q-23 4 -47 4q-72 0 -112 -30t-40 -70q0 -42 32 -63.5t79 -21.5q75 0 120 42z" />
    <glyph glyph-name="ccedilla" unicode="&#xe7;" horiz-adv-x="489" 
d="M441 82l3 -9q-76 -85 -178 -85q-107 0 -164 75.5t-57 187.5q0 50 9 93.5t28.5 83t57.5 62.5t91 23q70 0 108 -48l93 38v-195h-11l-88 143q-30 2 -39 2q-81 0 -112 -46t-31 -144q0 -108 42.5 -154t121.5 -46q53 0 126 19zM334 -135q0 -49 -35.5 -90t-101.5 -49l47 99
l-51 61q0 31 20 49t47 18q35 0 54.5 -25.5t19.5 -62.5z" />
    <glyph glyph-name="egrave" unicode="&#xe8;" horiz-adv-x="510" 
d="M465 256h-314q0 -42 6.5 -72.5t23 -59.5t51 -44.5t86.5 -15.5q54 0 123 18l3 -9q-76 -85 -178 -85q-73 0 -124 38t-74 96t-23 129q0 68 21.5 125t71.5 95t122 38q196 0 205 -253zM152 278l204 45q-4 73 -27.5 108.5t-73.5 35.5q-57 0 -80 -46.5t-23 -142.5zM205 749
l196 -164l-5 -10l-247 70z" />
    <glyph glyph-name="eacute" unicode="&#xe9;" horiz-adv-x="510" 
d="M465 256h-314q0 -42 6.5 -72.5t23 -59.5t51 -44.5t86.5 -15.5q54 0 123 18l3 -9q-76 -85 -178 -85q-73 0 -124 38t-74 96t-23 129q0 68 21.5 125t71.5 95t122 38q196 0 205 -253zM152 278l204 45q-4 73 -27.5 108.5t-73.5 35.5q-57 0 -80 -46.5t-23 -142.5zM345 749
l56 -104l-247 -70l-5 10z" />
    <glyph glyph-name="ecircumflex" unicode="&#xea;" horiz-adv-x="510" 
d="M465 256h-314q0 -42 6.5 -72.5t23 -59.5t51 -44.5t86.5 -15.5q54 0 123 18l3 -9q-76 -85 -178 -85q-73 0 -124 38t-74 96t-23 129q0 68 21.5 125t71.5 95t122 38q196 0 205 -253zM152 278l204 45q-4 73 -27.5 108.5t-73.5 35.5q-57 0 -80 -46.5t-23 -142.5zM277 745
l142 -165l-6 -7l-141 72l-141 -72l-6 7l143 165h9z" />
    <glyph glyph-name="edieresis" unicode="&#xeb;" horiz-adv-x="510" 
d="M465 256h-314q0 -42 6.5 -72.5t23 -59.5t51 -44.5t86.5 -15.5q54 0 123 18l3 -9q-76 -85 -178 -85q-73 0 -124 38t-74 96t-23 129q0 68 21.5 125t71.5 95t122 38q196 0 205 -253zM152 278l204 45q-4 73 -27.5 108.5t-73.5 35.5q-57 0 -80 -46.5t-23 -142.5zM434 682
q0 -24 -16.5 -40.5t-40.5 -16.5q-25 0 -42 16t-17 41q0 24 17 40.5t42 16.5q23 0 40 -17t17 -40zM226 682q0 -24 -16.5 -40.5t-40.5 -16.5q-25 0 -42 16t-17 41q0 24 17 40.5t42 16.5q23 0 40 -17t17 -40z" />
    <glyph glyph-name="igrave" unicode="&#xec;" horiz-adv-x="338" 
d="M321 12v-12h-296v12l97 64v343l-105 12v12l202 64v-450zM95 749l196 -164l-5 -10l-247 70z" />
    <glyph glyph-name="iacute" unicode="&#xed;" horiz-adv-x="338" 
d="M321 12v-12h-296v12l97 64v343l-105 12v12l202 64v-450zM235 749l56 -104l-247 -70l-5 10z" />
    <glyph glyph-name="icircumflex" unicode="&#xee;" horiz-adv-x="338" 
d="M321 12v-12h-296v12l97 64v343l-105 12v12l202 64v-450zM177 745l142 -165l-6 -7l-141 72l-141 -72l-6 7l143 165h9z" />
    <glyph glyph-name="idieresis" unicode="&#xef;" horiz-adv-x="338" 
d="M321 12v-12h-296v12l97 64v343l-105 12v12l202 64v-450zM332 682q0 -24 -16.5 -40.5t-40.5 -16.5q-25 0 -42 16t-17 41q0 24 17 40.5t42 16.5q23 0 40 -17t17 -40zM124 682q0 -24 -16.5 -40.5t-40.5 -16.5q-25 0 -42 16t-17 41q0 24 17 40.5t42 16.5q23 0 40 -17t17 -40z
" />
    <glyph glyph-name="eth" unicode="&#xf0;" horiz-adv-x="555" 
d="M516 715l15 -25l-91 -61q45 -58 45 -161v-241q0 -124 -60.5 -183t-153.5 -59q-95 0 -158 55.5t-63 178.5q0 99 56.5 159.5t160.5 60.5q66 0 120 -49v56q0 90 -27 130l-106 -72l-16 25l102 68q-40 32 -117 32q-60 0 -129 -22l-3 10q35 39 84.5 61t100.5 22q91 0 145 -49z
M387 237v140q-53 5 -73 5q-96 0 -128.5 -35.5t-32.5 -124.5q0 -28 1 -47t4.5 -44t11 -41.5t20 -31.5t33 -22.5t47.5 -7.5q32 0 55 13.5t34.5 32.5t18 50t8 54.5t1.5 58.5z" />
    <glyph glyph-name="ntilde" unicode="&#xf1;" horiz-adv-x="624" 
d="M609 12v-12h-261v12l79 57v289q0 85 -100 85q-48 0 -109 -26v-361l59 -44v-12h-253v12l95 62v341l-104 16v13l190 60l11 -72q28 36 71 55.5t87 19.5q63 0 107 -35t44 -98v-319zM497 707q0 -39 -25 -60.5t-64 -21.5q-24 0 -54 11l-90 32l-65 -45q-8 26 -8 44q0 39 25 60.5
t64 21.5q24 0 54 -11l90 -32l65 45q8 -26 8 -44z" />
    <glyph glyph-name="ograve" unicode="&#xf2;" horiz-adv-x="564" 
d="M519 247q0 -125 -68.5 -193.5t-168.5 -68.5t-168.5 68.5t-68.5 193.5t68.5 193.5t168.5 68.5t168.5 -68.5t68.5 -193.5zM410 247q0 218 -129 218t-129 -218t129 -218t129 218zM213 749l196 -164l-5 -10l-247 70z" />
    <glyph glyph-name="oacute" unicode="&#xf3;" horiz-adv-x="564" 
d="M519 247q0 -125 -68.5 -193.5t-168.5 -68.5t-168.5 68.5t-68.5 193.5t68.5 193.5t168.5 68.5t168.5 -68.5t68.5 -193.5zM410 247q0 218 -129 218t-129 -218t129 -218t129 218zM354 749l56 -104l-247 -70l-5 10z" />
    <glyph glyph-name="ocircumflex" unicode="&#xf4;" horiz-adv-x="564" 
d="M519 247q0 -125 -68.5 -193.5t-168.5 -68.5t-168.5 68.5t-68.5 193.5t68.5 193.5t168.5 68.5t168.5 -68.5t68.5 -193.5zM410 247q0 218 -129 218t-129 -218t129 -218t129 218zM289 745l142 -165l-6 -7l-141 72l-141 -72l-6 7l143 165h9z" />
    <glyph glyph-name="otilde" unicode="&#xf5;" horiz-adv-x="564" 
d="M519 247q0 -125 -68.5 -193.5t-168.5 -68.5t-168.5 68.5t-68.5 193.5t68.5 193.5t168.5 68.5t168.5 -68.5t68.5 -193.5zM410 247q0 218 -129 218t-129 -218t129 -218t129 218zM435 707q0 -39 -25 -60.5t-64 -21.5q-24 0 -54 11l-90 32l-65 -45q-8 26 -8 44q0 39 25 60.5
t64 21.5q24 0 54 -11l90 -32l65 45q8 -26 8 -44z" />
    <glyph glyph-name="odieresis" unicode="&#xf6;" horiz-adv-x="564" 
d="M519 247q0 -125 -68.5 -193.5t-168.5 -68.5t-168.5 68.5t-68.5 193.5t68.5 193.5t168.5 68.5t168.5 -68.5t68.5 -193.5zM410 247q0 218 -129 218t-129 -218t129 -218t129 218zM444 678q0 -24 -16.5 -40.5t-40.5 -16.5q-25 0 -42 16t-17 41q0 24 17 40.5t42 16.5
q23 0 40 -17t17 -40zM236 678q0 -24 -16.5 -40.5t-40.5 -16.5q-25 0 -42 16t-17 41q0 24 17 40.5t42 16.5q23 0 40 -17t17 -40z" />
    <glyph glyph-name="divide" unicode="&#xf7;" horiz-adv-x="603" 
d="M359 530q0 -24 -16.5 -40.5t-40.5 -16.5q-25 0 -42 16t-17 41q0 24 17 40.5t42 16.5q23 0 40 -17t17 -40zM543 362v-42h-483v42h483zM359 153q0 -24 -16.5 -40.5t-40.5 -16.5q-25 0 -42 16t-17 41q0 24 17 40.5t42 16.5q23 0 40 -17t17 -40z" />
    <glyph glyph-name="oslash" unicode="&#xf8;" horiz-adv-x="564" 
d="M519 247q0 -125 -68.5 -193.5t-168.5 -68.5q-69 0 -123 33l-48 -79l-27 19l48 79q-87 72 -87 210q0 125 68.5 193.5t168.5 68.5q66 0 118 -30l45 74l26 -18l-44 -73q92 -72 92 -215zM174 106l193 319q-32 40 -86 40q-129 0 -129 -218q0 -90 22 -141zM410 247
q0 95 -24 147l-194 -321q31 -44 89 -44q129 0 129 218z" />
    <glyph glyph-name="ugrave" unicode="&#xf9;" horiz-adv-x="624" 
d="M619 55v-13l-190 -61l-11 72q-29 -35 -72 -55t-86 -20q-63 0 -107 35.5t-44 97.5v304l-104 16v12l202 64v-380q0 -84 96 -84q56 0 114 25v347l-102 16v12l199 64v-436zM246 749l196 -164l-5 -10l-247 70z" />
    <glyph glyph-name="uacute" unicode="&#xfa;" horiz-adv-x="624" 
d="M619 55v-13l-190 -61l-11 72q-29 -35 -72 -55t-86 -20q-63 0 -107 35.5t-44 97.5v304l-104 16v12l202 64v-380q0 -84 96 -84q56 0 114 25v347l-102 16v12l199 64v-436zM390 749l56 -104l-247 -70l-5 10z" />
    <glyph glyph-name="ucircumflex" unicode="&#xfb;" horiz-adv-x="624" 
d="M619 55v-13l-190 -61l-11 72q-29 -35 -72 -55t-86 -20q-63 0 -107 35.5t-44 97.5v304l-104 16v12l202 64v-380q0 -84 96 -84q56 0 114 25v347l-102 16v12l199 64v-436zM322 745l142 -165l-6 -7l-141 72l-141 -72l-6 7l143 165h9z" />
    <glyph glyph-name="udieresis" unicode="&#xfc;" horiz-adv-x="624" 
d="M619 55v-13l-190 -61l-11 72q-29 -35 -72 -55t-86 -20q-63 0 -107 35.5t-44 97.5v304l-104 16v12l202 64v-380q0 -84 96 -84q56 0 114 25v347l-102 16v12l199 64v-436zM484 682q0 -24 -16.5 -40.5t-40.5 -16.5q-25 0 -42 16t-17 41q0 24 17 40.5t42 16.5q23 0 40 -17
t17 -40zM276 682q0 -24 -16.5 -40.5t-40.5 -16.5q-25 0 -42 16t-17 41q0 24 17 40.5t42 16.5q23 0 40 -17t17 -40z" />
    <glyph glyph-name="yacute" unicode="&#xfd;" horiz-adv-x="597" 
d="M597 485v-12l-82 -56l-241 -575q-16 -40 -49 -62.5t-73 -22.5q-20 0 -44 8l-43 93q30 -6 65 -6q113 0 149 84l2 4l-191 476l-90 57v12h267v-12l-79 -40l146 -366l83 367l-76 39v12h256zM405 749l56 -104l-247 -70l-5 10z" />
    <glyph glyph-name="thorn" unicode="&#xfe;" horiz-adv-x="601" 
d="M551 249q0 -107 -54 -185t-156 -78q-40 0 -68.5 13t-58.5 45v-208l100 -44v-12h-290v12l93 64v823l-102 12v12l199 64v-323q58 62 138 62q87 0 143 -71.5t56 -185.5zM448 238q0 99 -37.5 149.5t-118.5 50.5q-24 0 -78 -9v-375q36 -6 66 -6q87 0 127.5 39.5t40.5 150.5z
" />
    <glyph glyph-name="ydieresis" unicode="&#xff;" horiz-adv-x="597" 
d="M597 485v-12l-82 -56l-241 -575q-16 -40 -49 -62.5t-73 -22.5q-20 0 -44 8l-43 93q30 -6 65 -6q113 0 149 84l2 4l-191 476l-90 57v12h267v-12l-79 -40l146 -366l83 367l-76 39v12h256zM484 682q0 -24 -16.5 -40.5t-40.5 -16.5q-25 0 -42 16t-17 41q0 24 17 40.5t42 16.5
q23 0 40 -17t17 -40zM276 682q0 -24 -16.5 -40.5t-40.5 -16.5q-25 0 -42 16t-17 41q0 24 17 40.5t42 16.5q23 0 40 -17t17 -40z" />
    <glyph glyph-name="dotlessi" unicode="&#x131;" horiz-adv-x="358" 
d="M331 12v-12h-296v12l97 64v343l-105 12v12l202 64v-450z" />
    <glyph glyph-name="Lslash" unicode="&#x141;" horiz-adv-x="639" 
d="M609 220v-220h-558v12l92 63v242l-79 -53l-16 25l95 64v273l-93 62v12h285v-12l-93 -62v-207l84 56l15 -25l-99 -66v-336h270l84 172h13z" />
    <glyph glyph-name="lslash" unicode="&#x142;" horiz-adv-x="358" 
d="M328 12v-12h-290v12l94 64v241l-79 -53l-16 25l95 64v326l-102 12v12l199 64v-349l84 56l15 -25l-99 -66v-326z" />
    <glyph glyph-name="OE" unicode="&#x152;" horiz-adv-x="1071" 
d="M1001 220v-220h-516q-48 -16 -105 -16q-66 0 -124.5 23t-105 67t-73.5 115t-27 160t27 160t73.5 114.5t105 66.5t124.5 23q51 0 96 -13h503v-215h-12l-85 167h-307q129 -96 132 -295l88 36l57 108h12v-299h-12l-61 116l-84 25q-3 -199 -129 -295h326l84 172h13zM599 349
q0 37 -2 66.5t-9 69t-22 68.5t-38.5 55.5t-61.5 40.5t-88 14t-88 -14t-61.5 -40.5t-38.5 -55.5t-22 -68.5t-9 -69t-2 -66.5q0 -46 3 -81t15.5 -82t35 -77.5t65.5 -52.5t102 -22t102 22t65.5 52.5t35 77.5t15.5 82t3 81z" />
    <glyph glyph-name="oe" unicode="&#x153;" horiz-adv-x="845" 
d="M800 256h-314q0 -42 6 -72t22.5 -59.5t50.5 -45t86 -15.5q56 0 125 18l3 -9q-76 -85 -178 -85q-106 0 -166 78q-24 -40 -71.5 -62t-98.5 -22q-91 0 -155.5 69t-64.5 196t64.5 196t155.5 69q50 0 96.5 -21t71.5 -60q58 78 162 78q196 0 205 -253zM487 278l204 45
q-4 73 -27.5 108.5t-73.5 35.5q-57 0 -80 -46.5t-23 -142.5zM426 75q-46 66 -46 176q0 100 45 168q-45 21 -114 21q-88 0 -123.5 -51t-35.5 -142t35.5 -142.5t123.5 -51.5q68 0 115 22z" />
    <glyph glyph-name="Scaron" unicode="&#x160;" horiz-adv-x="604" 
d="M544 188q0 -98 -65.5 -152t-159.5 -54q-93 0 -152 54l-107 -42v227h11l90 -159q51 -15 101 -15q185 0 185 135q0 40 -20.5 68t-53 43t-71.5 26.5t-78 26t-71.5 34.5t-53 57.5t-20.5 90.5q0 86 57 137t144 51q72 0 142 -51l104 44v-225h-11l-89 160q-49 11 -98 11
q-73 0 -115 -25.5t-42 -96.5q0 -35 20.5 -59.5t53.5 -38.5t72.5 -26.5t79.5 -28.5t73 -38t53.5 -61t20.5 -93zM437 915l6 -7l-142 -165h-9l-143 165l6 7l141 -72z" />
    <glyph glyph-name="scaron" unicode="&#x161;" horiz-adv-x="491" 
d="M441 134q0 -72 -48 -112t-118 -40q-82 0 -132 53l-93 -43v195h11l87 -137q37 -8 87 -8q112 0 112 76q0 38 -29.5 61t-71 35t-83.5 26.5t-71.5 48t-29.5 87.5q0 63 46 100t106 37q76 0 113 -53l92 43v-191h-11l-86 135q-47 7 -70 7q-96 0 -96 -70q0 -31 29.5 -51t71 -32.5
t83.5 -28.5t71.5 -50.5t29.5 -87.5zM383 745l6 -7l-142 -165h-9l-143 165l6 7l141 -72z" />
    <glyph glyph-name="Ydieresis" unicode="&#x178;" horiz-adv-x="720" 
d="M710 700v-12l-86 -62l-214 -395v-156l93 -63v-12h-285v12l93 63v151l-215 401l-86 61v12h293v-12l-106 -42l193 -377l143 378l-111 41v12h288zM536 822q0 -24 -16.5 -40.5t-40.5 -16.5q-25 0 -42 16t-17 41q0 24 17 40.5t42 16.5q23 0 40 -17t17 -40zM328 822
q0 -24 -16.5 -40.5t-40.5 -16.5q-25 0 -42 16t-17 41q0 24 17 40.5t42 16.5q23 0 40 -17t17 -40z" />
    <glyph glyph-name="Zcaron" unicode="&#x17d;" horiz-adv-x="682" 
d="M614 700v-12l-421 -640h315l79 158h11v-206h-548v12l421 640h-276l-79 -157h-12v205h510zM493 915l6 -7l-142 -165h-9l-143 165l6 7l141 -72z" />
    <glyph glyph-name="zcaron" unicode="&#x17e;" horiz-adv-x="511" 
d="M452 485v-11l-301 -450l201 36l74 125h11v-185h-407v12l301 450l-192 -36l-73 -126h-11v185h397zM393 745l6 -7l-142 -165h-9l-143 165l6 7l141 -72z" />
    <glyph glyph-name="circumflex" unicode="&#x2c6;" horiz-adv-x="565" 
d="M287 745l142 -165l-6 -7l-141 72l-141 -72l-6 7l143 165h9z" />
    <glyph glyph-name="caron" unicode="&#x2c7;" horiz-adv-x="565" 
d="M423 745l6 -7l-142 -165h-9l-143 165l6 7l141 -72z" />
    <glyph glyph-name="breve" unicode="&#x2d8;" horiz-adv-x="565" 
d="M415 724q0 -56 -40 -87t-94 -31q-53 0 -91 30t-38 86l3 27h13q0 -28 35.5 -45t80.5 -17t80.5 17t35.5 45h13q2 -6 2 -25z" />
    <glyph glyph-name="dotaccent" unicode="&#x2d9;" horiz-adv-x="227" 
d="M170 682q0 -24 -16.5 -40.5t-40.5 -16.5q-25 0 -42 16t-17 41q0 24 17 40.5t42 16.5q23 0 40 -17t17 -40z" />
    <glyph glyph-name="ring" unicode="&#x2da;" horiz-adv-x="565" 
d="M374 672q0 -37 -26 -63.5t-63 -26.5t-62.5 26t-25.5 63q0 36 25.5 62t62.5 26t63 -26t26 -61zM344 672q0 23 -17.5 40t-41.5 17t-41 -17t-17 -41q0 -25 17 -42t41 -17t41.5 17.5t17.5 42.5z" />
    <glyph glyph-name="ogonek" unicode="&#x2db;" horiz-adv-x="497" 
d="M286 -140l51 -61q0 -31 -20 -49t-47 -18q-35 0 -54.5 25.5t-19.5 62.5q0 49 35.5 90t102.5 49z" />
    <glyph glyph-name="tilde" unicode="&#x2dc;" horiz-adv-x="565" 
d="M437 707q0 -39 -25 -60.5t-64 -21.5q-24 0 -54 11l-90 32l-65 -45q-8 26 -8 44q0 39 25 60.5t64 21.5q24 0 54 -11l90 -32l65 45q8 -26 8 -44z" />
    <glyph glyph-name="hungarumlaut" unicode="&#x2dd;" horiz-adv-x="565" 
d="M375 767l91 -75l-157 -114l-9 7zM205 767l91 -75l-157 -114l-9 7z" />
    <glyph glyph-name="endash" unicode="&#x2013;" horiz-adv-x="600" 
d="M550 308v-64h-500v64h500z" />
    <glyph glyph-name="emdash" unicode="&#x2014;" horiz-adv-x="1100" 
d="M1050 308v-64h-1000v64h1000z" />
    <glyph glyph-name="quoteleft" unicode="&#x2018;" horiz-adv-x="207" 
d="M167 500q0 -31 -22 -53t-53 -22q-38 0 -60 30.5t-22 69.5q0 63 45.5 119t107.5 63l-52 -134q24 -7 40 -27t16 -46z" />
    <glyph glyph-name="quoteright" unicode="&#x2019;" horiz-adv-x="247" 
d="M197 607q0 -63 -45.5 -119t-107.5 -63l52 134q-24 7 -40 27t-16 46q0 31 22 53t53 22q38 0 60 -30.5t22 -69.5z" />
    <glyph glyph-name="quotesinglbase" unicode="&#x201a;" horiz-adv-x="267" 
d="M237 37q0 -63 -45.5 -119t-107.5 -63l52 134q-24 7 -40 27t-16 46q0 31 22 53t53 22q38 0 60 -30.5t22 -69.5z" />
    <glyph glyph-name="quotedblleft" unicode="&#x201c;" horiz-adv-x="427" 
d="M387 500q0 -31 -22 -53t-53 -22q-38 0 -60 30.5t-22 69.5q0 63 45.5 119t107.5 63l-52 -134q24 -7 40 -27t16 -46zM167 500q0 -31 -22 -53t-53 -22q-38 0 -60 30.5t-22 69.5q0 63 45.5 119t107.5 63l-52 -134q24 -7 40 -27t16 -46z" />
    <glyph glyph-name="quotedblright" unicode="&#x201d;" horiz-adv-x="467" 
d="M417 607q0 -63 -45.5 -119t-107.5 -63l52 134q-24 7 -40 27t-16 46q0 31 22 53t53 22q38 0 60 -30.5t22 -69.5zM197 607q0 -63 -45.5 -119t-107.5 -63l52 134q-24 7 -40 27t-16 46q0 31 22 53t53 22q38 0 60 -30.5t22 -69.5z" />
    <glyph glyph-name="quotedblbase" unicode="&#x201e;" horiz-adv-x="487" 
d="M457 37q0 -63 -45.5 -119t-107.5 -63l52 134q-24 7 -40 27t-16 46q0 31 22 53t53 22q38 0 60 -30.5t22 -69.5zM237 37q0 -63 -45.5 -119t-107.5 -63l52 134q-24 7 -40 27t-16 46q0 31 22 53t53 22q38 0 60 -30.5t22 -69.5z" />
    <glyph glyph-name="dagger" unicode="&#x2020;" horiz-adv-x="446" 
d="M426 550v-126l-189 51l54 -475h-136l54 475l-189 -51v126l189 -50l-54 200h136l-54 -200z" />
    <glyph glyph-name="daggerdbl" unicode="&#x2021;" horiz-adv-x="446" 
d="M426 276v-126l-189 50l54 -200h-136l54 200l-189 -50v126l189 -51l-54 125l54 125l-189 -51v126l189 -50l-54 200h136l-54 -200l189 50v-126l-189 51l54 -125l-54 -125z" />
    <glyph glyph-name="bullet" unicode="&#x2022;" horiz-adv-x="331" 
d="M301 303q0 -56 -39.5 -96t-95.5 -40q-57 0 -96.5 40t-39.5 96t39.5 95.5t96.5 39.5q56 0 95.5 -40t39.5 -95z" />
    <glyph glyph-name="ellipsis" unicode="&#x2026;" horiz-adv-x="1010" 
d="M930 62q0 -31 -22 -53t-53 -22t-53 22t-22 53t22 53t53 22t53 -22t22 -53zM580 62q0 -31 -22 -53t-53 -22t-53 22t-22 53t22 53t53 22t53 -22t22 -53zM230 62q0 -31 -22 -53t-53 -22t-53 22t-22 53t22 53t53 22t53 -22t22 -53z" />
    <glyph glyph-name="perthousand" unicode="&#x2030;" horiz-adv-x="1047" 
d="M1022 172q0 -87 -41 -134.5t-102 -47.5t-102.5 47.5t-41.5 134.5t41.5 134t102.5 47t102 -47t41 -134zM536 736l35 -19l-391 -738l-34 19zM682 172q0 -87 -41 -134.5t-102 -47.5t-102.5 47.5t-41.5 134.5t41.5 134t102.5 47t102 -47t41 -134zM312 529q0 -87 -41 -134.5
t-102 -47.5t-102.5 47.5t-41.5 134.5t41.5 134t102.5 47t102 -47t41 -134zM982 172q0 72 -30.5 108.5t-72.5 36.5t-73 -36.5t-31 -108.5q0 -73 31 -109.5t73 -36.5t72.5 36.5t30.5 109.5zM642 172q0 72 -30.5 108.5t-72.5 36.5t-73 -36.5t-31 -108.5q0 -73 31 -109.5
t73 -36.5t72.5 36.5t30.5 109.5zM272 529q0 72 -30.5 108.5t-72.5 36.5t-73 -36.5t-31 -108.5q0 -73 31 -109.5t73 -36.5t72.5 36.5t30.5 109.5z" />
    <glyph glyph-name="guilsinglleft" unicode="&#x2039;" horiz-adv-x="406" 
d="M195 265l151 -232l-10 -10l-276 235v16l276 235l10 -10z" />
    <glyph glyph-name="guilsinglright" unicode="&#x203a;" horiz-adv-x="406" 
d="M346 274v-16l-276 -235l-10 10l151 232l-151 234l10 10z" />
    <glyph glyph-name="fraction" unicode="&#x2044;" horiz-adv-x="559" 
d="M514 706l25 -18l-493 -696l-26 19z" />
    <glyph glyph-name="Euro" unicode="&#x20ac;" horiz-adv-x="719" 
d="M634 709v-225h-15l-82 166q-43 8 -77 8q-184 0 -217 -203h215l-20 -42h-200q-2 -38 -2 -62q0 -23 2 -61h190l-20 -42h-165q32 -205 217 -205q34 0 77 8l77 166h15v-225l-97 40q-44 -48 -126 -48q-230 0 -269 264h-117l20 42h92q-2 40 -2 61q0 22 2 62h-112l20 42h97
q40 262 271 262q37 0 71 -13.5t53 -34.5z" />
    <glyph glyph-name="trademark" unicode="&#x2122;" horiz-adv-x="871" 
d="M821 348v-10h-167v11l49 31v219h-2l-101 -261h-20l-104 262h-2v-218l52 -33v-11h-147v11l55 40v249l-55 40v10h131l101 -246l79 246h131v-10l-50 -39v-251zM351 694v-127h-11l-49 90h-57v-271l55 -37v-11h-176v10l54 41v268h-57l-49 -90h-11v127l49 -6h203z" />
    <glyph glyph-name="minus" unicode="&#x2212;" horiz-adv-x="603" 
d="M543 362v-42h-483v42h483z" />
    <glyph glyph-name="fi" unicode="&#xfb01;" horiz-adv-x="698" 
d="M681 12v-12h-293v12l94 64v343l-242 24v-381l77 -50v-12h-272v12l97 64v328l-82 69v12h83v120q0 76 44.5 110.5t114.5 34.5q59 0 116 -24v-94l-178 90v-265l339 50v-450z" />
    <glyph glyph-name="fl" unicode="&#xfb02;" horiz-adv-x="699" 
d="M682 12v-12h-293v12l94 64v599q-59 17 -119 17q-124 0 -124 -98v-109h112v-48h-112v-375l77 -50v-12h-272v12l97 64v328l-82 69v12h82v136q0 62 46.5 95.5t112.5 33.5q41 0 94.5 -16t81.5 -41l103 74v-710z" />
    <glyph glyph-name="alt_g" horiz-adv-x="588" 
d="M508 503v-574q0 -82 -53.5 -130t-128.5 -48t-135 47l-88 -32v197h11l81 -148q33 -8 83 -8q132 0 132 103v142q-21 -29 -56 -46t-70 -17q-103 0 -156 76.5t-53 186.5q0 105 53 181t152 76q42 0 77 -16.5t53 -40.5zM410 60v378q-40 8 -73 8q-155 0 -155 -197t155 -197
q33 0 73 8z" />
    </font>
</defs>
</svg>
